<svg width="48" height="48" viewBox="0 0 48 48" fill="none" xmlns="http://www.w3.org/2000/svg">
<g id="Figma_black">
<g id="Social_icons_black">
<g id="Figma">
<path id="Combined-Shape" fill-rule="evenodd" clip-rule="evenodd" d="M24 0C10.7452 0 0 10.7452 0 24C0 37.2548 10.7452 48 24 48C37.2548 48 48 37.2548 48 24C48 10.7452 37.2548 0 24 0ZM24 33.6C24 36.251 21.851 38.4 19.2 38.4C16.549 38.4 14.4 36.251 14.4 33.6C14.4 30.949 16.549 28.8 19.2 28.8C16.549 28.8 14.4 26.651 14.4 24C14.4 21.349 16.549 19.2 19.2 19.2C16.549 19.2 14.4 17.051 14.4 14.4C14.4 11.749 16.549 9.6 19.2 9.6H24H28.8C31.451 9.6 33.6 11.749 33.6 14.4C33.6 17.051 31.451 19.2 28.8 19.2H24V24V28.8V33.6ZM24 24C24 26.651 26.149 28.8 28.8 28.8C31.451 28.8 33.6 26.651 33.6 24C33.6 21.349 31.451 19.2 28.8 19.2C26.149 19.2 24 21.349 24 24Z" fill="black"/>
</g>
</g>
</g>
</svg>
