<svg width="48" height="48" viewBox="0 0 48 48" fill="none" xmlns="http://www.w3.org/2000/svg">
<g id="Instagram_black">
<g id="Instagram">
<path id="Combined-Shape" fill-rule="evenodd" clip-rule="evenodd" d="M24 0C10.7452 0 0 10.7452 0 24C0 37.2548 10.7452 48 24 48C37.2548 48 48 37.2548 48 24C48 10.7452 37.2548 0 24 0ZM18.7233 11.2773C20.0886 11.2152 20.5249 11.2 24.0012 11.2H23.9972C27.4746 11.2 27.9092 11.2152 29.2746 11.2773C30.6373 11.3397 31.5679 11.5555 32.384 11.872C33.2266 12.1987 33.9386 12.636 34.6506 13.348C35.3627 14.0595 35.8 14.7736 36.128 15.6155C36.4427 16.4294 36.6587 17.3595 36.7227 18.7222C36.784 20.0876 36.8 20.5238 36.8 24.0001C36.8 27.4764 36.784 27.9116 36.7227 29.277C36.6587 30.6391 36.4427 31.5695 36.128 32.3837C35.8 33.2253 35.3627 33.9394 34.6506 34.6509C33.9394 35.3629 33.2264 35.8013 32.3848 36.1283C31.5703 36.4448 30.6391 36.6605 29.2765 36.7229C27.9111 36.7851 27.4762 36.8003 23.9996 36.8003C20.5236 36.8003 20.0876 36.7851 18.7222 36.7229C17.3598 36.6605 16.4294 36.4448 15.615 36.1283C14.7736 35.8013 14.0595 35.3629 13.3483 34.6509C12.6365 33.9394 12.1992 33.2253 11.872 32.3834C11.5557 31.5695 11.34 30.6394 11.2773 29.2767C11.2155 27.9114 11.2 27.4764 11.2 24.0001C11.2 20.5238 11.216 20.0873 11.2771 18.7219C11.3384 17.3598 11.5544 16.4294 11.8717 15.6152C12.1997 14.7736 12.6371 14.0595 13.3491 13.348C14.0606 12.6363 14.7747 12.1989 15.6166 11.872C16.4305 11.5555 17.3606 11.3397 18.7233 11.2773Z" fill="black"/>
<path id="Combined-Shape_2" fill-rule="evenodd" clip-rule="evenodd" d="M22.8529 13.5067C23.0759 13.5064 23.3157 13.5065 23.5746 13.5066L24.0012 13.5067C27.4188 13.5067 27.8239 13.519 29.1735 13.5803C30.4215 13.6374 31.0989 13.8459 31.5501 14.0211C32.1474 14.2531 32.5733 14.5305 33.021 14.9785C33.469 15.4265 33.7464 15.8532 33.9789 16.4505C34.1541 16.9012 34.3629 17.5785 34.4197 18.8265C34.481 20.1759 34.4944 20.5812 34.4944 23.9972C34.4944 27.4133 34.481 27.8186 34.4197 29.168C34.3626 30.416 34.1541 31.0933 33.9789 31.544C33.7469 32.1413 33.469 32.5667 33.021 33.0144C32.573 33.4624 32.1477 33.7398 31.5501 33.9718C31.0994 34.1478 30.4215 34.3558 29.1735 34.4128C27.8242 34.4742 27.4188 34.4875 24.0012 34.4875C20.5833 34.4875 20.1782 34.4742 18.8289 34.4128C17.5809 34.3552 16.9035 34.1467 16.452 33.9715C15.8547 33.7395 15.428 33.4621 14.98 33.0141C14.532 32.5661 14.2547 32.1405 14.0222 31.5429C13.847 31.0923 13.6382 30.4149 13.5814 29.1669C13.52 27.8176 13.5078 27.4122 13.5078 23.994C13.5078 20.5759 13.52 20.1727 13.5814 18.8233C13.6384 17.5753 13.847 16.898 14.0222 16.4468C14.2542 15.8494 14.532 15.4228 14.98 14.9748C15.428 14.5268 15.8547 14.2494 16.452 14.0169C16.9033 13.8409 17.5809 13.6329 18.8289 13.5755C20.0097 13.5222 20.4673 13.5062 22.8529 13.5035V13.5067ZM30.8338 15.6321C29.9858 15.6321 29.2978 16.3193 29.2978 17.1676C29.2978 18.0156 29.9858 18.7036 30.8338 18.7036C31.6818 18.7036 32.3698 18.0156 32.3698 17.1676C32.3698 16.3196 31.6818 15.6316 30.8338 15.6316V15.6321ZM17.4278 24.0002C17.4278 20.3701 20.3709 17.4269 24.0009 17.4268C27.6311 17.4268 30.5735 20.37 30.5735 24.0002C30.5735 27.6304 27.6314 30.5723 24.0012 30.5723C20.371 30.5723 17.4278 27.6304 17.4278 24.0002Z" fill="black"/>
<path id="Shape" d="M24.0012 19.7334C26.3575 19.7334 28.2679 21.6436 28.2679 24.0001C28.2679 26.3564 26.3575 28.2668 24.0012 28.2668C21.6447 28.2668 19.7345 26.3564 19.7345 24.0001C19.7345 21.6436 21.6447 19.7334 24.0012 19.7334V19.7334Z" fill="black"/>
</g>
</g>
</svg>
