<svg width="48" height="48" viewBox="0 0 48 48" fill="none" xmlns="http://www.w3.org/2000/svg">
<g id="RSS_black">
<g id="RSS">
<path id="Combined-Shape" fill-rule="evenodd" clip-rule="evenodd" d="M24 0C10.7452 0 0 10.7452 0 24C0 37.2548 10.7452 48 24 48C37.2548 48 48 37.2548 48 24C48 10.7452 37.2548 0 24 0ZM17.6002 33.6C15.833 33.6 14.4002 32.1672 14.4002 30.4C14.4002 28.6328 15.833 27.2 17.6002 27.2C19.3674 27.2 20.8002 28.6328 20.8002 30.4C20.8002 32.1672 19.3674 33.6 17.6002 33.6ZM36.8 33.6C36.8 21.2488 26.7513 11.2 14.4002 11.2V15.4664C24.3993 15.4664 32.5336 23.6008 32.5336 33.6H36.8ZM14.4 18.6664C22.6343 18.6664 29.3334 25.3656 29.3334 33.6H25.0671C25.0671 27.7184 20.2815 22.9336 14.4 22.9336V18.6664Z" fill="black"/>
</g>
</g>
</svg>
