<svg width="48" height="48" viewBox="0 0 48 48" fill="none" xmlns="http://www.w3.org/2000/svg">
<g id="Twitter_black">
<g id="Twitter">
<path id="Combined-Shape" fill-rule="evenodd" clip-rule="evenodd" d="M24 0C10.7452 0 0 10.7452 0 24C0 37.2548 10.7452 48 24 48C37.2548 48 48 37.2548 48 24C48 10.7452 37.2548 0 24 0ZM23.3316 20.338L23.2812 19.5075C23.1301 17.3551 24.4563 15.3891 26.5548 14.6265C27.327 14.3553 28.6364 14.3214 29.4926 14.5587C29.8283 14.6604 30.4663 14.9993 30.9195 15.3044L31.7421 15.8637L32.6486 15.5756C33.1523 15.423 33.8238 15.1688 34.1259 14.9993C34.4113 14.8468 34.6631 14.762 34.6631 14.8129C34.6631 15.101 34.042 16.084 33.5216 16.6263C32.8165 17.389 33.018 17.4568 34.4449 16.9483C35.3011 16.6602 35.3178 16.6602 35.15 16.9822C35.0492 17.1517 34.5288 17.7449 33.9748 18.2872C33.0347 19.2194 32.9844 19.3211 32.9844 20.1007C32.9844 21.304 32.4136 23.8123 31.8428 25.1851C30.7852 27.7612 28.5189 30.422 26.2526 31.7609C23.063 33.6422 18.8157 34.1167 15.24 33.0151C14.0481 32.6422 12 31.6931 12 31.5237C12 31.4728 12.6211 31.405 13.3766 31.3881C14.9546 31.3542 16.5326 30.9135 17.8756 30.1339L18.7822 29.5916L17.7413 29.2357C16.264 28.7272 14.9378 27.5578 14.6021 26.4562C14.5013 26.1003 14.5349 26.0833 15.475 26.0833L16.4487 26.0664L15.6261 25.6766C14.6524 25.1851 13.7627 24.3546 13.3262 23.5072C13.0072 22.8971 12.6044 21.3548 12.7219 21.2362C12.7554 21.1854 13.108 21.287 13.5109 21.4226C14.6692 21.8463 14.8203 21.7446 14.1488 21.0328C12.8897 19.7448 12.5036 17.8296 13.108 16.0162L13.3934 15.2027L14.5013 16.3043C16.7677 18.5245 19.4369 19.8465 22.4922 20.2363L23.3316 20.338Z" fill="black"/>
</g>
</g>
</svg>
