<svg xmlns="http://www.w3.org/2000/svg" width="148" height="150" viewBox="0 0 148 150">
  <path fill="#0B776D" fill-rule="evenodd" d="M959.4855,1712.3785 C959.8805,1710.0285 960.1425,1707.676 960.1425,1705.357 C960.143,1681.726 940.9165,1662.5 917.2855,1662.5 L883.9525,1662.5 C860.3215,1662.5 841.095,1681.726 841.095,1705.357 C841.095,1717.5595 846.288,1729.126 855.3805,1737.269 L855.3805,1764.1905 L869.8235,1756.0665 C871.4185,1778.2545 889.9355,1795.833 912.5235,1795.833 L945.857,1795.833 C945.9095,1795.833 945.964,1795.833 946.0215,1795.8305 L974.4285,1811.809 L974.4285,1784.8875 C983.5215,1776.7445 988.714,1765.178 988.714,1752.9755 C988.7145,1734.112 976.4475,1718.0905 959.4855,1712.3785 L959.4855,1712.3785 L959.4855,1712.3785 Z M869.79,1750.5365 C869.783,1750.57 869.7735,1750.603 869.766,1750.6365 L860.142,1756.0485 L860.142,1735.0865 L859.3025,1734.374 C850.7595,1727.1075 845.8575,1716.531 845.8575,1705.3575 C845.8575,1684.3525 862.948,1667.2625 883.9525,1667.2625 L917.286,1667.2625 C938.291,1667.2625 955.381,1684.353 955.381,1705.3575 C955.381,1707.2525 955.231,1709.179 954.931,1711.1075 C952.0025,1710.472 948.9715,1710.1195 945.857,1710.1195 L917.2855,1710.1195 L912.5235,1710.1195 L862.5235,1710.1195 L862.5235,1714.8815 L892.9805,1714.8815 C879.845,1721.648 870.6735,1734.9885 869.79,1750.5365 L869.79,1750.5365 L869.79,1750.5365 Z M970.507,1781.993 L969.6665,1782.705 L969.6665,1803.667 L947.188,1791.022 L946.5405,1791.034 C946.3855,1791.039 946.231,1791.0485 945.857,1791.072 L912.5235,1791.072 C891.5185,1791.072 874.4285,1773.9815 874.4285,1752.977 C874.4285,1731.9725 891.519,1714.882 912.5235,1714.882 L917.2855,1714.882 L945.857,1714.882 C966.862,1714.882 983.952,1731.9725 983.952,1752.977 C983.9525,1764.15 979.05,1774.726 970.507,1781.993 L970.507,1781.993 Z M937.757,1757.6 C943.9975,1754.15 948.238,1747.505 948.238,1739.881 C948.238,1728.7215 939.1595,1719.643 928,1719.643 C916.8405,1719.643 907.762,1728.7215 907.762,1739.881 C907.762,1747.505 912.0025,1754.15 918.243,1757.6 C910.65,1761.2525 905.381,1769 905.381,1777.976 L905.381,1786.3095 L950.619,1786.3095 L950.619,1777.976 C950.619,1769 945.35,1761.2525 937.757,1757.6 L937.757,1757.6 Z M912.524,1739.881 C912.524,1731.3475 919.467,1724.405 928,1724.405 C936.533,1724.405 943.476,1731.348 943.476,1739.881 C943.476,1748.414 936.533,1755.357 928,1755.357 C919.467,1755.357 912.524,1748.4145 912.524,1739.881 L912.524,1739.881 Z M945.8565,1781.5475 L910.1425,1781.5475 L910.1425,1777.976 C910.1425,1768.1285 918.152,1760.119 927.9995,1760.119 C937.847,1760.119 945.8565,1768.1285 945.8565,1777.976 L945.8565,1781.5475 L945.8565,1781.5475 Z M922.0475,1736.3095 C923.36249,1736.3095 924.4285,1735.24349 924.4285,1733.9285 C924.4285,1732.61351 923.36249,1731.5475 922.0475,1731.5475 C920.73251,1731.5475 919.6665,1732.61351 919.6665,1733.9285 C919.6665,1735.24349 920.73251,1736.3095 922.0475,1736.3095 L922.0475,1736.3095 Z M933.9525,1736.3095 C935.26749,1736.3095 936.3335,1735.24349 936.3335,1733.9285 C936.3335,1732.61351 935.26749,1731.5475 933.9525,1731.5475 C932.63751,1731.5475 931.5715,1732.61351 931.5715,1733.9285 C931.5715,1735.24349 932.63751,1736.3095 933.9525,1736.3095 L933.9525,1736.3095 Z M939.369,1744.888 L935.5715,1742.0165 C933.736,1744.4425 930.9765,1745.833 928,1745.833 C925.0235,1745.833 922.2645,1744.4425 920.4285,1742.0165 L916.6285,1744.888 C919.3735,1748.514 923.5165,1750.595 928,1750.595 C932.4835,1750.595 936.626,1748.514 939.369,1744.888 L939.369,1744.888 Z M862.524,1681.5475 L938.7145,1681.5475 L938.7145,1686.3095 L862.524,1686.3095 L862.524,1681.5475 L862.524,1681.5475 Z M862.524,1695.8335 L938.7145,1695.8335 L938.7145,1700.5955 L862.524,1700.5955 L862.524,1695.8335 L862.524,1695.8335 Z" transform="translate(-841 -1662)"/>
</svg>
