<svg xmlns="http://www.w3.org/2000/svg" width="131" height="149" viewBox="0 0 131 149">
  <path fill="#0B776D" fill-rule="evenodd" d="M1284.106,777.745 L1270.2655,788.105 L1256.3465,820.5575 L1245.1535,820.5575 L1240.7585,811.0335 L1243.63,811.0335 C1248.8825,811.0335 1253.154,806.8075 1253.154,801.555 L1253.154,791.9855 L1257.916,791.9855 L1257.916,777.7 L1243.63,777.7 L1243.63,791.9855 L1248.392,791.9855 L1248.392,801.555 C1248.392,804.179 1246.2565,806.2715 1243.63,806.2715 L1238.561,806.2715 L1232.475,793.105 L1239.7655,789.4715 L1215.894,779.2475 L1210.282,798.888 C1210.1295,787.2025 1200.589,777.743 1188.8675,777.743 C1177.051,777.743 1167.439,787.355 1167.439,799.1715 C1167.439,806.312 1171.0555,813.0095 1176.963,816.969 L1176.963,820.557 L1171.1965,820.557 L1170.825,822.5095 C1169.668,828.512 1169.5605,834.681 1170.506,840.8335 L1154.263,869.786 L1172.201,873.8835 L1172.201,903.8905 L1196.0105,903.8905 L1196.0105,925.319 L1253.1535,925.319 L1253.1535,892.1405 C1269.82,880.35 1279.339,861.393 1279.325,841.169 L1279.33,832.4835 C1279.33,829.2095 1279.0275,825.8455 1278.418,822.531 L1278.0655,820.557 L1273.3915,820.557 L1284.106,794.888 L1284.106,777.745 L1284.106,777.745 L1284.106,777.745 Z M1248.3915,787.269 L1248.3915,782.507 L1253.1535,782.507 L1253.1535,787.269 L1248.3915,787.269 L1248.3915,787.269 L1248.3915,787.269 Z M1239.9085,820.557 L1230.8775,820.557 L1226.549,811.033 L1235.5135,811.033 L1239.9085,820.557 L1239.9085,820.557 L1239.9085,820.557 Z M1218.9845,785.7595 L1228.449,789.8145 L1226.2155,790.9095 L1233.3155,806.2715 L1224.3845,806.2715 L1218.582,793.536 L1216.451,794.612 L1218.9845,785.7595 L1218.9845,785.7595 L1218.9845,785.7595 Z M1225.6465,820.5575 L1215.0585,820.5575 L1215.0585,815.841 C1215.0585,813.215 1217.194,811.034 1219.8205,811.034 L1221.318,811.034 L1221.318,811.0335 L1225.6465,820.5575 L1225.6465,820.5575 L1225.6465,820.5575 Z M1216.2965,800.026 L1219.1845,806.381 C1214.232,806.7145 1210.2965,810.805 1210.2965,815.8405 L1210.2965,820.557 L1200.7725,820.557 L1200.7725,816.969 C1205.537,813.776 1208.77,808.793 1209.8605,803.243 L1216.2965,800.026 L1216.2965,800.026 L1216.2965,800.026 Z M1172.2015,799.174 C1172.2015,789.986 1179.68,782.5075 1188.868,782.5075 C1198.056,782.5075 1205.5345,789.986 1205.5345,799.174 C1205.5345,805.0885 1202.3395,810.6145 1197.199,813.593 L1196.011,814.2785 L1196.011,820.557 L1191.249,820.557 L1191.249,805.876 C1194.0135,804.8905 1196.011,802.271 1196.011,799.171 C1196.011,795.233 1192.806,792.028 1188.868,792.028 C1184.93,792.028 1181.725,795.2335 1181.725,799.1715 C1181.725,802.2715 1183.7225,804.8905 1186.487,805.8765 L1186.487,820.5575 L1181.725,820.5575 L1181.725,814.2785 L1180.537,813.5905 C1175.3965,810.612 1172.2015,805.088 1172.2015,799.174 L1172.2015,799.174 L1172.2015,799.174 Z M1188.868,801.555 C1187.5535,801.555 1186.487,800.4855 1186.487,799.174 C1186.487,797.8595 1187.5535,796.793 1188.868,796.793 C1190.1825,796.793 1191.249,797.8595 1191.249,799.174 C1191.249,800.4885 1190.1825,801.555 1188.868,801.555 L1188.868,801.555 L1188.868,801.555 Z M1274.058,825.3195 C1274.4035,827.7 1274.5775,830.1145 1274.5775,832.462 L1274.5825,841.1645 C1274.597,860.2385 1265.185,878.1 1249.4395,888.9405 L1248.392,889.655 L1248.392,920.5575 L1200.773,920.5575 L1200.773,899.129 L1176.963,899.129 L1176.963,870.086 L1161.532,866.5645 L1175.47,841.7145 L1175.3345,840.8645 C1174.449,835.655 1174.399,830.081 1175.168,825.3195 L1176.963,825.3195 L1200.7725,825.3195 L1274.058,825.3195 L1274.058,825.3195 L1274.058,825.3195 Z M1268.232,820.557 L1261.525,820.557 L1273.394,792.8855 L1278.6725,795.514 L1268.232,820.557 L1268.232,820.557 L1268.232,820.557 Z M1279.344,790.557 L1276.7105,789.2405 L1279.344,787.269 L1279.344,790.557 L1279.344,790.557 Z M1193.63,839.605 C1189.692,839.605 1186.487,837.224 1186.487,832.462 L1181.725,832.462 C1181.725,839.605 1187.0655,844.367 1193.63,844.367 C1200.1945,844.367 1205.535,839.605 1205.535,832.462 L1200.773,832.462 C1200.7725,837.224 1197.568,839.605 1193.63,839.605 L1193.63,839.605 Z" transform="translate(-1154 -777)"/>
</svg>
