<svg xmlns="http://www.w3.org/2000/svg" width="149" height="149" viewBox="0 0 149 149">
  <path fill="#0B776D" fill-rule="evenodd" d="M1282.395,521.5295 L1260.5285,521.5295 C1260.795,520.782 1260.9665,519.9865 1260.9665,519.1485 C1260.9665,515.2105 1257.7615,512.0055 1253.8235,512.0055 L1251.4425,512.0055 L1251.4425,490.577 C1251.4425,486.639 1248.2375,483.434 1244.2995,483.434 L1187.157,483.434 C1183.219,483.434 1180.014,486.639 1180.014,490.577 L1180.014,509.6245 C1180.014,510.939 1178.945,512.0055 1177.633,512.0055 L1156.205,512.0055 L1156.205,507.2435 C1156.205,503.3055 1153,500.1005 1149.062,500.1005 L1141.919,500.1005 L1141.919,528.672 L1149.062,528.672 C1153,528.672 1156.205,525.467 1156.205,521.529 L1156.205,516.767 L1177.6335,516.767 C1181.5715,516.767 1184.7765,513.562 1184.7765,509.624 L1184.7765,490.577 C1184.7765,489.2625 1185.8455,488.196 1187.1575,488.196 L1244.3,488.196 C1245.612,488.196 1246.681,489.2625 1246.681,490.577 L1246.681,512.0055 L1244.3,512.0055 C1240.362,512.0055 1237.157,515.2105 1237.157,519.1485 C1237.157,519.9865 1237.3285,520.782 1237.595,521.5295 L1215.7285,521.5295 C1211.7905,521.5295 1208.5855,524.7345 1208.5855,528.6725 L1162.512,528.6725 L1147.631,540.5775 L1162.512,552.4825 L1208.586,552.4825 L1208.586,557.2445 L1173.0215,557.2445 L1152.7975,554.716 L1141.25,569.1485 L1152.7975,583.582 L1173.0215,581.0535 L1208.586,581.0535 L1208.586,588.1965 L1141.919,588.1965 L1141.919,623.911 L1226.1525,623.911 C1232.674,628.406 1240.562,631.054 1249.062,631.054 C1271.381,631.054 1289.538,612.897 1289.538,590.578 L1289.538,528.672 C1289.538,524.734 1286.3335,521.5295 1282.395,521.5295 L1282.395,521.5295 L1282.395,521.5295 Z M1151.443,521.5295 C1151.443,522.844 1150.374,523.9105 1149.062,523.9105 L1146.681,523.9105 L1146.681,504.8625 L1149.062,504.8625 C1150.374,504.8625 1151.443,505.929 1151.443,507.2435 L1151.443,521.5295 L1151.443,521.5295 L1151.443,521.5295 Z M1160.9665,545.146 L1155.2545,540.577 L1160.9665,536.0055 L1160.9665,545.146 L1160.9665,545.146 L1160.9665,545.146 Z M1208.5855,547.7195 L1165.7285,547.7195 L1165.7285,542.9575 L1208.5855,542.9575 L1208.5855,547.7195 L1208.5855,547.7195 L1208.5855,547.7195 Z M1208.5855,538.196 L1165.7285,538.196 L1165.7285,533.434 L1208.5855,533.434 L1208.5855,538.196 L1208.5855,538.196 L1208.5855,538.196 Z M1170.4905,576.587 L1154.85,578.527 L1149.255,571.5295 L1151.8835,571.5295 C1152.867,574.294 1155.486,576.2915 1158.586,576.2915 C1162.524,576.2915 1165.729,573.0865 1165.729,569.1485 C1165.729,565.2105 1162.524,562.0055 1158.586,562.0055 C1155.486,562.0055 1152.867,564.003 1151.881,566.7675 L1149.255,566.7675 L1154.85,559.7725 L1170.4905,561.7275 L1170.4905,576.587 L1170.4905,576.587 L1170.4905,576.587 Z M1156.205,569.1485 C1156.205,567.834 1157.274,566.7675 1158.586,566.7675 C1159.898,566.7675 1160.967,567.834 1160.967,569.1485 C1160.967,570.463 1159.898,571.5295 1158.586,571.5295 C1157.274,571.5295 1156.205,570.4625 1156.205,569.1485 L1156.205,569.1485 L1156.205,569.1485 Z M1208.5855,576.2905 L1184.776,576.2905 L1184.776,562.0055 L1180.014,562.0055 L1180.014,576.291 L1175.252,576.291 L1175.252,561.9885 L1208.5855,562.005 L1208.5855,576.2905 L1208.5855,576.2905 L1208.5855,576.2905 Z M1244.3,516.7675 L1253.824,516.7675 C1255.136,516.7675 1256.205,517.834 1256.205,519.1485 C1256.205,520.463 1255.136,521.5295 1253.824,521.5295 L1244.3,521.5295 C1242.988,521.5295 1241.919,520.4625 1241.919,519.1485 C1241.919,517.834 1242.988,516.7675 1244.3,516.7675 L1244.3,516.7675 L1244.3,516.7675 Z M1146.681,619.1485 L1146.681,592.958 L1151.443,592.958 L1151.443,600.101 L1156.205,600.101 L1156.205,592.958 L1160.967,592.958 L1160.967,602.482 L1165.729,602.482 L1165.729,592.958 L1170.491,592.958 L1170.491,600.101 L1175.253,600.101 L1175.253,592.958 L1180.015,592.958 L1180.015,602.482 L1184.777,602.482 L1184.777,592.958 L1189.539,592.958 L1189.539,600.101 L1194.301,600.101 L1194.301,592.958 L1199.063,592.958 L1199.063,602.482 L1203.825,602.482 L1203.825,592.958 L1208.7085,592.958 C1209.306,603.1485 1213.642,612.351 1220.423,619.1485 L1146.681,619.1485 L1146.681,619.1485 L1146.681,619.1485 Z M1284.776,590.5765 C1284.776,610.2695 1268.755,626.291 1249.062,626.291 C1229.369,626.291 1213.3475,610.2695 1213.3475,590.5765 L1213.3475,581.0525 L1213.3475,557.243 L1213.3475,554.862 L1284.776,554.862 L1284.776,590.5765 L1284.776,590.5765 L1284.776,590.5765 Z M1284.7765,550.1005 L1251.443,550.1005 L1251.443,531.053 L1246.681,531.053 L1246.681,550.1005 L1213.3475,550.1005 L1213.3475,528.672 C1213.3475,527.358 1214.4165,526.291 1215.7285,526.291 L1244.3,526.291 L1253.824,526.291 L1282.3955,526.291 C1283.7075,526.291 1284.7765,527.3575 1284.7765,528.672 L1284.7765,550.1005 L1284.7765,550.1005 L1284.7765,550.1005 Z" transform="translate(-1141 -483)"/>
</svg>
