<svg width="1489" height="215" viewBox="0 0 1489 215" fill="none" xmlns="http://www.w3.org/2000/svg">
<rect width="1489" height="215" fill="#12324A"/>
<path d="M722.387 85.0216C718.541 92.7617 719.022 99.5343 719.983 106.307C720.464 109.209 720.464 112.596 721.426 115.498C722.868 119.852 722.387 119.852 725.752 123.238C724.791 124.689 722.868 125.173 721.426 126.141C717.58 127.592 716.138 130.495 716.618 134.365C716.618 135.816 717.099 137.267 716.138 138.718C713.734 134.365 710.369 130.978 707.485 127.592C707.004 126.625 706.523 125.657 705.562 125.657C699.793 122.754 694.506 119.368 688.256 118.884C682.488 117.917 676.238 117.433 669.989 119.852C665.663 121.303 662.298 123.722 658.452 126.625C657.49 127.592 656.529 129.043 654.606 129.527C650.28 126.625 645.472 124.689 640.185 123.238C631.051 120.819 621.917 121.303 613.264 124.689C607.015 127.108 600.766 129.043 595.959 133.881C594.036 133.881 593.555 132.43 592.594 131.462C588.748 127.108 584.421 126.141 579.134 128.076C576.249 129.043 573.365 130.495 570 131.462C572.404 125.657 574.807 120.336 578.172 115.498C582.499 109.209 586.825 102.921 592.113 97.1155C597.882 90.8267 604.612 85.9891 611.822 81.1516C615.187 78.7328 619.033 76.7978 622.398 74.379C627.686 70.0252 633.935 70.0252 640.185 69.0577C644.03 68.574 648.357 69.5415 652.202 68.0902C653.645 67.6065 655.087 68.574 656.529 69.0577C665.182 72.444 673.354 76.7978 681.526 82.1191C686.814 85.5054 692.102 88.8917 697.871 92.2779C701.236 94.213 705.081 96.148 708.927 97.1155C714.215 93.7292 716.618 88.4079 722.387 85.0216ZM624.321 114.531C626.244 114.047 626.244 113.079 626.244 112.112C628.647 102.437 630.57 92.7617 632.974 83.0866C632.974 82.1191 632.974 81.6354 632.012 80.6678C629.609 80.6678 629.609 82.1191 629.128 84.0541C627.205 90.8267 625.763 97.5993 623.84 104.856C622.879 102.921 622.398 101.469 622.398 100.018C621.917 95.6642 620.956 91.3104 619.994 86.9566C619.514 85.5054 619.033 84.5379 617.591 84.0541C616.149 84.0541 615.668 85.0216 615.187 85.9891C611.822 93.7292 607.977 101.469 605.573 109.209C604.612 112.596 603.169 115.982 603.169 119.852C603.169 120.819 603.169 122.271 605.573 121.787C608.938 111.628 611.342 101.469 616.629 91.7942C617.11 92.2779 617.11 92.7617 617.11 93.2455C618.072 99.0505 619.514 104.856 620.475 110.661C621.437 113.079 622.398 114.531 624.321 114.531ZM641.146 81.6353C643.55 77.7653 648.357 79.7003 650.28 76.7978C649.799 76.314 649.799 75.8303 649.318 75.8303C644.03 74.8628 639.704 77.2815 637.781 81.6353C636.339 84.5379 636.82 87.4404 635.858 90.8267C634.416 98.083 633.935 105.339 633.935 112.596C633.935 114.047 634.416 115.014 635.858 115.982C639.704 115.982 644.511 117.433 649.318 114.531C645.953 110.661 641.146 114.047 637.3 111.628C637.781 108.726 636.82 105.823 638.262 102.921C642.588 102.921 642.588 102.921 643.069 100.502C641.627 99.5343 640.185 100.502 638.742 99.0505C638.262 92.2779 639.704 86.4729 641.146 81.6353ZM652.683 115.498C654.125 116.949 655.087 117.433 656.048 115.982C657.01 115.014 656.529 114.047 656.529 112.596C657.01 106.307 657.49 99.5343 657.971 93.2455C657.971 90.8267 658.933 87.9242 659.413 85.9891C662.778 85.0216 665.663 86.9566 668.066 83.5704C667.585 83.0866 667.105 82.1191 666.624 82.1191C661.336 81.6354 655.567 81.1516 650.28 82.1191C649.799 86.9566 654.606 83.0866 655.568 86.4729C655.087 95.1805 654.125 105.339 652.683 115.498ZM687.775 91.7942C683.93 97.1155 682.007 104.372 682.968 112.112C687.775 113.079 693.063 114.047 697.871 114.047C698.832 113.079 698.832 112.112 697.871 110.661C694.025 110.661 690.179 110.177 686.333 108.726C685.853 107.274 686.333 106.307 687.775 104.856C689.698 104.856 692.102 104.856 694.025 104.856C695.467 104.856 695.467 103.888 694.986 102.437C692.583 101.953 689.698 101.953 687.775 100.502C687.775 98.5668 688.256 97.1155 689.698 95.6642C692.102 95.6642 694.506 97.1155 697.39 95.1805C694.986 92.278 690.66 94.213 687.775 91.7942ZM670.95 113.563C671.431 107.274 672.393 100.502 672.393 93.7292C675.277 92.2779 678.642 94.6967 680.565 91.3104C676.238 88.8917 671.431 90.3429 667.105 88.8917C666.143 88.4079 665.182 89.3754 664.701 90.3429C665.182 92.278 667.585 91.7942 668.547 92.7617C669.989 100.018 666.624 106.791 668.066 114.047C669.028 114.531 669.989 114.531 670.95 113.563ZM601.727 92.2779C595.959 95.1805 592.594 100.018 589.229 104.372C584.421 109.693 580.576 115.982 577.211 122.271C576.73 123.722 576.249 124.689 577.691 125.657C578.172 125.173 578.653 125.173 578.653 124.689C584.902 114.047 591.632 103.888 601.247 95.6642C601.727 95.1805 602.208 94.6967 602.689 93.7292C602.689 93.7292 602.208 93.2455 601.727 92.2779Z" fill="#F8FAA5"/>
<path d="M906.501 108.242C904.578 107.274 903.136 105.339 902.175 103.888C898.81 99.5343 894.964 96.148 891.599 92.7617C891.118 92.278 890.638 92.278 890.157 92.278C888.715 93.7292 890.157 94.6967 891.118 95.6642C896.406 101.469 901.694 107.274 906.501 113.563C908.424 115.982 910.347 118.884 912.27 120.819C914.193 121.303 913.712 119.368 914.674 119.368C916.116 122.271 917.077 124.69 919 128.56C914.193 127.592 909.866 125.173 905.059 127.108C900.733 128.56 897.848 131.946 894.964 135.816C890.157 129.527 885.35 124.206 877.658 122.271C870.448 120.336 862.756 118.401 855.065 120.336C847.854 122.271 841.124 125.657 835.355 130.011C833.913 130.011 833.913 129.043 833.432 128.56C829.106 121.787 822.857 118.401 815.165 117.917C805.551 117.433 795.937 117.917 788.245 124.69C784.399 128.076 780.554 130.978 777.669 135.332C776.708 136.783 775.266 137.751 773.343 139.686C773.824 132.913 771.901 127.108 766.132 123.722C770.459 118.884 769.978 112.596 771.42 106.791C772.862 100.986 773.343 95.1805 770.939 88.4079C775.747 91.7942 779.112 94.213 783.438 97.1155C793.052 88.8917 804.109 83.0866 814.685 77.2816C823.337 72.9278 832.471 70.0252 842.085 68.0902C846.412 67.1227 850.738 69.0577 855.065 69.5415C857.949 70.0252 860.353 70.9928 863.237 72.444C874.293 78.7328 885.831 85.0216 894.964 93.7292C899.291 98.083 903.136 102.921 906.501 107.758C906.501 107.274 906.021 107.758 906.501 108.242ZM838.72 88.8917C841.605 93.7292 841.124 100.018 844.97 103.888C845.931 103.888 846.412 103.888 846.412 103.888C850.258 98.5668 851.219 91.3105 855.545 85.5054C855.065 96.148 856.507 105.823 856.988 115.982C858.91 116.466 859.872 115.498 859.872 114.047C860.353 112.596 860.353 111.144 859.872 109.209C858.91 100.018 858.91 90.8267 858.91 81.6354C858.91 80.6678 858.91 79.2166 858.91 78.2491C858.91 76.7978 858.43 75.8303 856.026 75.3465C852.18 82.1191 849.777 89.8592 845.45 97.5993C844.008 93.7292 843.047 89.8592 841.605 86.4729C840.643 83.0866 840.643 79.2166 838.24 76.3141C836.317 76.3141 835.836 77.2816 835.836 78.7328C835.355 82.6029 834.875 86.4729 834.394 90.3429C833.913 98.083 832.952 105.823 832.471 114.047C832.471 115.982 832.952 117.433 834.875 118.884C837.278 108.242 837.278 98.5668 838.72 88.8917ZM815.165 105.823C817.088 105.339 819.011 104.856 821.415 104.372C824.78 108.242 821.895 115.014 826.702 118.401C827.183 117.917 827.664 117.917 827.664 117.433C828.625 112.596 825.741 108.726 825.26 103.888C826.222 102.921 828.145 102.437 826.702 99.5343C826.702 99.0505 824.78 100.018 823.818 98.5668C823.337 97.1155 822.857 94.6967 822.376 92.7617C821.415 88.8917 820.934 85.0216 819.972 81.1516C819.492 79.2166 818.53 77.7653 816.127 78.7328C811.8 89.3754 807.474 113.563 808.916 115.498C809.877 115.982 810.839 115.982 811.32 115.014C813.242 111.628 812.281 108.242 815.165 105.823ZM869.967 106.307C870.928 106.307 871.89 106.307 873.332 106.307C874.293 106.307 875.735 105.823 876.697 105.339C880.543 103.888 881.504 102.437 881.023 98.5668C880.543 92.7617 876.216 88.8917 871.409 86.4729C869.967 85.5054 868.525 85.5054 867.083 86.4729C866.602 88.8917 866.121 91.3104 866.121 93.7292C865.64 100.986 866.602 108.242 864.679 115.014C864.198 116.466 865.16 117.433 866.602 117.917C869.005 114.047 868.044 109.693 869.967 106.307ZM804.109 89.3754C803.628 87.4404 802.667 86.9567 801.224 87.4404C799.782 87.9242 798.34 88.8917 796.898 90.3429C794.014 93.7292 792.572 98.083 792.091 102.437C791.61 107.758 795.456 113.079 800.744 114.047C802.186 114.531 804.109 115.014 805.551 113.079C804.109 111.144 804.109 111.144 802.667 110.661C796.417 109.209 794.494 106.307 796.417 99.5343C797.379 95.1805 799.302 91.3105 804.109 89.3754Z" fill="#F8FAA5"/>
<path d="M734.405 63.2527C737.77 59.3827 737.77 55.0289 735.366 50.6751C733.924 48.2563 732.482 46.3213 732.482 43.4188C737.289 46.8051 739.693 51.6426 741.135 56.9639C743.539 56.4801 742.577 54.5451 743.539 53.0939C744.981 52.1264 746.423 52.6101 747.865 52.6101C749.307 53.0939 747.865 55.5126 750.269 55.9964C752.672 50.1913 755.556 44.87 760.844 41C760.844 43.9025 758.441 45.8375 756.999 48.7401C756.037 51.1588 754.595 54.0614 753.153 56.4801C754.114 58.8989 754.595 61.3177 757.479 62.2852C758.441 59.8664 756.518 58.8989 756.037 56.9639C756.999 53.0939 759.883 49.7076 761.806 46.3213C763.248 46.3213 763.248 47.2888 763.729 48.2563C764.209 50.6751 764.69 53.5776 765.171 55.9964C766.132 58.4152 765.171 60.8339 764.209 63.2527C762.767 66.639 759.883 69.0578 759.402 72.444C759.883 72.9278 760.364 73.8953 760.844 73.8953C762.287 73.8953 762.287 72.444 762.767 72.444C769.017 76.7978 773.343 83.0866 779.112 86.9567C781.515 87.4404 782.957 86.4729 783.919 85.5054C792.572 79.2166 802.186 74.8628 811.8 70.9928C818.05 68.574 824.299 66.639 830.548 63.7365C831.99 63.2527 833.913 62.2852 835.355 61.8014C838.72 60.8339 841.605 61.3177 844.008 64.2202C832.952 64.2202 823.337 69.0578 814.204 73.4116C804.109 78.2491 794.014 83.5704 785.361 90.8267C784.399 91.3105 783.438 91.7942 781.996 92.7617C775.266 87.9242 768.055 83.5704 762.767 76.7978C761.806 77.2816 761.325 77.2816 761.325 78.7328C761.325 79.2166 761.806 79.7004 761.806 80.1841C768.055 85.9892 769.497 93.2455 768.055 101.953C767.094 106.307 766.613 111.144 765.652 115.498C764.209 120.819 764.209 120.819 758.922 119.852C757.96 120.819 758.441 121.787 759.402 122.271C760.364 123.238 761.806 124.69 762.767 125.173C767.574 128.076 769.497 131.946 768.536 137.267C768.055 141.621 769.017 145.975 769.497 150.329C769.978 154.682 772.382 158.069 775.266 161.939C771.42 161.939 769.978 160.487 769.017 158.069C767.574 154.199 766.613 149.845 765.652 145.975C765.652 145.491 765.652 145.007 765.652 145.007C764.209 136.783 760.844 132.913 750.269 133.881C748.346 138.235 747.384 142.588 747.384 146.942C747.384 156.617 745.942 165.809 744.019 175C744.019 169.679 744.019 163.874 743.539 158.552C743.539 156.134 743.539 154.199 743.058 151.78C742.577 149.845 743.058 147.91 743.539 145.975C744.5 141.621 744.019 139.202 742.096 134.848C738.731 134.365 734.886 134.365 731.04 134.848C727.675 135.332 725.271 136.783 724.31 140.17C722.868 144.523 721.426 148.394 720.945 152.747C720.464 157.101 717.58 160.487 713.734 161.939C719.503 155.166 720.464 147.426 719.983 139.202C719.983 136.783 718.061 133.881 719.503 130.495C722.387 126.625 729.598 126.141 731.04 119.368C729.117 118.884 727.194 120.82 725.752 118.884C724.31 117.433 724.31 115.498 723.829 113.563C723.348 110.177 722.387 106.307 721.906 102.921C720.945 96.6318 721.906 90.8267 724.31 85.5054C725.271 83.0866 726.714 80.1841 728.156 77.7653C728.156 76.7978 727.675 76.3141 726.714 75.8303C720.945 81.6354 715.176 86.9567 708.927 92.7617C701.236 89.3755 694.986 85.0217 688.256 81.1516C680.565 76.3141 672.873 71.9603 664.701 67.6065C658.452 64.704 652.202 63.2527 645.472 63.7365C644.511 63.7365 643.55 63.7365 642.107 63.7365C650.28 59.8664 652.683 59.8664 660.375 61.3177C670.47 63.2527 678.642 68.574 686.814 72.9278C692.102 75.8303 697.39 78.7329 702.197 82.1191C704.12 83.5704 707.004 84.0541 708.927 85.0217C712.773 84.0541 716.138 81.6354 718.541 78.7328C721.426 74.8628 724.791 72.444 729.598 71.9603C730.079 69.0577 728.636 67.6065 727.675 65.6715C724.31 61.3177 724.31 56.4801 726.233 51.6426C727.194 49.7076 727.194 47.7726 728.636 45.8375C731.04 48.7401 732.001 51.6426 733.444 55.0289C734.405 57.4476 732.963 59.8664 731.521 61.8014C732.963 62.2852 733.924 62.7689 734.405 63.2527C734.405 64.704 734.405 66.1552 736.328 66.1552C736.809 63.7365 736.809 63.7365 734.405 63.2527ZM757.479 102.921C757.479 101.469 758.441 100.018 756.999 98.083C756.037 100.018 755.076 101.469 757.479 102.921C757.96 104.372 759.402 104.372 760.364 103.888C761.325 103.404 761.325 101.953 760.844 100.986C758.921 100.986 758.441 102.437 757.479 102.921ZM731.04 88.4079C731.04 89.8592 730.079 92.278 732.963 93.2455C732.963 91.3105 735.366 89.3754 732.963 87.4404C732.001 87.9242 731.521 88.4079 731.04 88.4079C730.559 87.4404 731.521 85.9892 730.079 85.0217C728.156 85.5054 728.156 87.4404 727.675 88.8917C727.194 89.8592 727.675 90.8267 729.117 90.8267C730.079 90.8267 729.598 88.8917 731.04 88.4079ZM750.269 70.0253C752.672 68.0903 751.711 66.1552 750.749 64.2202C749.307 61.8014 747.384 59.8664 745.461 58.8989C741.616 60.3502 739.212 63.2527 738.251 66.639C737.77 67.6065 737.77 68.574 739.693 69.0578C741.135 68.574 740.174 66.1552 741.616 65.6715C741.135 67.1227 741.616 68.574 742.096 70.0253C740.174 71.4765 736.809 71.9603 735.847 74.379C741.616 81.1516 752.191 81.1516 754.114 73.8953C753.634 71.4765 751.23 71.9603 750.269 70.0253ZM734.405 120.336C735.847 124.206 739.212 124.206 742.096 125.173C744.5 125.657 746.904 128.076 750.269 125.173C745.461 122.271 739.693 122.754 734.405 120.336ZM729.598 51.6426C729.598 55.5126 726.714 59.3827 730.079 63.2527C730.559 60.3502 731.521 58.4152 733.444 56.4801C732.001 54.5451 731.04 53.0939 729.598 51.6426ZM762.287 97.5993C765.171 92.278 764.69 88.8917 760.844 85.9892C761.325 90.343 761.806 94.213 762.287 97.5993ZM754.595 84.0541C756.518 82.1191 758.441 80.1841 758.441 77.2816C757.96 77.2816 757.479 76.7978 757.479 77.2816C756.037 78.7329 754.114 80.1841 752.191 80.6679C751.23 80.6679 750.269 82.1191 750.749 83.5704C751.711 84.0541 753.153 84.0541 754.595 84.0541ZM762.767 52.1263C759.883 51.6426 758.922 53.0939 758.922 54.5451C758.441 57.4476 759.883 59.8664 761.325 62.769C763.729 58.4152 758.921 55.0289 762.767 52.1263ZM739.212 84.5379C738.251 79.7004 734.405 79.2166 732.001 77.7653C732.963 81.6354 734.886 84.0541 739.212 84.5379ZM737.289 100.018C739.212 95.1805 739.212 93.7292 736.328 90.8267C734.405 94.213 736.809 96.148 737.289 100.018ZM737.289 115.982C738.251 112.596 736.328 110.661 736.328 108.726C736.328 107.758 735.366 107.274 733.924 107.758C733.924 110.661 733.924 113.563 737.289 115.982ZM729.117 107.274C727.194 109.693 728.636 111.628 729.598 113.563C730.079 114.531 731.04 114.531 732.001 113.079C730.559 111.628 731.521 108.726 729.117 107.274ZM730.559 130.011C732.001 131.946 732.482 132.43 734.405 132.43C734.405 131.462 735.847 130.495 735.847 128.56C735.366 127.592 734.886 126.625 734.405 125.657C732.482 127.592 732.963 129.527 730.559 130.011ZM749.788 97.1155C752.191 94.6967 752.191 92.7617 749.788 90.343C749.307 92.278 749.307 94.6967 749.788 97.1155ZM728.636 96.6318C726.713 98.083 727.194 100.018 728.636 101.953C729.117 102.921 730.079 102.921 731.04 101.953C730.559 100.502 730.079 99.0505 729.598 97.1155C729.117 97.1155 729.117 97.1155 728.636 96.6318ZM748.826 80.6679C745.942 80.1841 743.539 80.1841 740.654 79.7004C743.058 82.6029 745.942 82.1191 748.826 80.6679ZM755.076 94.213C756.999 91.7942 756.999 90.8267 755.076 88.8917C754.114 91.7942 754.114 91.7942 755.076 94.213ZM763.729 107.274C761.806 108.242 760.364 109.693 761.325 112.596C763.248 110.661 763.248 110.661 763.729 107.274ZM757.479 115.014C759.883 113.079 760.364 111.144 758.922 108.242C756.518 110.661 757.479 112.596 757.479 115.014ZM741.135 100.018C740.174 102.921 739.212 104.372 741.616 106.307C742.577 104.372 742.577 102.921 741.135 100.018ZM737.289 101.469C736.809 104.372 736.809 104.372 738.251 105.823C738.731 103.404 738.731 103.404 737.289 101.469ZM746.423 96.6318C746.904 94.213 746.904 94.213 745.942 91.7942C744.981 94.213 744.981 94.213 746.423 96.6318ZM745.461 100.502C743.539 103.404 743.539 103.404 745.461 104.856C745.942 103.404 745.942 101.953 745.461 100.502ZM743.539 116.949C743.058 114.047 742.096 112.596 740.174 112.112C740.174 114.531 741.135 115.498 743.539 116.949ZM757.96 87.9242C757.479 89.8592 756.999 91.7942 757.96 94.213C759.883 91.7942 758.921 89.8592 757.96 87.9242ZM753.153 114.047C755.076 111.144 755.076 111.144 753.153 109.693C752.672 111.144 752.191 112.596 753.153 114.047ZM741.135 92.278C740.174 94.213 740.174 95.1805 742.096 95.6643C742.577 94.213 743.058 93.2455 741.135 92.278ZM741.616 84.0541C742.096 85.9892 742.096 87.4404 744.5 87.4404C744.5 85.5054 744.019 84.5379 741.616 84.0541ZM753.634 100.502C753.153 101.953 752.191 102.921 754.595 103.888C755.076 101.953 755.556 100.986 753.634 100.502ZM753.153 62.2852C752.191 63.2527 751.711 64.704 753.634 65.1877C754.114 65.1877 754.595 65.1877 754.595 64.704C755.556 63.2527 754.595 62.7689 753.153 62.2852ZM732.482 99.5343C732.001 101.469 732.001 101.469 733.924 102.437C734.405 100.502 733.444 100.018 732.482 99.5343ZM749.307 104.856C749.788 103.404 749.788 101.953 748.826 100.502C747.865 102.437 747.865 103.404 749.307 104.856ZM747.384 109.693C744.981 111.144 746.904 112.596 747.384 114.047C748.826 112.596 748.346 111.144 747.384 109.693ZM752.191 130.011C753.634 127.592 753.634 127.592 752.191 126.625C751.23 127.592 751.23 128.56 752.191 130.011ZM761.806 125.657C759.883 126.625 759.883 126.625 760.844 128.56C761.325 128.076 762.287 127.592 761.806 125.657ZM740.174 131.462C740.174 129.527 739.693 129.043 738.251 128.56C737.289 130.011 737.77 130.978 740.174 131.462ZM743.539 131.462C744.019 131.462 744.5 130.978 744.5 130.495C744.5 130.011 744.019 129.527 743.539 129.527C743.058 129.527 742.577 130.011 742.577 130.495C742.577 130.978 743.058 131.462 743.539 131.462ZM756.999 126.141C755.556 126.625 754.595 127.592 755.556 129.043C756.999 128.56 757.96 128.076 756.999 126.141ZM746.423 84.5379C746.423 85.0217 745.942 85.5054 745.942 85.5054C745.942 86.4729 747.384 86.9567 747.384 85.9892C747.865 85.0217 747.384 84.5379 746.423 84.5379Z" fill="#F8FAA5"/>
<path d="M741.135 158.552C736.328 153.231 732.001 149.361 726.713 146.458C725.271 144.04 727.194 141.621 727.675 139.686C728.636 137.751 730.079 136.3 732.482 136.3C735.366 136.3 737.77 136.3 741.135 136.3C741.616 139.686 741.135 143.556 741.135 146.942C741.135 150.812 741.135 154.199 741.135 158.552ZM737.77 146.458C738.731 146.458 739.212 145.491 739.693 144.523C738.731 144.04 738.251 143.556 737.289 144.523C737.289 145.491 737.77 145.975 737.77 146.458C736.809 146.942 735.847 146.942 735.847 148.877C738.251 149.361 737.77 147.91 737.77 146.458Z" fill="#F8FAA5"/>
<path d="M753.634 135.332C762.767 137.267 762.767 138.235 764.209 145.491C759.883 148.877 756.037 151.78 751.711 155.166C750.749 150.329 751.711 139.686 753.634 135.332ZM757.96 144.04C758.922 145.007 759.883 145.007 760.844 143.556C760.844 143.556 760.844 142.105 760.364 142.105C758.922 142.105 757.96 142.588 757.96 144.04ZM756.518 148.877C756.999 148.877 757.479 148.394 757.479 147.91C757.479 147.426 756.999 146.942 756.518 146.942C756.037 146.942 755.557 147.426 755.557 147.91C755.076 148.394 755.557 148.877 756.518 148.877ZM755.557 140.17C756.037 140.653 756.518 141.137 757.479 140.653C757.96 140.17 757.96 139.202 757.479 139.202C756.037 139.202 755.557 139.686 755.557 140.17Z" fill="#F8FAA5"/>
<path d="M791.61 75.8303C787.284 78.7329 783.438 80.6679 780.073 84.0541C776.708 81.1516 774.305 77.7653 769.017 75.3466C773.343 75.8303 776.708 75.8303 780.073 76.3141C783.919 75.8303 787.284 75.8303 791.61 75.8303Z" fill="#F8FAA5"/>
<path d="M698.832 76.3141C704.12 77.2816 709.888 77.2816 715.657 77.2816C713.734 80.1841 711.811 81.6354 709.408 82.6029C706.043 80.6679 702.197 79.2166 698.832 76.3141Z" fill="#F8FAA5"/>
<path d="M909.866 113.079C908.424 112.596 907.463 111.628 907.463 109.693C908.905 110.177 909.866 111.628 909.866 113.079Z" fill="#F8FAA5"/>
<path d="M912.27 116.466C910.828 115.982 911.309 115.014 911.309 114.047C911.789 114.531 911.789 115.498 912.27 116.466Z" fill="#F8FAA5"/>
<path d="M907.463 109.693C906.501 109.693 906.501 109.209 906.501 108.726C906.982 108.242 907.463 108.726 907.463 109.693Z" fill="#F8FAA5"/>
<path d="M911.789 116.466C912.27 116.466 912.27 116.949 912.751 116.949C911.789 117.433 912.27 116.466 911.789 116.466Z" fill="#F8FAA5"/>
<path d="M910.828 114.047C909.866 114.047 909.866 113.563 909.866 113.079C910.347 113.079 910.828 113.563 910.828 114.047Z" fill="#F8FAA5"/>
<path d="M732.001 43.4188C731.521 43.4188 731.521 42.935 731.04 42.935C732.001 41.9675 732.001 43.4188 732.001 43.4188Z" fill="#F8FAA5"/>
<path d="M818.53 87.9242C819.492 91.7942 820.453 95.6643 820.934 99.0505C819.492 101.469 817.088 100.986 815.165 101.953C814.685 97.1155 816.607 92.7617 818.53 87.9242Z" fill="#F8FAA5"/>
<path d="M869.486 89.3754C874.293 90.8267 875.736 94.213 877.178 97.5993C878.139 99.5343 876.697 101.469 874.774 101.953C873.332 102.437 871.409 102.921 869.486 101.953C869.486 98.083 869.486 94.213 869.486 89.3754Z" fill="#F8FAA5"/>
<path d="M742.577 64.2202C744.981 60.8339 745.942 60.8339 747.384 64.2202C745.462 64.2202 744.019 64.2202 742.577 64.2202Z" fill="#F8FAA5"/>
<path d="M746.904 75.8303C746.904 74.3791 747.865 73.8953 748.346 72.444C749.307 72.9278 749.788 73.4115 750.749 73.4115C750.269 75.8303 748.826 76.3141 746.904 75.8303Z" fill="#F8FAA5"/>
<path d="M748.346 65.1877C750.269 66.1553 749.307 69.0578 750.749 70.0253C749.788 70.0253 748.826 70.0253 747.865 69.5415C747.384 68.574 748.346 68.0903 748.346 67.1228C748.346 66.639 748.346 66.1553 748.346 65.1877Z" fill="#F8FAA5"/>
<path d="M744.981 66.639C745.942 67.6065 745.942 68.574 744.981 69.5415C744.5 69.5415 744.5 69.5415 744.019 69.5415L743.539 69.0578C743.058 68.0902 743.058 67.1227 744.019 66.639C744.5 66.639 744.981 66.639 744.981 66.639Z" fill="#F8FAA5"/>
<path d="M746.904 75.8303C745.942 77.7654 744.981 76.7978 743.538 76.3141C744.981 73.4116 745.942 75.8303 746.904 75.8303Z" fill="#F8FAA5"/>
<path d="M741.135 74.8628C740.174 74.8628 739.693 74.8628 739.212 74.3791C740.174 73.4116 741.135 73.4116 741.135 74.8628Z" fill="#F8FAA5"/>
<path d="M741.135 74.8628C741.616 74.8628 741.616 75.3465 742.096 75.3465C741.135 75.8303 741.135 75.3465 741.135 74.8628Z" fill="#F8FAA5"/>
<path d="M746.904 64.2202C747.865 64.2202 747.865 64.704 748.346 65.6715C747.384 65.1877 747.384 64.704 746.904 64.2202Z" fill="#F8FAA5"/>
<path d="M172.436 193C171.954 193 171.472 192.5 171.472 192C171.472 191.5 171.954 191 172.436 191C172.918 191 173.4 191.5 173.4 192C173.4 192.5 172.918 193 172.436 193Z" fill="#F8FAA5"/>
<path d="M181.592 192C181.592 191.5 182.074 191 182.556 191C183.038 191 183.52 191.5 183.52 192C183.52 192.5 183.038 193 182.556 193C182.074 193 181.592 192.5 181.592 192Z" fill="#F8FAA5"/>
<path d="M213.397 195C212.433 194 212.433 193 213.397 192C215.324 193.5 215.324 194 213.397 195Z" fill="#F8FAA5"/>
<path d="M300.137 193C300.137 192.5 300.619 192 301.101 192C301.101 192 301.583 192.5 301.583 193C301.583 193.5 301.583 194 301.101 194C300.619 194 300.137 194 300.137 193Z" fill="#F8FAA5"/>
<path d="M337.724 194C337.243 194 336.761 193.5 336.761 193C336.761 192.5 337.724 192 338.206 192.5C338.206 192.5 338.688 193 338.688 193.5C338.688 194 338.206 194 337.724 194Z" fill="#F8FAA5"/>
<path d="M162.317 191.5C163.28 191.5 163.762 192 163.762 193C163.762 193 163.28 193.5 162.798 193.5C161.835 192.5 161.835 192 162.317 191.5Z" fill="#F8FAA5"/>
<path d="M199.422 194C198.458 192 199.422 191.5 200.386 192C200.868 193 199.904 193.5 199.422 194Z" fill="#F8FAA5"/>
<path d="M205.205 194C205.205 193 205.687 192.5 206.169 192.5C206.65 192.5 207.132 193.5 206.65 193.5C206.65 194.5 205.687 194.5 205.205 194Z" fill="#F8FAA5"/>
<path d="M241.828 193.5C240.383 194 239.901 194 239.901 193.5V192.5C240.865 192 240.865 193 241.828 193.5Z" fill="#F8FAA5"/>
<path d="M272.669 194C271.706 193.5 271.224 193.5 271.224 192.5C272.669 192 273.151 192.5 272.669 194Z" fill="#F8FAA5"/>
<path d="M346.398 192.5C347.362 192.5 347.844 193 347.844 194C346.398 194.5 345.917 194 346.398 192.5Z" fill="#F8FAA5"/>
<path d="M357 192C357 193 356.518 193.5 355.554 193.5C355.072 192.5 355.554 192 357 192Z" fill="#F8FAA5"/>
<path d="M230.745 193.5C232.191 193 232.672 193.5 232.191 195C231.227 195 230.745 194.5 230.745 193.5Z" fill="#F8FAA5"/>
<path d="M309.775 196C308.811 195 308.329 194.5 307.847 194C309.293 193 310.257 193 309.775 196Z" fill="#F8FAA5"/>
<path d="M192.676 191C193.158 191.5 193.158 192 192.676 192.5H192.194C192.194 192 192.194 191.5 192.676 191Z" fill="#F8FAA5"/>
<path d="M223.998 192.5C224.48 193 224.48 193.5 223.998 194H223.516C223.035 193.5 223.516 193 223.998 192.5Z" fill="#F8FAA5"/>
<path d="M281.825 192.5C281.343 193 280.862 193 280.38 192.5C279.898 191.5 280.862 191.5 281.343 191.5C281.343 192 281.825 192.5 281.825 192.5Z" fill="#F8FAA5"/>
<path d="M291.463 193.5L290.981 194C290.981 193.5 290.499 193.5 290.499 193L290.981 192.5C290.981 192.5 291.463 193 291.463 193.5Z" fill="#F8FAA5"/>
<path d="M248.575 194C248.093 194.5 247.611 194.5 246.647 194C247.129 193 247.611 193 248.575 194Z" fill="#F8FAA5"/>
<path d="M253.876 193.5C254.357 193 254.839 193 255.321 193.5C255.803 194 255.321 194.5 254.357 194C253.876 194 253.876 194 253.876 193.5Z" fill="#F8FAA5"/>
<path d="M263.513 193.5L263.032 194C262.55 194 262.55 193.5 262.068 193.5L262.55 193C262.55 193 263.032 193.5 263.513 193.5Z" fill="#F8FAA5"/>
<path d="M318.931 194.5C318.931 195 318.449 195 318.449 194.5C318.449 194 318.449 194 318.449 193.5H318.931C319.413 193.5 319.413 194 318.931 194.5Z" fill="#F8FAA5"/>
<path d="M328.087 193C328.568 193 328.568 193 329.05 193.5L328.568 194C328.087 194 327.605 194 327.605 193.5C327.605 193.5 328.087 193.5 328.087 193Z" fill="#F8FAA5"/>
<path d="M365.436 193C364.954 193 364.472 192.5 364.472 192C364.472 191.5 364.954 191 365.436 191C365.918 191 366.4 191.5 366.4 192C366.4 192.5 365.918 193 365.436 193Z" fill="#F8FAA5"/>
<path d="M374.592 192C374.592 191.5 375.074 191 375.556 191C376.038 191 376.52 191.5 376.52 192C376.52 192.5 376.038 193 375.556 193C375.074 193 374.592 192.5 374.592 192Z" fill="#F8FAA5"/>
<path d="M406.397 195C405.433 194 405.433 193 406.397 192C408.324 193.5 408.324 194 406.397 195Z" fill="#F8FAA5"/>
<path d="M493.137 193C493.137 192.5 493.619 192 494.101 192C494.101 192 494.583 192.5 494.583 193C494.583 193.5 494.583 194 494.101 194C493.619 194 493.137 194 493.137 193Z" fill="#F8FAA5"/>
<path d="M530.724 194C530.243 194 529.761 193.5 529.761 193C529.761 192.5 530.724 192 531.206 192.5C531.206 192.5 531.688 193 531.688 193.5C531.688 194 531.206 194 530.724 194Z" fill="#F8FAA5"/>
<path d="M355.317 191.5C356.28 191.5 356.762 192 356.762 193C356.762 193 356.28 193.5 355.798 193.5C354.835 192.5 354.835 192 355.317 191.5Z" fill="#F8FAA5"/>
<path d="M392.422 194C391.458 192 392.422 191.5 393.386 192C393.868 193 392.904 193.5 392.422 194Z" fill="#F8FAA5"/>
<path d="M398.205 194C398.205 193 398.687 192.5 399.169 192.5C399.65 192.5 400.132 193.5 399.65 193.5C399.65 194.5 398.687 194.5 398.205 194Z" fill="#F8FAA5"/>
<path d="M434.828 193.5C433.383 194 432.901 194 432.901 193.5V192.5C433.865 192 433.865 193 434.828 193.5Z" fill="#F8FAA5"/>
<path d="M465.669 194C464.706 193.5 464.224 193.5 464.224 192.5C465.669 192 466.151 192.5 465.669 194Z" fill="#F8FAA5"/>
<path d="M539.398 192.5C540.362 192.5 540.844 193 540.844 194C539.398 194.5 538.917 194 539.398 192.5Z" fill="#F8FAA5"/>
<path d="M550 192C550 193 549.518 193.5 548.554 193.5C548.072 192.5 548.554 192 550 192Z" fill="#F8FAA5"/>
<path d="M423.745 193.5C425.191 193 425.672 193.5 425.191 195C424.227 195 423.745 194.5 423.745 193.5Z" fill="#F8FAA5"/>
<path d="M502.775 196C501.811 195 501.329 194.5 500.847 194C502.293 193 503.257 193 502.775 196Z" fill="#F8FAA5"/>
<path d="M385.676 191C386.158 191.5 386.158 192 385.676 192.5H385.194C385.194 192 385.194 191.5 385.676 191Z" fill="#F8FAA5"/>
<path d="M416.998 192.5C417.48 193 417.48 193.5 416.998 194H416.516C416.035 193.5 416.516 193 416.998 192.5Z" fill="#F8FAA5"/>
<path d="M474.825 192.5C474.343 193 473.861 193 473.38 192.5C472.898 191.5 473.861 191.5 474.343 191.5C474.343 192 474.825 192.5 474.825 192.5Z" fill="#F8FAA5"/>
<path d="M484.463 193.5L483.981 194C483.981 193.5 483.499 193.5 483.499 193L483.981 192.5C483.981 192.5 484.463 193 484.463 193.5Z" fill="#F8FAA5"/>
<path d="M441.575 194C441.093 194.5 440.611 194.5 439.647 194C440.129 193 440.611 193 441.575 194Z" fill="#F8FAA5"/>
<path d="M446.876 193.5C447.357 193 447.839 193 448.321 193.5C448.803 194 448.321 194.5 447.357 194C446.876 194 446.876 194 446.876 193.5Z" fill="#F8FAA5"/>
<path d="M456.513 193.5L456.031 194C455.55 194 455.55 193.5 455.068 193.5L455.55 193C455.55 193 456.031 193.5 456.513 193.5Z" fill="#F8FAA5"/>
<path d="M511.931 194.5C511.931 195 511.449 195 511.449 194.5C511.449 194 511.449 194 511.449 193.5H511.931C512.413 193.5 512.413 194 511.931 194.5Z" fill="#F8FAA5"/>
<path d="M521.087 193C521.568 193 521.568 193 522.05 193.5L521.568 194C521.087 194 520.605 194 520.605 193.5C520.605 193.5 521.087 193.5 521.087 193Z" fill="#F8FAA5"/>
<path d="M560.436 193C559.954 193 559.472 192.5 559.472 192C559.472 191.5 559.954 191 560.436 191C560.918 191 561.4 191.5 561.4 192C561.4 192.5 560.918 193 560.436 193Z" fill="#F8FAA5"/>
<path d="M569.592 192C569.592 191.5 570.074 191 570.556 191C571.038 191 571.52 191.5 571.52 192C571.52 192.5 571.038 193 570.556 193C570.074 193 569.592 192.5 569.592 192Z" fill="#F8FAA5"/>
<path d="M601.397 195C600.433 194 600.433 193 601.397 192C603.324 193.5 603.324 194 601.397 195Z" fill="#F8FAA5"/>
<path d="M688.137 193C688.137 192.5 688.619 192 689.101 192C689.101 192 689.583 192.5 689.583 193C689.583 193.5 689.583 194 689.101 194C688.619 194 688.137 194 688.137 193Z" fill="#F8FAA5"/>
<path d="M725.724 194C725.243 194 724.761 193.5 724.761 193C724.761 192.5 725.724 192 726.206 192.5C726.206 192.5 726.688 193 726.688 193.5C726.688 194 726.206 194 725.724 194Z" fill="#F8FAA5"/>
<path d="M550.317 191.5C551.28 191.5 551.762 192 551.762 193C551.762 193 551.28 193.5 550.798 193.5C549.835 192.5 549.835 192 550.317 191.5Z" fill="#F8FAA5"/>
<path d="M587.422 194C586.458 192 587.422 191.5 588.386 192C588.868 193 587.904 193.5 587.422 194Z" fill="#F8FAA5"/>
<path d="M593.205 194C593.205 193 593.687 192.5 594.169 192.5C594.65 192.5 595.132 193.5 594.65 193.5C594.65 194.5 593.687 194.5 593.205 194Z" fill="#F8FAA5"/>
<path d="M629.828 193.5C628.383 194 627.901 194 627.901 193.5V192.5C628.865 192 628.865 193 629.828 193.5Z" fill="#F8FAA5"/>
<path d="M660.669 194C659.706 193.5 659.224 193.5 659.224 192.5C660.669 192 661.151 192.5 660.669 194Z" fill="#F8FAA5"/>
<path d="M734.398 192.5C735.362 192.5 735.844 193 735.844 194C734.398 194.5 733.917 194 734.398 192.5Z" fill="#F8FAA5"/>
<path d="M745 192C745 193 744.518 193.5 743.554 193.5C743.072 192.5 743.554 192 745 192Z" fill="#F8FAA5"/>
<path d="M618.745 193.5C620.191 193 620.672 193.5 620.191 195C619.227 195 618.745 194.5 618.745 193.5Z" fill="#F8FAA5"/>
<path d="M697.775 196C696.811 195 696.329 194.5 695.847 194C697.293 193 698.257 193 697.775 196Z" fill="#F8FAA5"/>
<path d="M580.676 191C581.157 191.5 581.157 192 580.676 192.5H580.194C580.194 192 580.194 191.5 580.676 191Z" fill="#F8FAA5"/>
<path d="M611.998 192.5C612.48 193 612.48 193.5 611.998 194H611.516C611.035 193.5 611.516 193 611.998 192.5Z" fill="#F8FAA5"/>
<path d="M669.825 192.5C669.343 193 668.861 193 668.38 192.5C667.898 191.5 668.861 191.5 669.343 191.5C669.343 192 669.825 192.5 669.825 192.5Z" fill="#F8FAA5"/>
<path d="M679.463 193.5L678.981 194C678.981 193.5 678.499 193.5 678.499 193L678.981 192.5C678.981 192.5 679.463 193 679.463 193.5Z" fill="#F8FAA5"/>
<path d="M636.575 194C636.093 194.5 635.611 194.5 634.647 194C635.129 193 635.611 193 636.575 194Z" fill="#F8FAA5"/>
<path d="M641.876 193.5C642.357 193 642.839 193 643.321 193.5C643.803 194 643.321 194.5 642.357 194C641.876 194 641.876 194 641.876 193.5Z" fill="#F8FAA5"/>
<path d="M651.513 193.5L651.031 194C650.55 194 650.55 193.5 650.068 193.5L650.55 193C650.55 193 651.031 193.5 651.513 193.5Z" fill="#F8FAA5"/>
<path d="M706.931 194.5C706.931 195 706.449 195 706.449 194.5C706.449 194 706.449 194 706.449 193.5H706.931C707.413 193.5 707.413 194 706.931 194.5Z" fill="#F8FAA5"/>
<path d="M716.087 193C716.568 193 716.568 193 717.05 193.5L716.568 194C716.087 194 715.605 194 715.605 193.5C715.605 193.5 716.087 193.5 716.087 193Z" fill="#F8FAA5"/>
<path d="M754.436 193C753.954 193 753.472 192.5 753.472 192C753.472 191.5 753.954 191 754.436 191C754.918 191 755.4 191.5 755.4 192C755.4 192.5 754.918 193 754.436 193Z" fill="#F8FAA5"/>
<path d="M763.592 192C763.592 191.5 764.074 191 764.556 191C765.038 191 765.52 191.5 765.52 192C765.52 192.5 765.038 193 764.556 193C764.074 193 763.592 192.5 763.592 192Z" fill="#F8FAA5"/>
<path d="M795.397 195C794.433 194 794.433 193 795.397 192C797.324 193.5 797.324 194 795.397 195Z" fill="#F8FAA5"/>
<path d="M882.137 193C882.137 192.5 882.619 192 883.101 192C883.101 192 883.583 192.5 883.583 193C883.583 193.5 883.583 194 883.101 194C882.619 194 882.137 194 882.137 193Z" fill="#F8FAA5"/>
<path d="M919.724 194C919.243 194 918.761 193.5 918.761 193C918.761 192.5 919.724 192 920.206 192.5C920.206 192.5 920.688 193 920.688 193.5C920.688 194 920.206 194 919.724 194Z" fill="#F8FAA5"/>
<path d="M744.317 191.5C745.28 191.5 745.762 192 745.762 193C745.762 193 745.28 193.5 744.798 193.5C743.835 192.5 743.835 192 744.317 191.5Z" fill="#F8FAA5"/>
<path d="M781.422 194C780.458 192 781.422 191.5 782.386 192C782.868 193 781.904 193.5 781.422 194Z" fill="#F8FAA5"/>
<path d="M787.205 194C787.205 193 787.687 192.5 788.169 192.5C788.65 192.5 789.132 193.5 788.65 193.5C788.65 194.5 787.687 194.5 787.205 194Z" fill="#F8FAA5"/>
<path d="M823.828 193.5C822.383 194 821.901 194 821.901 193.5V192.5C822.865 192 822.865 193 823.828 193.5Z" fill="#F8FAA5"/>
<path d="M854.669 194C853.706 193.5 853.224 193.5 853.224 192.5C854.669 192 855.151 192.5 854.669 194Z" fill="#F8FAA5"/>
<path d="M928.398 192.5C929.362 192.5 929.844 193 929.844 194C928.398 194.5 927.917 194 928.398 192.5Z" fill="#F8FAA5"/>
<path d="M939 192C939 193 938.518 193.5 937.554 193.5C937.072 192.5 937.554 192 939 192Z" fill="#F8FAA5"/>
<path d="M812.745 193.5C814.191 193 814.672 193.5 814.191 195C813.227 195 812.745 194.5 812.745 193.5Z" fill="#F8FAA5"/>
<path d="M891.775 196C890.811 195 890.329 194.5 889.847 194C891.293 193 892.257 193 891.775 196Z" fill="#F8FAA5"/>
<path d="M774.676 191C775.157 191.5 775.157 192 774.676 192.5H774.194C774.194 192 774.194 191.5 774.676 191Z" fill="#F8FAA5"/>
<path d="M805.998 192.5C806.48 193 806.48 193.5 805.998 194H805.516C805.035 193.5 805.516 193 805.998 192.5Z" fill="#F8FAA5"/>
<path d="M863.825 192.5C863.343 193 862.861 193 862.38 192.5C861.898 191.5 862.861 191.5 863.343 191.5C863.343 192 863.825 192.5 863.825 192.5Z" fill="#F8FAA5"/>
<path d="M873.463 193.5L872.981 194C872.981 193.5 872.499 193.5 872.499 193L872.981 192.5C872.981 192.5 873.463 193 873.463 193.5Z" fill="#F8FAA5"/>
<path d="M830.575 194C830.093 194.5 829.611 194.5 828.647 194C829.129 193 829.611 193 830.575 194Z" fill="#F8FAA5"/>
<path d="M835.876 193.5C836.357 193 836.839 193 837.321 193.5C837.803 194 837.321 194.5 836.357 194C835.876 194 835.876 194 835.876 193.5Z" fill="#F8FAA5"/>
<path d="M845.513 193.5L845.031 194C844.55 194 844.55 193.5 844.068 193.5L844.55 193C844.55 193 845.031 193.5 845.513 193.5Z" fill="#F8FAA5"/>
<path d="M900.931 194.5C900.931 195 900.449 195 900.449 194.5C900.449 194 900.449 194 900.449 193.5H900.931C901.413 193.5 901.413 194 900.931 194.5Z" fill="#F8FAA5"/>
<path d="M910.087 193C910.568 193 910.568 193 911.05 193.5L910.568 194C910.087 194 909.605 194 909.605 193.5C909.605 193.5 910.087 193.5 910.087 193Z" fill="#F8FAA5"/>
<path d="M947.436 193C946.954 193 946.472 192.5 946.472 192C946.472 191.5 946.954 191 947.436 191C947.918 191 948.4 191.5 948.4 192C948.4 192.5 947.918 193 947.436 193Z" fill="#F8FAA5"/>
<path d="M956.592 192C956.592 191.5 957.074 191 957.556 191C958.038 191 958.52 191.5 958.52 192C958.52 192.5 958.038 193 957.556 193C957.074 193 956.592 192.5 956.592 192Z" fill="#F8FAA5"/>
<path d="M988.397 195C987.433 194 987.433 193 988.397 192C990.324 193.5 990.324 194 988.397 195Z" fill="#F8FAA5"/>
<path d="M1075.14 193C1075.14 192.5 1075.62 192 1076.1 192C1076.1 192 1076.58 192.5 1076.58 193C1076.58 193.5 1076.58 194 1076.1 194C1075.62 194 1075.14 194 1075.14 193Z" fill="#F8FAA5"/>
<path d="M1112.72 194C1112.24 194 1111.76 193.5 1111.76 193C1111.76 192.5 1112.72 192 1113.21 192.5C1113.21 192.5 1113.69 193 1113.69 193.5C1113.69 194 1113.21 194 1112.72 194Z" fill="#F8FAA5"/>
<path d="M937.317 191.5C938.28 191.5 938.762 192 938.762 193C938.762 193 938.28 193.5 937.798 193.5C936.835 192.5 936.835 192 937.317 191.5Z" fill="#F8FAA5"/>
<path d="M974.422 194C973.458 192 974.422 191.5 975.386 192C975.868 193 974.904 193.5 974.422 194Z" fill="#F8FAA5"/>
<path d="M980.205 194C980.205 193 980.687 192.5 981.169 192.5C981.65 192.5 982.132 193.5 981.65 193.5C981.65 194.5 980.687 194.5 980.205 194Z" fill="#F8FAA5"/>
<path d="M1016.83 193.5C1015.38 194 1014.9 194 1014.9 193.5V192.5C1015.86 192 1015.86 193 1016.83 193.5Z" fill="#F8FAA5"/>
<path d="M1047.67 194C1046.71 193.5 1046.22 193.5 1046.22 192.5C1047.67 192 1048.15 192.5 1047.67 194Z" fill="#F8FAA5"/>
<path d="M1121.4 192.5C1122.36 192.5 1122.84 193 1122.84 194C1121.4 194.5 1120.92 194 1121.4 192.5Z" fill="#F8FAA5"/>
<path d="M1132 192C1132 193 1131.52 193.5 1130.55 193.5C1130.07 192.5 1130.55 192 1132 192Z" fill="#F8FAA5"/>
<path d="M1005.74 193.5C1007.19 193 1007.67 193.5 1007.19 195C1006.23 195 1005.74 194.5 1005.74 193.5Z" fill="#F8FAA5"/>
<path d="M1084.77 196C1083.81 195 1083.33 194.5 1082.85 194C1084.29 193 1085.26 193 1084.77 196Z" fill="#F8FAA5"/>
<path d="M967.676 191C968.157 191.5 968.157 192 967.676 192.5H967.194C967.194 192 967.194 191.5 967.676 191Z" fill="#F8FAA5"/>
<path d="M998.998 192.5C999.48 193 999.48 193.5 998.998 194H998.516C998.035 193.5 998.516 193 998.998 192.5Z" fill="#F8FAA5"/>
<path d="M1056.83 192.5C1056.34 193 1055.86 193 1055.38 192.5C1054.9 191.5 1055.86 191.5 1056.34 191.5C1056.34 192 1056.83 192.5 1056.83 192.5Z" fill="#F8FAA5"/>
<path d="M1066.46 193.5L1065.98 194C1065.98 193.5 1065.5 193.5 1065.5 193L1065.98 192.5C1065.98 192.5 1066.46 193 1066.46 193.5Z" fill="#F8FAA5"/>
<path d="M1023.57 194C1023.09 194.5 1022.61 194.5 1021.65 194C1022.13 193 1022.61 193 1023.57 194Z" fill="#F8FAA5"/>
<path d="M1028.88 193.5C1029.36 193 1029.84 193 1030.32 193.5C1030.8 194 1030.32 194.5 1029.36 194C1028.88 194 1028.88 194 1028.88 193.5Z" fill="#F8FAA5"/>
<path d="M1038.51 193.5L1038.03 194C1037.55 194 1037.55 193.5 1037.07 193.5L1037.55 193C1037.55 193 1038.03 193.5 1038.51 193.5Z" fill="#F8FAA5"/>
<path d="M1093.93 194.5C1093.93 195 1093.45 195 1093.45 194.5C1093.45 194 1093.45 194 1093.45 193.5H1093.93C1094.41 193.5 1094.41 194 1093.93 194.5Z" fill="#F8FAA5"/>
<path d="M1103.09 193C1103.57 193 1103.57 193 1104.05 193.5L1103.57 194C1103.09 194 1102.6 194 1102.6 193.5C1102.6 193.5 1103.09 193.5 1103.09 193Z" fill="#F8FAA5"/>
<path d="M1142.44 193C1141.95 193 1141.47 192.5 1141.47 192C1141.47 191.5 1141.95 191 1142.44 191C1142.92 191 1143.4 191.5 1143.4 192C1143.4 192.5 1142.92 193 1142.44 193Z" fill="#F8FAA5"/>
<path d="M1151.59 192C1151.59 191.5 1152.07 191 1152.56 191C1153.04 191 1153.52 191.5 1153.52 192C1153.52 192.5 1153.04 193 1152.56 193C1152.07 193 1151.59 192.5 1151.59 192Z" fill="#F8FAA5"/>
<path d="M1183.4 195C1182.43 194 1182.43 193 1183.4 192C1185.32 193.5 1185.32 194 1183.4 195Z" fill="#F8FAA5"/>
<path d="M1270.14 193C1270.14 192.5 1270.62 192 1271.1 192C1271.1 192 1271.58 192.5 1271.58 193C1271.58 193.5 1271.58 194 1271.1 194C1270.62 194 1270.14 194 1270.14 193Z" fill="#F8FAA5"/>
<path d="M1307.72 194C1307.24 194 1306.76 193.5 1306.76 193C1306.76 192.5 1307.72 192 1308.21 192.5C1308.21 192.5 1308.69 193 1308.69 193.5C1308.69 194 1308.21 194 1307.72 194Z" fill="#F8FAA5"/>
<path d="M1132.32 191.5C1133.28 191.5 1133.76 192 1133.76 193C1133.76 193 1133.28 193.5 1132.8 193.5C1131.83 192.5 1131.83 192 1132.32 191.5Z" fill="#F8FAA5"/>
<path d="M1169.42 194C1168.46 192 1169.42 191.5 1170.39 192C1170.87 193 1169.9 193.5 1169.42 194Z" fill="#F8FAA5"/>
<path d="M1175.2 194C1175.2 193 1175.69 192.5 1176.17 192.5C1176.65 192.5 1177.13 193.5 1176.65 193.5C1176.65 194.5 1175.69 194.5 1175.2 194Z" fill="#F8FAA5"/>
<path d="M1211.83 193.5C1210.38 194 1209.9 194 1209.9 193.5V192.5C1210.86 192 1210.86 193 1211.83 193.5Z" fill="#F8FAA5"/>
<path d="M1242.67 194C1241.71 193.5 1241.22 193.5 1241.22 192.5C1242.67 192 1243.15 192.5 1242.67 194Z" fill="#F8FAA5"/>
<path d="M1316.4 192.5C1317.36 192.5 1317.84 193 1317.84 194C1316.4 194.5 1315.92 194 1316.4 192.5Z" fill="#F8FAA5"/>
<path d="M1327 192C1327 193 1326.52 193.5 1325.55 193.5C1325.07 192.5 1325.55 192 1327 192Z" fill="#F8FAA5"/>
<path d="M1200.74 193.5C1202.19 193 1202.67 193.5 1202.19 195C1201.23 195 1200.74 194.5 1200.74 193.5Z" fill="#F8FAA5"/>
<path d="M1279.77 196C1278.81 195 1278.33 194.5 1277.85 194C1279.29 193 1280.26 193 1279.77 196Z" fill="#F8FAA5"/>
<path d="M1162.68 191C1163.16 191.5 1163.16 192 1162.68 192.5H1162.19C1162.19 192 1162.19 191.5 1162.68 191Z" fill="#F8FAA5"/>
<path d="M1194 192.5C1194.48 193 1194.48 193.5 1194 194H1193.52C1193.03 193.5 1193.52 193 1194 192.5Z" fill="#F8FAA5"/>
<path d="M1251.83 192.5C1251.34 193 1250.86 193 1250.38 192.5C1249.9 191.5 1250.86 191.5 1251.34 191.5C1251.34 192 1251.83 192.5 1251.83 192.5Z" fill="#F8FAA5"/>
<path d="M1261.46 193.5L1260.98 194C1260.98 193.5 1260.5 193.5 1260.5 193L1260.98 192.5C1260.98 192.5 1261.46 193 1261.46 193.5Z" fill="#F8FAA5"/>
<path d="M1218.57 194C1218.09 194.5 1217.61 194.5 1216.65 194C1217.13 193 1217.61 193 1218.57 194Z" fill="#F8FAA5"/>
<path d="M1223.88 193.5C1224.36 193 1224.84 193 1225.32 193.5C1225.8 194 1225.32 194.5 1224.36 194C1223.88 194 1223.88 194 1223.88 193.5Z" fill="#F8FAA5"/>
<path d="M1233.51 193.5L1233.03 194C1232.55 194 1232.55 193.5 1232.07 193.5L1232.55 193C1232.55 193 1233.03 193.5 1233.51 193.5Z" fill="#F8FAA5"/>
<path d="M1288.93 194.5C1288.93 195 1288.45 195 1288.45 194.5C1288.45 194 1288.45 194 1288.45 193.5H1288.93C1289.41 193.5 1289.41 194 1288.93 194.5Z" fill="#F8FAA5"/>
<path d="M1298.09 193C1298.57 193 1298.57 193 1299.05 193.5L1298.57 194C1298.09 194 1297.6 194 1297.6 193.5C1297.6 193.5 1298.09 193.5 1298.09 193Z" fill="#F8FAA5"/>
<path d="M1015.87 124.744C1009.55 120 1002.74 114.782 995.934 109.564C992.045 112.885 990.586 117.628 987.183 120.474C985.238 120.474 985.238 118.577 983.779 117.628C982.807 117.154 980.862 117.628 980.376 116.205C979.89 114.308 978.431 114.308 977.459 112.885C978.917 108.615 983.293 105.769 985.238 101.026C982.321 97.7051 978.431 95.3333 976 92.0128C976.486 90.5897 977.459 90.1154 978.917 91.0641C980.376 92.0128 981.834 92.9615 983.293 93.9103C985.238 94.859 986.697 96.2821 988.641 97.7052C992.531 92.4872 995.448 86.7949 1000.8 83C1002.26 83.9487 1001.28 86.3205 1003.71 86.3205C1005.66 86.3205 1005.17 88.6923 1006.63 89.641C1008.09 90.1154 1010.03 89.641 1011.01 92.0128C1006.14 95.8077 1002.26 100.077 999.338 105.295C999.824 107.192 1000.8 107.667 1001.77 108.615C1008.09 112.885 1014.9 117.628 1021.22 121.897C1023.65 123.321 1025.59 125.218 1027.05 127.115C1036.29 137.077 1046.99 144.667 1059.63 150.833C1060.6 153.205 1059.63 155.103 1057.2 157C1045.53 147.987 1031.91 141.82 1022.68 130.436C1020.24 130.436 1018.3 131.385 1016.36 130.91C1013.44 127.59 1013.44 127.59 1015.87 124.744ZM985.724 98.1795C985.724 98.6539 985.724 99.6026 986.697 98.6539C986.21 98.6539 986.21 98.6539 985.724 98.1795C985.724 97.7051 985.238 97.2308 984.265 97.2308C984.265 97.2308 984.265 96.2821 983.779 96.7564C984.265 96.7564 984.265 96.7564 984.752 97.2308C984.752 98.1795 985.238 98.1795 985.724 98.1795ZM999.824 110.038C999.338 108.615 998.365 107.667 996.421 108.141C997.393 109.09 998.365 110.038 999.824 110.038C1000.31 111.462 1001.28 111.936 1002.26 112.885C1005.66 115.731 1009.55 118.103 1012.95 120.474C1014.9 121.897 1017.33 123.321 1018.3 125.218C1018.3 126.641 1016.36 126.641 1016.84 128.064C1018.79 128.064 1020.73 128.064 1022.68 128.064C1027.54 133.282 1032.89 138.026 1038.72 141.82C1044.55 145.615 1050.39 149.41 1056.22 153.679C1056.71 152.731 1057.2 151.782 1056.22 150.833C1055.74 150.359 1054.28 149.885 1053.31 149.41C1045.53 145.141 1037.75 140.397 1031.91 134.231C1025.11 127.115 1017.33 120.949 1008.58 115.256C1006.14 113.359 1003.71 110.513 999.824 110.038ZM986.697 117.628C987.183 117.628 987.669 117.628 987.669 117.154C993.99 108.615 998.852 99.1282 1006.14 91.0641C1003.71 90.1154 1001.77 92.0128 999.824 90.5898C998.852 89.1667 1000.31 87.2693 998.852 85.8462C992.045 93.4359 987.183 102.449 980.376 110.038C984.752 111.462 984.265 115.731 986.697 117.628ZM983.293 115.256C982.807 114.308 982.321 113.833 981.348 113.833C981.348 114.782 981.348 115.256 983.293 115.256ZM1003.23 88.6923C1003.23 88.6923 1002.74 88.218 1003.23 88.6923C1002.74 88.218 1002.74 88.6923 1002.26 88.6923C1002.26 88.6923 1002.74 89.1667 1003.23 88.6923C1003.23 88.6923 1002.74 89.1667 1003.23 88.6923Z" fill="#F8FAA5"/>
<path d="M991.072 110.038C988.641 107.192 989.614 104.821 989.614 102.449C990.586 104.346 992.045 106.718 991.072 110.038Z" fill="#F8FAA5"/>
<path d="M992.045 97.7051C995.448 100.551 993.503 103.397 993.503 105.769C993.017 103.397 992.531 101.026 992.045 97.7051Z" fill="#F8FAA5"/>
<path d="M995.934 95.3334C995.934 97.2308 995.934 99.1282 996.421 102.449C994.962 99.1282 994.962 99.1282 995.934 95.3334Z" fill="#F8FAA5"/>
<path d="M473.131 124.744C479.452 120 486.259 114.782 493.066 109.564C496.955 112.885 498.414 117.628 501.817 120.474C503.762 120.474 503.762 118.577 505.221 117.628C506.193 117.154 508.138 117.628 508.624 116.205C509.11 114.308 510.569 114.308 511.541 112.885C510.083 108.615 505.707 105.769 503.762 101.026C506.679 97.7051 510.569 95.3333 513 92.0128C512.514 90.5897 511.541 90.1154 510.083 91.0641C508.624 92.0128 507.166 92.9615 505.707 93.9103C503.762 94.859 502.303 96.2821 500.359 97.7052C496.469 92.4872 493.552 86.7949 488.204 83C486.745 83.9487 487.717 86.3205 485.286 86.3205C483.341 86.3205 483.828 88.6923 482.369 89.641C480.91 90.1154 478.966 89.641 477.993 92.0128C482.855 95.8077 486.745 100.077 489.662 105.295C489.176 107.192 488.204 107.667 487.231 108.615C480.91 112.885 474.104 117.628 467.783 121.897C465.352 123.321 463.407 125.218 461.948 127.115C452.71 137.077 442.014 144.667 429.373 150.833C428.4 153.205 429.373 155.103 431.804 157C443.473 147.987 457.086 141.82 466.324 130.436C468.755 130.436 470.7 131.385 472.645 130.91C475.562 127.59 475.562 127.59 473.131 124.744ZM503.276 98.1795C503.276 98.6539 503.276 99.6026 502.303 98.6539C502.79 98.6539 502.79 98.6539 503.276 98.1795C503.276 97.7051 503.762 97.2308 504.735 97.2308C504.735 97.2308 504.735 96.2821 505.221 96.7564C504.735 96.7564 504.735 96.7564 504.248 97.2308C504.248 98.1795 503.762 98.1795 503.276 98.1795ZM489.176 110.038C489.662 108.615 490.635 107.667 492.579 108.141C491.607 109.09 490.635 110.038 489.176 110.038C488.69 111.462 487.717 111.936 486.745 112.885C483.341 115.731 479.452 118.103 476.048 120.474C474.104 121.897 471.673 123.321 470.7 125.218C470.7 126.641 472.645 126.641 472.159 128.064C470.214 128.064 468.269 128.064 466.324 128.064C461.462 133.282 456.114 138.026 450.279 141.82C444.445 145.615 438.611 149.41 432.776 153.679C432.29 152.731 431.804 151.782 432.776 150.833C433.262 150.359 434.721 149.885 435.693 149.41C443.473 145.141 451.252 140.397 457.086 134.231C463.893 127.115 471.673 120.949 480.424 115.256C482.855 113.359 485.286 110.513 489.176 110.038ZM502.303 117.628C501.817 117.628 501.331 117.628 501.331 117.154C495.01 108.615 490.148 99.1282 482.855 91.0641C485.286 90.1154 487.231 92.0128 489.176 90.5898C490.148 89.1667 488.69 87.2693 490.148 85.8462C496.955 93.4359 501.817 102.449 508.624 110.038C504.248 111.462 504.735 115.731 502.303 117.628ZM505.707 115.256C506.193 114.308 506.679 113.833 507.652 113.833C507.652 114.782 507.652 115.256 505.707 115.256ZM485.772 88.6923C485.772 88.6923 486.259 88.218 485.772 88.6923C486.259 88.218 486.259 88.6923 486.745 88.6923C486.745 88.6923 486.259 89.1667 485.772 88.6923C485.772 88.6923 486.259 89.1667 485.772 88.6923Z" fill="#F8FAA5"/>
<path d="M497.928 110.038C500.359 107.192 499.386 104.821 499.386 102.449C498.414 104.346 496.955 106.718 497.928 110.038Z" fill="#F8FAA5"/>
<path d="M496.955 97.7051C493.552 100.551 495.497 103.397 495.497 105.769C495.983 103.397 496.469 101.026 496.955 97.7051Z" fill="#F8FAA5"/>
<path d="M493.066 95.3334C493.066 97.2308 493.066 99.1282 492.579 102.449C494.038 99.1282 494.038 99.1282 493.066 95.3334Z" fill="#F8FAA5"/>
<path d="M36.6492 95.1057C39.0695 92.7049 40.0376 89.8238 41.9739 86.9427C43.9101 83.5815 45.8463 80.2203 48.2666 77.3392C50.6869 74.4582 53.1072 72.0573 56.0115 69.1762C55.0434 63.8943 54.0753 58.6123 59.884 55.2511C60.3681 53.8106 59.4 53.3304 58.4318 52.37C55.5275 54.2908 53.5913 56.6916 52.1391 59.0925C51.655 61.9736 54.5594 61.4934 54.0753 63.4141C44.8782 60.0529 35.1971 49.489 32.7768 38.9251C33.2608 37.9648 34.229 37.0044 35.1971 37.9648C36.1652 37.0044 34.713 36.0441 34.713 35.0837C41.0058 35.0837 45.3623 38.9251 50.2029 42.2863C55.0434 45.6476 58.4318 50.4493 62.3043 54.2908C64.2405 53.8106 64.7246 52.8502 64.2405 51.4097C63.7565 47.5683 64.7246 44.2071 65.6927 40.8458C66.6608 37.0044 68.597 34.1233 71.9854 32.6828C74.4057 31.7225 76.826 29.8018 79.2463 27.8811C81.6666 26.4405 83.6028 25 86.5072 25C89.4115 25 90.8637 26.4405 91.8318 28.8414C89.4115 30.2819 89.4115 26.9207 88.4434 27.4009C82.6347 25.9604 79.2463 30.7621 75.3738 32.6828C74.8898 34.1233 76.342 34.6035 77.3101 35.5639C79.2463 32.6828 82.6347 34.1233 85.5391 32.2026C85.5391 36.0441 81.6666 34.6035 81.1825 36.0441C79.7304 38.4449 80.2144 40.3656 80.2144 42.2863C75.3738 43.2467 71.0173 45.1674 68.113 49.0088C66.6608 47.0881 69.5652 46.6079 69.0811 44.6872C68.597 44.2071 68.113 44.6872 67.6289 44.6872C66.6608 45.1674 66.1767 46.1278 66.1767 47.0881C65.6927 49.489 64.7246 51.8899 65.6927 54.2908C66.1768 54.2908 67.1449 54.7709 67.1449 54.7709C71.9854 50.9295 76.342 47.0881 80.2144 42.2863C82.6347 42.7665 83.6028 40.8458 85.055 39.4053C87.9593 37.0044 90.8637 33.6432 94.2521 31.2423C100.545 26.9207 106.838 25 114.098 27.4009C118.939 29.3216 124.264 28.8414 128.62 32.6828C129.588 35.5639 128.62 37.4846 126.684 39.4053C116.035 49.489 104.901 59.0925 89.4115 61.0132C85.055 61.4934 80.6985 62.4537 76.342 63.4141C75.8579 63.4141 74.8898 64.3745 74.4057 64.8546C74.8898 67.2555 75.3738 69.1762 76.342 71.5771C80.6985 70.1366 84.5709 67.2555 89.4115 66.2952C86.5072 70.1366 81.1825 70.6167 77.7941 73.4978C76.342 74.9383 77.7941 76.859 76.826 78.2996C75.8579 79.7401 73.9217 79.2599 72.9536 79.7401C70.0492 83.1013 70.5333 88.3833 67.6289 92.7048C66.6608 86.9427 70.5333 82.6211 71.0173 77.8194C68.597 76.859 65.6927 76.3789 62.7884 75.4185C62.3043 82.6211 61.8202 89.3436 60.3681 96.5463C57.4637 106.63 53.5913 117.194 48.2666 126.797C46.3304 130.159 43.9101 132.559 40.0376 134C36.1652 133.04 34.713 130.639 34.229 126.797C33.7449 123.436 32.2927 120.555 31.8087 117.674C30.3565 112.392 30.8406 107.59 33.2608 102.789C34.229 99.9075 36.1652 97.9868 36.6492 95.1057ZM72.4695 66.2952C72.4695 65.3348 72.4695 64.3745 71.5014 63.8943C70.0492 60.533 68.597 56.6916 64.2405 55.7313C61.3362 56.2115 59.3999 57.652 57.9478 60.0529C57.9478 61.9736 57.9478 63.8943 57.9478 65.815C58.4318 70.6167 66.6608 75.8987 71.5014 74.4582C72.4695 73.978 73.4376 73.4978 73.9217 73.0176C73.9217 70.6167 74.8898 68.2159 72.4695 66.2952ZM56.9797 81.1806C54.0753 92.2247 49.2347 102.308 44.3942 114.313C47.7826 111.912 50.2029 112.392 52.1391 112.872C58.4318 100.388 58.9159 86.9427 60.3681 73.4978C58.9159 73.4978 58.4318 71.5771 56.0115 71.5771C53.5913 72.5374 52.1391 74.9383 50.2029 76.859C43.9101 84.0617 39.5536 92.7049 35.1971 101.348C32.7768 105.189 31.8087 109.511 32.2927 113.833C32.7768 118.634 34.229 123.436 35.6811 128.238C36.1652 129.678 37.1333 131.119 39.0695 131.599C44.3942 128.718 48.7507 121.996 50.2029 114.313C45.8463 113.352 42.4579 113.833 41.0058 118.634C40.5217 119.115 40.0376 120.075 39.5536 120.555C39.0695 121.035 38.5855 121.035 38.1014 120.555C38.1014 118.634 40.0376 117.674 40.0376 115.753C38.1014 113.833 39.5536 110.952 38.5855 109.031C36.1652 108.07 36.1652 111.912 33.7449 110.952C35.6811 107.11 38.1014 102.789 40.0376 98.9471C41.9739 94.6256 44.8782 90.304 47.2985 86.4626C49.7188 82.6212 51.171 78.2996 55.0434 75.8987C50.2029 85.9824 43.4261 95.1057 39.0695 105.67C40.0376 107.59 41.4898 109.991 41.4898 113.352C43.9101 107.11 46.3304 101.828 48.7507 96.5463C52.1391 91.2643 53.5913 85.9824 56.9797 81.1806ZM94.7362 33.6432C86.0231 41.326 77.7941 48.5286 70.0492 56.2115C71.0173 58.6123 71.5014 60.533 73.9217 61.9736C86.9912 59.0925 101.029 58.1322 112.646 49.0088C111.678 47.0881 111.194 45.1674 112.162 42.2863C106.838 45.1674 101.997 47.0881 97.6405 49.489C97.1564 51.4097 99.5767 52.8502 99.0927 54.7709C96.1883 54.2908 96.6724 51.4097 94.7362 50.4493C91.8318 51.8899 88.4434 53.8106 85.055 55.2511C81.6666 56.6916 78.7622 59.5727 73.4376 59.5727C81.1825 55.2511 88.4434 51.4097 95.2202 47.5683C94.2521 46.1278 93.768 45.1674 92.3159 44.6872C88.4434 47.5683 84.0869 50.4493 79.7304 53.3304C78.7622 53.8106 78.2782 55.2511 76.826 53.8106C80.2144 49.9692 85.055 47.5683 88.9275 44.207C92.7999 40.8458 98.6086 39.8855 102.481 35.5639C99.5767 34.6035 96.6724 35.5639 94.7362 33.6432ZM120.391 32.6828C119.907 35.5639 117.971 37.0044 116.519 38.4449C113.614 40.8458 112.646 43.7269 113.614 48.0485C118.455 44.6872 122.327 41.8062 125.716 37.9648C126.684 37.0044 127.652 35.5639 126.684 33.6432C123.296 32.2026 111.678 28.3612 108.774 28.3612C104.417 28.3612 100.061 28.3612 96.6724 32.6828C99.5767 33.163 102.481 33.163 104.417 34.1234C106.838 33.163 107.806 31.2423 110.226 31.2423C110.71 34.1234 106.354 33.6432 106.354 36.0441C109.258 36.5242 112.162 35.5639 114.098 37.4846C117.003 35.5639 118.455 34.1233 120.391 32.6828ZM97.1564 47.0881C102.481 45.1674 107.806 43.2467 112.646 38.9251C109.258 38.4449 106.354 39.8855 104.417 37.0044C101.513 39.8855 97.1564 40.8458 94.7362 43.7269C94.7362 45.1674 95.7043 46.1278 97.1564 47.0881ZM52.6231 47.5683C51.655 46.1278 50.6869 45.1674 49.7188 44.6872C46.3304 46.6079 43.426 48.5286 41.0058 52.37C42.4579 53.3304 42.942 55.2511 44.8782 54.7709C46.8144 51.4097 49.7188 49.489 52.6231 47.5683ZM49.7188 59.0925C52.1391 56.2115 54.0753 53.3304 56.0115 50.4493C55.5275 49.9692 55.5275 49.489 55.0434 49.489C54.5594 49.0088 54.0753 49.0088 53.5913 49.0088C50.6869 51.4097 48.2666 53.8106 45.8463 56.6916C47.2985 57.652 47.7826 58.6123 49.7188 59.0925ZM43.9101 40.3656C41.0058 41.326 39.0695 43.7269 37.6174 46.1278C38.5855 47.5683 39.0695 48.0485 39.5536 49.489C42.4579 47.0881 44.8782 45.1674 47.2985 43.2467C46.8144 41.326 45.8463 40.8458 43.9101 40.3656ZM74.8898 33.6432C70.0492 35.5639 69.0811 37.0044 68.113 40.8458C68.113 41.326 68.113 41.8062 68.597 42.2863C70.0492 41.326 71.9854 41.8062 72.4695 40.8458C73.4376 39.4053 72.4695 38.4449 71.9854 37.4846C72.4695 36.5242 74.4057 36.0441 74.8898 33.6432ZM41.9739 39.4053C41.0058 37.9648 40.0376 37.4846 39.0695 37.4846C35.1971 40.3656 35.1971 40.3656 37.1333 44.6872C38.1014 42.7665 39.5536 40.8458 41.9739 39.4053ZM78.2782 36.5242C75.3738 37.4846 74.4057 39.4053 74.4057 41.8062C77.7941 40.8458 77.7941 40.8458 78.2782 36.5242ZM73.9217 75.8987C74.4057 76.859 74.8898 76.859 75.3738 75.8987V75.4185C74.8898 74.9383 74.4057 75.4185 73.9217 75.8987Z" fill="#F8FAA5"/>
<path d="M36.6493 95.1057C34.229 94.6256 32.7768 96.0661 30.3565 96.0661C27.4522 96.0661 26 95.1057 26 92.2247C26 89.3436 26.9681 86.4626 27.9362 83.5815C28.9043 80.7004 29.8725 77.8194 30.8406 74.9383C32.2927 70.1366 35.6812 67.7357 40.5217 66.2952C44.3942 65.3348 48.2667 65.3348 53.1072 66.7753C50.2029 67.7357 47.2985 67.2555 44.8782 67.2555C41.0058 67.2555 37.1333 68.696 34.713 71.5771C33.7449 72.5375 33.2609 73.4978 32.7768 74.4582C30.8406 80.2203 28.9043 85.9824 26.9681 91.7445C29.3884 96.0661 32.7768 92.7048 35.6812 92.7048C37.1333 93.6652 36.6493 94.1454 36.6493 95.1057Z" fill="#F8FAA5"/>
<path d="M34.713 86.9428C33.7449 88.3833 36.1652 89.8238 34.229 90.7842C32.7768 89.8238 33.7449 86.9428 30.8406 86.9428C33.7449 84.0617 36.1652 80.7005 34.713 76.3789C38.1014 76.3789 38.1014 73.0176 40.0377 71.0969C40.0377 72.0573 40.5217 73.0176 40.5217 73.978C42.458 71.0969 45.8464 73.4978 48.2666 70.1366C48.2666 73.978 45.3623 73.4978 44.3942 75.4185C43.9101 76.8591 42.942 78.7798 41.9739 81.6608C40.5217 79.2599 42.942 77.8194 41.0058 76.3789C37.1333 77.3392 36.6493 81.1806 35.1971 84.0617C38.1014 85.5022 39.0696 82.141 41.0058 82.6212C41.9739 84.0617 41.0058 84.5419 40.0377 85.0221C39.0696 84.5419 36.6493 85.5022 34.713 86.9428Z" fill="#F8FAA5"/>
<path d="M71.5015 63.8943C71.5015 64.8546 71.0174 65.815 72.4696 66.2952C71.9855 67.7357 71.9855 69.1762 70.5334 69.6564C70.0493 68.2159 69.5652 66.2952 69.0812 64.8546C70.0493 64.3745 71.0174 63.8943 71.5015 63.8943Z" fill="#F8FAA5"/>
<path d="M68.113 71.5771C65.2087 72.0573 64.2406 71.0969 63.2725 68.696C65.6927 68.696 66.6609 70.1366 68.113 71.5771Z" fill="#F8FAA5"/>
<path d="M61.3362 61.0132C61.3362 59.5727 62.3043 59.5727 62.7884 59.5727C63.2724 59.5727 64.2405 59.5727 66.1768 59.5727C63.7565 60.533 62.7884 61.9736 61.3362 61.0132Z" fill="#F8FAA5"/>
<path d="M1452.35 95.1057C1449.93 92.7049 1448.96 89.8238 1447.03 86.9427C1445.09 83.5815 1443.15 80.2203 1440.73 77.3392C1438.31 74.4582 1435.89 72.0573 1432.99 69.1762C1433.96 63.8943 1434.92 58.6123 1429.12 55.2511C1428.63 53.8106 1429.6 53.3304 1430.57 52.37C1433.47 54.2908 1435.41 56.6916 1436.86 59.0925C1437.34 61.9736 1434.44 61.4934 1434.92 63.4141C1444.12 60.0529 1453.8 49.489 1456.22 38.9251C1455.74 37.9648 1454.77 37.0044 1453.8 37.9648C1452.83 37.0044 1454.29 36.0441 1454.29 35.0837C1447.99 35.0837 1443.64 38.9251 1438.8 42.2863C1433.96 45.6476 1430.57 50.4493 1426.7 54.2908C1424.76 53.8106 1424.28 52.8502 1424.76 51.4097C1425.24 47.5683 1424.28 44.2071 1423.31 40.8458C1422.34 37.0044 1420.4 34.1233 1417.01 32.6828C1414.59 31.7225 1412.17 29.8018 1409.75 27.8811C1407.33 26.4405 1405.4 25 1402.49 25C1399.59 25 1398.14 26.4405 1397.17 28.8414C1399.59 30.2819 1399.59 26.9207 1400.56 27.4009C1406.37 25.9604 1409.75 30.7621 1413.63 32.6828C1414.11 34.1233 1412.66 34.6035 1411.69 35.5639C1409.75 32.6828 1406.37 34.1233 1403.46 32.2026C1403.46 36.0441 1407.33 34.6035 1407.82 36.0441C1409.27 38.4449 1408.79 40.3656 1408.79 42.2863C1413.63 43.2467 1417.98 45.1674 1420.89 49.0088C1422.34 47.0881 1419.43 46.6079 1419.92 44.6872C1420.4 44.2071 1420.89 44.6872 1421.37 44.6872C1422.34 45.1674 1422.82 46.1278 1422.82 47.0881C1423.31 49.489 1424.28 51.8899 1423.31 54.2908C1422.82 54.2908 1421.86 54.7709 1421.86 54.7709C1417.01 50.9295 1412.66 47.0881 1408.79 42.2863C1406.37 42.7665 1405.4 40.8458 1403.94 39.4053C1401.04 37.0044 1398.14 33.6432 1394.75 31.2423C1388.46 26.9207 1382.16 25 1374.9 27.4009C1370.06 29.3216 1364.74 28.8414 1360.38 32.6828C1359.41 35.5639 1360.38 37.4846 1362.32 39.4053C1372.97 49.489 1384.1 59.0925 1399.59 61.0132C1403.94 61.4934 1408.3 62.4537 1412.66 63.4141C1413.14 63.4141 1414.11 64.3745 1414.59 64.8546C1414.11 67.2555 1413.63 69.1762 1412.66 71.5771C1408.3 70.1366 1404.43 67.2555 1399.59 66.2952C1402.49 70.1366 1407.82 70.6167 1411.21 73.4978C1412.66 74.9383 1411.21 76.859 1412.17 78.2996C1413.14 79.7401 1415.08 79.2599 1416.05 79.7401C1418.95 83.1013 1418.47 88.3833 1421.37 92.7048C1422.34 86.9427 1418.47 82.6211 1417.98 77.8194C1420.4 76.859 1423.31 76.3789 1426.21 75.4185C1426.7 82.6211 1427.18 89.3436 1428.63 96.5463C1431.54 106.63 1435.41 117.194 1440.73 126.797C1442.67 130.159 1445.09 132.559 1448.96 134C1452.83 133.04 1454.29 130.639 1454.77 126.797C1455.26 123.436 1456.71 120.555 1457.19 117.674C1458.64 112.392 1458.16 107.59 1455.74 102.789C1454.77 99.9075 1452.83 97.9868 1452.35 95.1057ZM1416.53 66.2952C1416.53 65.3348 1416.53 64.3745 1417.5 63.8943C1418.95 60.533 1420.4 56.6916 1424.76 55.7313C1427.66 56.2115 1429.6 57.652 1431.05 60.0529C1431.05 61.9736 1431.05 63.8943 1431.05 65.815C1430.57 70.6167 1422.34 75.8987 1417.5 74.4582C1416.53 73.978 1415.56 73.4978 1415.08 73.0176C1415.08 70.6167 1414.11 68.2159 1416.53 66.2952ZM1432.02 81.1806C1434.92 92.2247 1439.77 102.308 1444.61 114.313C1441.22 111.912 1438.8 112.392 1436.86 112.872C1430.57 100.388 1430.08 86.9427 1428.63 73.4978C1430.08 73.4978 1430.57 71.5771 1432.99 71.5771C1435.41 72.5374 1436.86 74.9383 1438.8 76.859C1445.09 84.0617 1449.45 92.7049 1453.8 101.348C1456.22 105.189 1457.19 109.511 1456.71 113.833C1456.22 118.634 1454.77 123.436 1453.32 128.238C1452.83 129.678 1451.87 131.119 1449.93 131.599C1444.61 128.718 1440.25 121.996 1438.8 114.313C1443.15 113.352 1446.54 113.833 1447.99 118.634C1448.48 119.115 1448.96 120.075 1449.45 120.555C1449.93 121.035 1450.41 121.035 1450.9 120.555C1450.9 118.634 1448.96 117.674 1448.96 115.753C1450.9 113.833 1449.45 110.952 1450.41 109.031C1452.83 108.07 1452.83 111.912 1455.26 110.952C1453.32 107.11 1450.9 102.789 1448.96 98.9471C1447.03 94.6256 1444.12 90.304 1441.7 86.4626C1439.28 82.6212 1437.83 78.2996 1433.96 75.8987C1438.8 85.9824 1445.57 95.1057 1449.93 105.67C1448.96 107.59 1447.51 109.991 1447.51 113.352C1445.09 107.11 1442.67 101.828 1440.25 96.5463C1436.86 91.2643 1435.41 85.9824 1432.02 81.1806ZM1394.26 33.6432C1402.98 41.326 1411.21 48.5286 1418.95 56.2115C1417.98 58.6123 1417.5 60.533 1415.08 61.9736C1402.01 59.0925 1387.97 58.1322 1376.35 49.0088C1377.32 47.0881 1377.81 45.1674 1376.84 42.2863C1382.16 45.1674 1387 47.0881 1391.36 49.489C1391.84 51.4097 1389.42 52.8502 1389.91 54.7709C1392.81 54.2908 1392.33 51.4097 1394.26 50.4493C1397.17 51.8899 1400.56 53.8106 1403.94 55.2511C1407.33 56.6916 1410.24 59.5727 1415.56 59.5727C1407.82 55.2511 1400.56 51.4097 1393.78 47.5683C1394.75 46.1278 1395.23 45.1674 1396.68 44.6872C1400.56 47.5683 1404.91 50.4493 1409.27 53.3304C1410.24 53.8106 1410.72 55.2511 1412.17 53.8106C1408.79 49.9692 1403.94 47.5683 1400.07 44.207C1396.2 40.8458 1390.39 39.8855 1386.52 35.5639C1389.42 34.6035 1392.33 35.5639 1394.26 33.6432ZM1368.61 32.6828C1369.09 35.5639 1371.03 37.0044 1372.48 38.4449C1375.39 40.8458 1376.35 43.7269 1375.39 48.0485C1370.55 44.6872 1366.67 41.8062 1363.28 37.9648C1362.32 37.0044 1361.35 35.5639 1362.32 33.6432C1365.7 32.2026 1377.32 28.3612 1380.23 28.3612C1384.58 28.3612 1388.94 28.3612 1392.33 32.6828C1389.42 33.163 1386.52 33.163 1384.58 34.1234C1382.16 33.163 1381.19 31.2423 1378.77 31.2423C1378.29 34.1234 1382.65 33.6432 1382.65 36.0441C1379.74 36.5242 1376.84 35.5639 1374.9 37.4846C1372 35.5639 1370.54 34.1233 1368.61 32.6828ZM1391.84 47.0881C1386.52 45.1674 1381.19 43.2467 1376.35 38.9251C1379.74 38.4449 1382.65 39.8855 1384.58 37.0044C1387.49 39.8855 1391.84 40.8458 1394.26 43.7269C1394.26 45.1674 1393.3 46.1278 1391.84 47.0881ZM1436.38 47.5683C1437.34 46.1278 1438.31 45.1674 1439.28 44.6872C1442.67 46.6079 1445.57 48.5286 1447.99 52.37C1446.54 53.3304 1446.06 55.2511 1444.12 54.7709C1442.19 51.4097 1439.28 49.489 1436.38 47.5683ZM1439.28 59.0925C1436.86 56.2115 1434.92 53.3304 1432.99 50.4493C1433.47 49.9692 1433.47 49.489 1433.96 49.489C1434.44 49.0088 1434.92 49.0088 1435.41 49.0088C1438.31 51.4097 1440.73 53.8106 1443.15 56.6916C1441.7 57.652 1441.22 58.6123 1439.28 59.0925ZM1445.09 40.3656C1447.99 41.326 1449.93 43.7269 1451.38 46.1278C1450.41 47.5683 1449.93 48.0485 1449.45 49.489C1446.54 47.0881 1444.12 45.1674 1441.7 43.2467C1442.19 41.326 1443.15 40.8458 1445.09 40.3656ZM1414.11 33.6432C1418.95 35.5639 1419.92 37.0044 1420.89 40.8458C1420.89 41.326 1420.89 41.8062 1420.4 42.2863C1418.95 41.326 1417.01 41.8062 1416.53 40.8458C1415.56 39.4053 1416.53 38.4449 1417.01 37.4846C1416.53 36.5242 1414.59 36.0441 1414.11 33.6432ZM1447.03 39.4053C1447.99 37.9648 1448.96 37.4846 1449.93 37.4846C1453.8 40.3656 1453.8 40.3656 1451.87 44.6872C1450.9 42.7665 1449.45 40.8458 1447.03 39.4053ZM1410.72 36.5242C1413.63 37.4846 1414.59 39.4053 1414.59 41.8062C1411.21 40.8458 1411.21 40.8458 1410.72 36.5242ZM1415.08 75.8987C1414.59 76.859 1414.11 76.859 1413.63 75.8987V75.4185C1414.11 74.9383 1414.59 75.4185 1415.08 75.8987Z" fill="#F8FAA5"/>
<path d="M1452.35 95.1057C1454.77 94.6256 1456.22 96.0661 1458.64 96.0661C1461.55 96.0661 1463 95.1057 1463 92.2247C1463 89.3436 1462.03 86.4626 1461.06 83.5815C1460.1 80.7004 1459.13 77.8194 1458.16 74.9383C1456.71 70.1366 1453.32 67.7357 1448.48 66.2952C1444.61 65.3348 1440.73 65.3348 1435.89 66.7753C1438.8 67.7357 1441.7 67.2555 1444.12 67.2555C1447.99 67.2555 1451.87 68.696 1454.29 71.5771C1455.26 72.5375 1455.74 73.4978 1456.22 74.4582C1458.16 80.2203 1460.1 85.9824 1462.03 91.7445C1459.61 96.0661 1456.22 92.7048 1453.32 92.7048C1451.87 93.6652 1452.35 94.1454 1452.35 95.1057Z" fill="#F8FAA5"/>
<path d="M1454.29 86.9428C1455.26 88.3833 1452.83 89.8238 1454.77 90.7842C1456.22 89.8238 1455.26 86.9428 1458.16 86.9428C1455.26 84.0617 1452.83 80.7005 1454.29 76.3789C1450.9 76.3789 1450.9 73.0176 1448.96 71.0969C1448.96 72.0573 1448.48 73.0176 1448.48 73.978C1446.54 71.0969 1443.15 73.4978 1440.73 70.1366C1440.73 73.978 1443.64 73.4978 1444.61 75.4185C1445.09 76.8591 1446.06 78.7798 1447.03 81.6608C1448.48 79.2599 1446.06 77.8194 1447.99 76.3789C1451.87 77.3392 1452.35 81.1806 1453.8 84.0617C1450.9 85.5022 1449.93 82.141 1447.99 82.6212C1447.03 84.0617 1447.99 84.5419 1448.96 85.0221C1449.93 84.5419 1452.35 85.5022 1454.29 86.9428Z" fill="#F8FAA5"/>
<path d="M1417.5 63.8943C1417.5 64.8546 1417.98 65.815 1416.53 66.2952C1417.01 67.7357 1417.01 69.1762 1418.47 69.6564C1418.95 68.2159 1419.43 66.2952 1419.92 64.8546C1418.95 64.3745 1417.98 63.8943 1417.5 63.8943Z" fill="#F8FAA5"/>
<path d="M1420.89 71.5771C1423.79 72.0573 1424.76 71.0969 1425.73 68.696C1423.31 68.696 1422.34 70.1366 1420.89 71.5771Z" fill="#F8FAA5"/>
<path d="M1427.66 61.0132C1427.66 59.5727 1426.7 59.5727 1426.21 59.5727C1425.73 59.5727 1424.76 59.5727 1422.82 59.5727C1425.24 60.533 1426.21 61.9736 1427.66 61.0132Z" fill="#F8FAA5"/>
<path d="M1196.33 154.461C1198.24 151.111 1200.62 148.718 1203.95 146.325C1197.29 142.496 1191.1 138.667 1183 142.496C1183.95 136.752 1188.24 134.359 1192.05 131.487C1186.81 123.83 1188.24 115.215 1190.14 107.078C1191.1 102.771 1189.67 99.4202 1187.76 95.5913C1187.29 95.1127 1186.33 94.6341 1186.81 93.6769C1187.29 93.1983 1187.76 92.7196 1188.24 93.1982C1194.9 96.0699 1201.1 100.377 1203.95 107.557C1205.38 111.386 1207.29 114.257 1211.1 116.65C1213.48 114.736 1213 110.428 1217.29 109.95C1219.19 112.343 1225.38 125.265 1225.86 127.659C1227.29 128.137 1229.67 128.616 1230.62 130.53C1231.57 132.445 1232.52 133.881 1233 135.316C1232.52 136.752 1231.57 137.231 1230.62 137.709C1229.67 138.188 1228.71 138.667 1227.76 139.624C1229.19 141.538 1232.05 141.538 1233 144.41C1231.57 146.803 1230.62 149.675 1229.19 152.546C1226.33 152.546 1223.95 151.111 1221.1 150.153C1218.71 155.418 1218.24 161.64 1214.9 166.905C1212.05 167.384 1209.67 165.948 1207.29 164.99C1205.86 161.64 1209.19 159.247 1208.71 155.897C1205.86 156.854 1204.43 159.726 1201.1 160.204C1199.67 158.768 1197.76 156.375 1196.33 154.461ZM1203.48 139.624C1203.48 140.103 1203.48 141.06 1204.43 140.103C1203.95 140.103 1203.48 140.103 1203.48 139.624C1203.48 135.795 1203 131.487 1203.95 127.18C1209.67 130.53 1214.9 133.402 1215.38 140.581C1218.71 135.316 1216.33 131.487 1214.43 127.18C1213.48 127.659 1213.48 129.094 1212.05 129.094C1208.71 124.787 1203.48 122.394 1198.24 119.043C1196.33 125.265 1198.24 130.53 1201.1 135.795C1200.14 136.274 1199.67 136.752 1199.19 137.231C1200.14 138.667 1202.05 139.145 1203.48 139.624ZM1201.1 142.017C1201.1 142.017 1201.1 142.974 1201.57 142.496C1201.57 142.496 1201.1 142.496 1201.1 142.017C1201.1 140.581 1200.14 140.103 1198.71 139.624C1197.29 139.145 1195.38 138.667 1193.95 137.709C1193.48 137.709 1193 137.231 1193.48 136.274C1193.95 133.881 1196.81 135.795 1197.76 133.402C1194.9 127.18 1193.48 120.479 1199.19 114.257C1201.1 119.043 1201.1 119.043 1211.1 124.787C1212.05 124.308 1212.05 122.872 1213.95 122.872C1218.24 128.137 1219.19 134.359 1218.71 141.06C1226.33 133.881 1225.38 131.009 1223 124.308C1221.57 120.001 1219.19 116.65 1216.81 112.821C1213.48 113.779 1214.9 118.086 1212.05 119.043C1207.29 116.65 1206.33 115.693 1203.95 112.343C1203 110.428 1202.05 108.514 1201.1 106.599C1199.19 102.292 1195.86 98.9416 1191.1 97.5058C1192.05 102.292 1192.05 107.078 1191.1 111.386C1190.14 116.65 1189.19 121.915 1192.05 126.701C1193 128.137 1193.95 130.052 1193.95 131.966C1193 134.359 1189.67 134.359 1188.71 137.231C1192.52 140.103 1196.81 140.581 1201.1 142.017ZM1213.95 164.99C1216.81 158.29 1218.71 151.111 1220.14 143.453C1216.81 143.931 1215.86 145.367 1214.43 147.76C1212.05 153.025 1210.62 158.29 1209.19 163.555C1210.14 164.99 1211.57 165.469 1213.95 164.99ZM1211.57 148.239C1209.19 147.282 1207.29 147.76 1204.9 147.76C1202.52 149.675 1200.14 151.589 1198.71 154.461C1199.67 156.375 1200.62 157.811 1202.52 158.29C1205.38 154.94 1210.62 153.982 1211.57 148.239ZM1211.57 143.453C1213.95 141.538 1213 139.145 1212.05 137.231C1210.62 134.359 1208.24 131.966 1204.9 130.53C1204.43 138.188 1205.86 141.538 1211.57 143.453ZM1221.57 148.239C1223.48 149.675 1225.38 150.632 1227.76 151.111C1228.71 149.196 1229.67 147.282 1230.62 144.889C1228.24 143.453 1225.86 141.06 1223 142.496C1221.57 143.931 1221.57 145.846 1221.57 148.239ZM1223.95 139.624C1226.33 138.188 1228.71 136.752 1231.1 134.838C1229.19 133.402 1229.19 131.009 1226.33 130.052C1226.33 133.881 1224.43 136.274 1223.95 139.624Z" fill="#F8FAA5"/>
<path d="M290.667 154.461C288.762 151.111 286.381 148.718 283.048 146.325C289.714 142.496 295.905 138.667 304 142.496C303.048 136.752 298.762 134.359 294.952 131.487C300.19 123.83 298.762 115.215 296.857 107.078C295.905 102.771 297.333 99.4202 299.238 95.5913C299.714 95.1127 300.667 94.6341 300.19 93.6769C299.714 93.1983 299.238 92.7196 298.762 93.1982C292.095 96.0699 285.905 100.377 283.048 107.557C281.619 111.386 279.714 114.257 275.905 116.65C273.524 114.736 274 110.428 269.714 109.95C267.81 112.343 261.619 125.265 261.143 127.659C259.714 128.137 257.333 128.616 256.381 130.53C255.429 132.445 254.476 133.881 254 135.316C254.476 136.752 255.429 137.231 256.381 137.709C257.333 138.188 258.286 138.667 259.238 139.624C257.81 141.538 254.952 141.538 254 144.41C255.429 146.803 256.381 149.675 257.81 152.546C260.667 152.546 263.048 151.111 265.905 150.153C268.286 155.418 268.762 161.64 272.095 166.905C274.952 167.384 277.333 165.948 279.714 164.99C281.143 161.64 277.81 159.247 278.286 155.897C281.143 156.854 282.571 159.726 285.905 160.204C287.333 158.768 289.238 156.375 290.667 154.461ZM283.524 139.624C283.524 140.103 283.524 141.06 282.571 140.103C283.048 140.103 283.524 140.103 283.524 139.624C283.524 135.795 284 131.487 283.048 127.18C277.333 130.53 272.095 133.402 271.619 140.581C268.286 135.316 270.667 131.487 272.571 127.18C273.524 127.659 273.524 129.094 274.952 129.094C278.286 124.787 283.524 122.394 288.762 119.043C290.667 125.265 288.762 130.53 285.905 135.795C286.857 136.274 287.333 136.752 287.81 137.231C286.857 138.667 284.952 139.145 283.524 139.624ZM285.905 142.017C285.905 142.017 285.905 142.974 285.429 142.496C285.429 142.496 285.905 142.496 285.905 142.017C285.905 140.581 286.857 140.103 288.286 139.624C289.714 139.145 291.619 138.667 293.048 137.709C293.524 137.709 294 137.231 293.524 136.274C293.048 133.881 290.19 135.795 289.238 133.402C292.095 127.18 293.524 120.479 287.81 114.257C285.905 119.043 285.905 119.043 275.905 124.787C274.952 124.308 274.952 122.872 273.048 122.872C268.762 128.137 267.81 134.359 268.286 141.06C260.667 133.881 261.619 131.009 264 124.308C265.429 120.001 267.81 116.65 270.19 112.821C273.524 113.779 272.095 118.086 274.952 119.043C279.714 116.65 280.667 115.693 283.048 112.343C284 110.428 284.952 108.514 285.905 106.599C287.81 102.292 291.143 98.9416 295.905 97.5058C294.952 102.292 294.952 107.078 295.905 111.386C296.857 116.65 297.81 121.915 294.952 126.701C294 128.137 293.048 130.052 293.048 131.966C294 134.359 297.333 134.359 298.286 137.231C294.476 140.103 290.19 140.581 285.905 142.017ZM273.048 164.99C270.19 158.29 268.286 151.111 266.857 143.453C270.19 143.931 271.143 145.367 272.571 147.76C274.952 153.025 276.381 158.29 277.81 163.555C276.857 164.99 275.429 165.469 273.048 164.99ZM275.429 148.239C277.81 147.282 279.714 147.76 282.095 147.76C284.476 149.675 286.857 151.589 288.286 154.461C287.333 156.375 286.381 157.811 284.476 158.29C281.619 154.94 276.381 153.982 275.429 148.239ZM275.429 143.453C273.048 141.538 274 139.145 274.952 137.231C276.381 134.359 278.762 131.966 282.095 130.53C282.571 138.188 281.143 141.538 275.429 143.453ZM265.429 148.239C263.524 149.675 261.619 150.632 259.238 151.111C258.286 149.196 257.333 147.282 256.381 144.889C258.762 143.453 261.143 141.06 264 142.496C265.429 143.931 265.429 145.846 265.429 148.239ZM263.048 139.624C260.667 138.188 258.286 136.752 255.905 134.838C257.81 133.402 257.81 131.009 260.667 130.052C260.667 133.881 262.571 136.274 263.048 139.624Z" fill="#F8FAA5"/>
<path d="M917.506 48.7172C912.337 48.7172 907.169 48.7172 902 48.7172C902.47 44.7576 905.759 44.2626 907.639 43.2727C909.988 41.7879 912.807 41.2929 915.157 39.3131C918.446 34.3636 916.096 26.9394 920.325 21C923.145 27.4343 921.735 34.3636 925.494 39.8081C930.193 42.2828 935.831 41.2929 941 44.2626C936.301 48.2222 930.663 47.2323 925.494 49.2121C923.145 55.6465 926.434 63.0707 923.145 70C920.325 67.5253 918.446 59.6061 917.506 48.7172ZM922.205 60.101C922.675 55.6465 923.145 51.1919 923.614 47.2323C926.904 46.2424 930.663 47.7273 933.012 44.7576C931.133 44.2626 929.723 43.2727 927.843 43.2727C924.084 43.2727 922.205 41.2929 921.265 37.3333C921.265 35.8485 921.265 34.3636 921.265 32.8788C921.265 31.8889 920.795 30.899 919.386 30.404C919.386 33.8687 918.446 37.3333 917.976 39.8081C915.157 43.2727 911.398 42.7778 909.048 45.7475C912.807 47.2323 917.036 44.7576 920.325 48.2222C919.386 52.6768 920.795 56.6364 922.205 60.101Z" fill="#F8FAA5"/>
<path d="M1386.82 173.194C1382.03 169.237 1375.79 173.194 1371 169.731C1371 167.258 1372.92 167.753 1374.36 167.258C1377.71 165.774 1381.55 165.28 1385.86 163.796C1387.3 157.366 1389.22 150.935 1390.66 145C1392.09 145 1393.05 145.989 1392.57 146.978C1392.09 151.925 1393.53 156.871 1393.05 162.312C1397.85 165.774 1403.6 164.785 1408.87 166.763C1409.35 168.247 1408.39 169.237 1407.43 169.237C1404.56 169.731 1401.68 170.226 1398.81 170.72C1397.37 170.72 1395.93 171.71 1394.49 172.204C1394.49 178.634 1394.49 185.065 1391.13 191C1387.78 188.527 1389.22 185.065 1388.26 182.097C1386.82 179.129 1387.3 176.161 1386.82 173.194ZM1400.72 167.258C1397.37 165.28 1393.53 165.774 1391.13 162.806C1390.18 160.333 1391.13 158.355 1390.18 155.387C1389.22 158.849 1388.74 161.323 1388.26 163.796C1386.82 165.28 1385.38 165.774 1383.46 166.269C1382.03 166.763 1380.11 167.258 1378.67 167.753C1382.03 168.742 1385.38 168.742 1387.78 170.226C1391.13 173.688 1387.78 179.129 1391.13 182.591C1393.05 178.14 1390.66 172.699 1393.53 168.742C1395.45 168.742 1397.85 168.247 1400.72 167.258Z" fill="#F8FAA5"/>
<path d="M1145.43 52C1145.9 58.1395 1148.76 61.2093 1154 63.2558C1148.29 64.7907 1145.9 68.3721 1144.95 74C1143.05 71.9535 1142.57 69.3953 1140.67 68.3721C1138.76 67.3488 1137.33 65.3023 1134 65.3023C1136.86 63.2558 1139.24 61.7209 1141.62 60.186C1143.52 57.6279 1143.52 54.5581 1145.43 52ZM1149.24 63.2558C1147.81 61.2093 1146.38 59.6744 1144.48 57.6279C1143.05 60.6977 1141.14 62.2326 1139.24 63.7674C1139.24 65.814 1141.14 65.814 1141.62 66.3256C1142.57 67.3488 1143.05 67.8605 1144 68.8837C1145.9 66.3256 1147.33 64.7907 1149.24 63.2558Z" fill="#F8FAA5"/>
<path d="M1297 52.2667C1302.65 50.2222 1303.68 44.6 1306.76 40C1308.3 45.1111 1308.81 50.7333 1316 51.2444C1311.38 54.3111 1308.3 57.8889 1306.76 63C1304.7 58.4 1303.16 53.2889 1297 52.2667ZM1307.78 57.8889C1308.3 55.3333 1310.35 53.8 1311.89 52.2667C1309.32 50.2222 1307.27 48.1778 1306.24 45.1111C1304.7 47.6667 1303.16 49.7111 1301.62 51.7556C1303.68 53.8 1305.22 55.8444 1307.78 57.8889Z" fill="#F8FAA5"/>
<path d="M559.494 48.7172C564.663 48.7172 569.831 48.7172 575 48.7172C574.53 44.7576 571.241 44.2626 569.361 43.2727C567.012 41.7879 564.193 41.2929 561.843 39.3131C558.554 34.3636 560.904 26.9394 556.675 21C553.855 27.4343 555.265 34.3636 551.506 39.8081C546.807 42.2828 541.169 41.2929 536 44.2626C540.699 48.2222 546.337 47.2323 551.506 49.2121C553.855 55.6465 550.566 63.0707 553.855 70C556.675 67.5253 558.554 59.6061 559.494 48.7172ZM554.795 60.101C554.325 55.6465 553.855 51.1919 553.386 47.2323C550.096 46.2424 546.337 47.7273 543.988 44.7576C545.867 44.2626 547.277 43.2727 549.157 43.2727C552.916 43.2727 554.795 41.2929 555.735 37.3333C555.735 35.8485 555.735 34.3636 555.735 32.8788C555.735 31.8889 556.205 30.899 557.614 30.404C557.614 33.8687 558.554 37.3333 559.024 39.8081C561.843 43.2727 565.602 42.7778 567.952 45.7475C564.193 47.2323 559.964 44.7576 556.675 48.2222C557.614 52.6768 556.205 56.6364 554.795 60.101Z" fill="#F8FAA5"/>
<path d="M90.1798 173.194C94.9738 169.237 101.206 173.194 106 169.731C106 167.258 104.082 167.753 102.644 167.258C99.2884 165.774 95.4532 165.28 91.1386 163.796C89.7004 157.366 87.7829 150.935 86.3447 145C84.9065 145 83.9477 145.989 84.4271 146.978C84.9065 151.925 83.4683 156.871 83.9477 162.312C79.1537 165.774 73.4009 164.785 68.1275 166.763C67.6481 168.247 68.6069 169.237 69.5657 169.237C72.4421 169.731 75.3185 170.226 78.1949 170.72C79.6331 170.72 81.0713 171.71 82.5095 172.204C82.5095 178.634 82.5095 185.065 85.8653 191C89.221 188.527 87.7829 185.065 88.7417 182.097C90.1798 179.129 89.7004 176.161 90.1798 173.194ZM76.2773 167.258C79.6331 165.28 83.4683 165.774 85.8653 162.806C86.8241 160.333 85.8653 158.355 86.8241 155.387C87.7829 158.849 88.2623 161.323 88.7417 163.796C90.1798 165.28 91.618 165.774 93.5356 166.269C94.9738 166.763 96.8914 167.258 98.3296 167.753C94.9738 168.742 91.618 168.742 89.2211 170.226C85.8653 173.688 89.221 179.129 85.8653 182.591C83.9477 178.14 86.3447 172.699 83.4683 168.742C81.5507 168.742 79.1537 168.247 76.2773 167.258Z" fill="#F8FAA5"/>
<path d="M331.571 52C331.095 58.1395 328.238 61.2093 323 63.2558C328.714 64.7907 331.095 68.3721 332.048 74C333.952 71.9535 334.429 69.3953 336.333 68.3721C338.238 67.3488 339.667 65.3023 343 65.3023C340.143 63.2558 337.762 61.7209 335.381 60.186C333.476 57.6279 333.476 54.5581 331.571 52ZM327.762 63.2558C329.19 61.2093 330.619 59.6744 332.524 57.6279C333.952 60.6977 335.857 62.2326 337.762 63.7674C337.762 65.814 335.857 65.814 335.381 66.3256C334.429 67.3488 333.952 67.8605 333 68.8837C331.095 66.3256 329.667 64.7907 327.762 63.2558Z" fill="#F8FAA5"/>
<path d="M180 52.2667C174.351 50.2222 173.324 44.6 170.243 40C168.703 45.1111 168.189 50.7333 161 51.2444C165.622 54.3111 168.703 57.8889 170.243 63C172.297 58.4 173.838 53.2889 180 52.2667ZM169.216 57.8889C168.703 55.3333 166.649 53.8 165.108 52.2667C167.676 50.2222 169.73 48.1778 170.757 45.1111C172.297 47.6667 173.838 49.7111 175.378 51.7556C173.324 53.8 171.784 55.8444 169.216 57.8889Z" fill="#F8FAA5"/>
<path d="M1135.5 133.155C1138.5 136.083 1143.5 136.083 1147 139.012C1146 141.94 1143.5 141.94 1141.5 141.94C1139.5 141.94 1137.5 142.429 1135.5 143.893C1134 148.774 1135.5 154.631 1132.5 160C1129 154.631 1129.5 148.286 1129 142.917C1125 139.5 1120 141.94 1116 140.476C1116 138.036 1118 137.06 1120 136.571C1124.5 134.619 1127 131.69 1127 126.81C1127 124.857 1127.5 122.905 1128 120.952C1128 119.976 1129 119 1130.5 119C1133 122.417 1132.5 128.274 1135.5 133.155ZM1131.5 152.679C1133.5 148.286 1133 144.381 1134 140.964C1137 139.988 1140 141.452 1142 138.524C1140.5 138.036 1139 137.06 1137.5 136.571C1134 135.595 1132 133.155 1131 129.25C1130.5 126.81 1130.5 124.369 1128.5 122.417C1128 125.833 1127 129.25 1126.5 132.667C1124.5 134.131 1122.5 135.595 1120 137.06C1123 138.524 1126 138.524 1128.5 139.012C1131 143.405 1131 147.798 1131.5 152.679Z" fill="#F8FAA5"/>
<path d="M1199 63.1201C1199.48 59.9216 1199.48 59.9216 1208.62 56.2662C1209.1 52.6109 1210.06 48.9555 1210.54 45.7571C1211.5 44.8432 1211.98 44.8432 1212.94 45.3001C1214.38 48.0417 1212.94 51.2401 1214.38 53.9816C1217.27 56.2662 1221.12 56.2662 1224 58.5508C1222.56 61.2924 1219.19 60.8355 1216.79 62.2062C1214.87 65.8616 1215.35 70.4308 1213.9 75C1210.54 71.8016 1211.02 68.1462 1210.06 64.9477C1206.69 62.2062 1202.37 64.4908 1199 63.1201ZM1201.88 61.2924C1206.69 62.2062 1211.02 60.8354 1213.42 66.3185C1213.9 64.0339 1213.9 62.6631 1213.9 60.8355C1215.35 59.9216 1217.27 60.3785 1218.23 58.5508C1216.31 57.637 1213.9 56.7232 1211.98 55.8093C1210.06 59.4647 1205.73 59.4647 1201.88 61.2924Z" fill="#F8FAA5"/>
<path d="M338.5 154.155C335.5 157.083 330.5 157.083 327 160.012C328 162.94 330.5 162.94 332.5 162.94C334.5 162.94 336.5 163.429 338.5 164.893C340 169.774 338.5 175.631 341.5 181C345 175.631 344.5 169.286 345 163.917C349 160.5 354 162.94 358 161.476C358 159.036 356 158.06 354 157.571C349.5 155.619 347 152.69 347 147.81C347 145.857 346.5 143.905 346 141.952C346 140.976 345 140 343.5 140C341 143.417 341.5 149.274 338.5 154.155ZM342.5 173.679C340.5 169.286 341 165.381 340 161.964C337 160.988 334 162.452 332 159.524C333.5 159.036 335 158.06 336.5 157.571C340 156.595 342 154.155 343 150.25C343.5 147.81 343.5 145.369 345.5 143.417C346 146.833 347 150.25 347.5 153.667C349.5 155.131 351.5 156.595 354 158.06C351 159.524 348 159.524 345.5 160.012C343 164.405 343 168.798 342.5 173.679Z" fill="#F8FAA5"/>
<path d="M275 84.1201C274.519 80.9216 274.519 80.9216 265.385 77.2662C264.904 73.6109 263.942 69.9555 263.462 66.7571C262.5 65.8432 262.019 65.8432 261.058 66.3001C259.615 69.0417 261.058 72.2401 259.615 74.9816C256.731 77.2662 252.885 77.2662 250 79.5508C251.442 82.2924 254.808 81.8355 257.212 83.2062C259.135 86.8616 258.654 91.4308 260.096 96C263.462 92.8016 262.981 89.1462 263.942 85.9477C267.308 83.2062 271.635 85.4908 275 84.1201ZM272.115 82.2924C267.308 83.2062 262.981 81.8354 260.577 87.3185C260.096 85.0339 260.096 83.6631 260.096 81.8355C258.654 80.9216 256.731 81.3785 255.769 79.5508C257.692 78.637 260.096 77.7232 262.019 76.8093C263.942 80.4647 268.269 80.4647 272.115 82.2924Z" fill="#F8FAA5"/>
</svg>
