<svg width="1152" height="166" viewBox="0 0 1152 166" fill="none" xmlns="http://www.w3.org/2000/svg">
<path fill-rule="evenodd" clip-rule="evenodd" d="M647.661 41.748L680.32 96.3119H615.002L647.661 41.748Z" fill="#64A34C"/>
<path fill-rule="evenodd" clip-rule="evenodd" d="M415 26L457 96H373L415 26Z" fill="#64A34C"/>
<path fill-rule="evenodd" clip-rule="evenodd" d="M780.671 26.3278L822.831 96.3119H738.512L780.671 26.3278Z" fill="#6CA758"/>
<path fill-rule="evenodd" clip-rule="evenodd" d="M897.555 44.5946L939.714 99.1585H855.395L897.555 44.5946ZM1114.88 44.5946L1157.04 99.1585H1072.72L1114.88 44.5946Z" fill="#6CA758"/>
<path fill-rule="evenodd" clip-rule="evenodd" d="M108.264 51.9436L140.923 106.507H75.6054L108.264 51.9436Z" fill="#64A34C"/>
<path fill-rule="evenodd" clip-rule="evenodd" d="M241.275 36.5233L283.434 106.507H199.115L241.275 36.5233Z" fill="#6CA758"/>
<path fill-rule="evenodd" clip-rule="evenodd" d="M183.083 0L247.244 106.507H118.921L183.083 0Z" fill="#579239"/>
<path fill-rule="evenodd" clip-rule="evenodd" d="M482.5 29L529 107H436L482.5 29Z" fill="#579239"/>
<path fill-rule="evenodd" clip-rule="evenodd" d="M709 15L764 107H654L709 15Z" fill="#579239"/>
<path fill-rule="evenodd" clip-rule="evenodd" d="M898.696 96.0771H1194V166.293H-22V96.0771H792.095L845.395 7.349L898.696 96.0771Z" fill="#618E4A"/>
<path d="M787.417 94.4832C787.417 94.2212 787.204 94.0088 786.942 94.0088C786.679 94.0088 786.467 94.2212 786.467 94.4832V127.678C786.467 127.94 786.679 128.152 786.942 128.152C787.204 128.152 787.417 127.94 787.417 127.678V94.4832Z" stroke="white" stroke-width="3.5"/>
<path fill-rule="evenodd" clip-rule="evenodd" d="M785.535 108.395L776.762 99.7492L785.535 108.395ZM786.266 100.38C789.829 97.2629 793.149 94.0794 793.149 94.0794L786.266 100.38ZM786.765 113.242L795.801 105.651L786.765 113.242Z" stroke="white" stroke-width="2" stroke-linecap="round"/>
<mask id="mask0" mask-type="alpha" maskUnits="userSpaceOnUse" x="765" y="78" width="43" height="42">
<path d="M792.185 119.998H807.392V78.9935H765.827V119.998H780.02V104.996H792.185V119.998Z" fill="white"/>
</mask>
<g mask="url(#mask0)">
<path fill-rule="evenodd" clip-rule="evenodd" d="M786.284 118.066C796.683 118.066 805.104 109.767 805.104 99.5402C805.104 87.954 799.995 80.6541 790.632 80.6541C779.09 80.6541 767.957 88.6507 767.957 97.9862C767.957 108.662 776.294 118.066 786.284 118.066Z" stroke="white" stroke-width="3.5"/>
</g>
<path d="M637.444 96.1783C637.444 95.9163 637.231 95.7039 636.969 95.7039C636.707 95.7039 636.494 95.9163 636.494 96.1783V124.145C636.494 124.407 636.707 124.62 636.969 124.62C637.231 124.62 637.444 124.407 637.444 124.145V96.1783Z" stroke="white" stroke-width="3.5"/>
<path fill-rule="evenodd" clip-rule="evenodd" d="M635.458 107.851L627.939 100.412L635.458 107.851ZM636.085 100.954C639.138 98.2723 641.984 95.533 641.984 95.533L636.085 100.954ZM636.512 112.022L644.257 105.49L636.512 112.022Z" stroke="white" stroke-width="2" stroke-linecap="round"/>
<mask id="mask1" mask-type="alpha" maskUnits="userSpaceOnUse" x="618" y="82" width="37" height="36">
<path d="M641.158 117.835H654.193V82.5521H618.565V117.835H630.731V104.927H641.158V117.835Z" fill="white"/>
</mask>
<g mask="url(#mask1)">
<path fill-rule="evenodd" clip-rule="evenodd" d="M636.1 115.941C644.882 115.941 651.994 108.904 651.994 100.232C651.994 90.3755 647.698 84.2126 639.827 84.2126C630.052 84.2126 620.629 91.0074 620.629 98.8946C620.629 107.96 627.677 115.941 636.1 115.941Z" stroke="white" stroke-width="3.5"/>
</g>
<path d="M846.28 85.1622C846.28 84.9002 846.068 84.6878 845.805 84.6878C845.543 84.6878 845.33 84.9002 845.33 85.1622V128.812C845.33 129.074 845.543 129.286 845.805 129.286C846.068 129.286 846.28 129.074 846.28 128.812V85.1622Z" stroke="white" stroke-width="3.5"/>
<path fill-rule="evenodd" clip-rule="evenodd" d="M844.608 103.552L833.328 92.4937L844.608 103.552ZM845.548 93.3004C850.128 89.3135 854.396 85.2416 854.396 85.2416L845.548 93.3004ZM846.189 109.752L857.806 100.042L846.189 109.752Z" stroke="white" stroke-width="2" stroke-linecap="round"/>
<mask id="mask2" mask-type="alpha" maskUnits="userSpaceOnUse" x="819" y="65" width="54" height="54">
<path d="M853.158 118.393H872.71V65.9456H819.268V118.393H837.517V99.205H853.158V118.393Z" fill="white"/>
</mask>
<g mask="url(#mask2)">
<path fill-rule="evenodd" clip-rule="evenodd" d="M845.57 116.385C859.203 116.385 870.243 105.562 870.243 92.2263C870.243 77.1799 863.508 67.6062 851.161 67.6062C836.085 67.6062 821.533 78.0052 821.533 90.2386C821.533 104.136 832.449 116.385 845.57 116.385Z" stroke="white" stroke-width="3.5"/>
</g>
<path d="M187.276 90.9783C187.276 90.7163 187.063 90.5038 186.801 90.5038C186.539 90.5038 186.326 90.7163 186.326 90.9783V142.292C186.326 142.554 186.539 142.766 186.801 142.766C187.063 142.766 187.276 142.554 187.276 142.292V90.9783Z" stroke="white" stroke-width="3.5"/>
<path fill-rule="evenodd" clip-rule="evenodd" d="M185.754 112.651L172.67 99.8237L185.754 112.651ZM186.844 100.759C192.157 96.1349 197.108 91.4117 197.108 91.4117L186.844 100.759ZM187.588 119.842L201.063 108.58L187.588 119.842Z" stroke="white" stroke-width="2" stroke-linecap="round"/>
<mask id="mask3" mask-type="alpha" maskUnits="userSpaceOnUse" x="156" y="69" width="63" height="61">
<path d="M195.671 129.865H218.35V69.0299H156.362V129.865H177.528V107.608H195.671V129.865Z" fill="white"/>
</mask>
<g mask="url(#mask3)">
<path fill-rule="evenodd" clip-rule="evenodd" d="M186.87 127.801C202.829 127.801 215.754 115.129 215.754 99.5135C215.754 81.9301 207.848 70.6904 193.355 70.6904C175.737 70.6904 158.722 82.8486 158.722 97.2079C158.722 113.469 171.496 127.801 186.87 127.801Z" stroke="white" stroke-width="3.5"/>
</g>
<path d="M128.769 107.219C128.769 106.957 128.556 106.744 128.294 106.744C128.031 106.744 127.819 106.957 127.819 107.219V138.088C127.819 138.35 128.031 138.562 128.294 138.562C128.556 138.562 128.769 138.35 128.769 138.088V107.219Z" stroke="white" stroke-width="3.5"/>
<path fill-rule="evenodd" clip-rule="evenodd" d="M126.845 120.134L118.574 112.025L126.845 120.134ZM127.535 112.617C130.893 109.693 134.023 106.707 134.023 106.707L127.535 112.617ZM128.005 124.681L136.524 117.561L128.005 124.681Z" stroke="white" stroke-width="2" stroke-linecap="round"/>
<mask id="mask4" mask-type="alpha" maskUnits="userSpaceOnUse" x="108" y="92" width="40" height="40">
<path d="M133.115 131.017H147.452V92.5579H108.264V131.017H121.646V116.947H133.115V131.017Z" fill="white"/>
</mask>
<g mask="url(#mask4)">
<path fill-rule="evenodd" clip-rule="evenodd" d="M127.551 129.102C137.305 129.102 145.2 121.362 145.2 111.829C145.2 101.014 140.42 94.2184 131.651 94.2184C120.815 94.2184 110.368 101.684 110.368 110.372C110.368 120.329 118.186 129.102 127.551 129.102Z" stroke="white" stroke-width="3.5"/>
</g>
<path fill-rule="evenodd" clip-rule="evenodd" d="M314.906 121.645L315.448 141.803L372.122 139.231C372.158 139.229 372.372 139.118 372.673 138.832C373.12 138.409 373.584 137.755 373.997 136.926C375.012 134.89 375.584 132.133 375.499 128.986C375.414 125.84 374.696 123.141 373.574 121.202C373.117 120.412 372.62 119.802 372.151 119.42C371.835 119.163 371.616 119.071 371.58 119.073L336.305 120.674L328.649 113.648C327.476 112.571 325.669 112.653 324.568 113.821L322.553 115.959L328.097 121.046L314.906 121.645Z" stroke="white" stroke-width="3.5"/>
<path d="M322.704 141.102L324.613 138.307C325.353 137.224 327.035 136.296 328.381 136.234L343.685 135.531" stroke="white" stroke-width="2" stroke-linecap="round"/>
<path d="M318.134 129.383L336.134 128.729" stroke="white" stroke-width="2" stroke-linecap="round"/>
<path d="M346.595 121.193L348.913 123.754C349.781 124.712 351.567 125.451 352.909 125.404L367.796 124.885" stroke="white" stroke-width="2" stroke-linecap="round"/>
<path d="M362.257 132.143L373.485 131.819" stroke="white" stroke-width="2" stroke-linecap="round"/>
<path d="M318.06 131.36C317.908 125.692 316.066 121.174 313.946 121.27C311.826 121.366 310.231 126.04 310.383 131.709C310.536 137.378 312.378 141.895 314.498 141.799C316.618 141.703 318.213 137.029 318.06 131.36Z" stroke="white" stroke-width="3.5"/>
</svg>
