<svg width="117" height="94" viewBox="0 0 117 94" fill="none" xmlns="http://www.w3.org/2000/svg">
<path d="M20.6886 4.57324C25.0706 4.0945 28.4789 3.137 32.374 3.137C46.9809 3.137 61.1008 3.137 75.7077 3.137C78.629 3.137 81.0635 2.65827 83.9849 2.17953C89.3407 1.70078 94.6966 2.17954 100.052 3.61577C101.026 4.09451 101.026 5.052 101.026 6.00948C101.513 19.893 102 33.2978 102 47.1813C102 48.1388 102 49.575 102 50.5325C102 54.3625 100.539 55.32 97.1311 56.7562C93.7228 58.1924 89.8276 58.1924 86.4194 57.7137C84.4718 57.2349 83.0111 57.2349 81.0635 57.2349C65.4829 57.2349 50.3891 57.2349 34.8085 57.2349C30.4265 57.2349 26.0444 57.2349 21.6624 55.32C20.6886 53.8837 20.2017 52.4475 20.2017 50.5325C20.2017 36.1702 20.2017 21.808 20.2017 7.44569C19.7148 6.4882 20.2017 6.00947 20.6886 4.57324ZM28.4789 50.0538C34.8085 50.0538 40.6513 50.5325 46.494 50.5325C60.6139 50.0538 74.247 50.5325 88.3669 50.0538C89.8276 50.0538 91.2883 50.5325 92.749 49.5751C93.7228 49.0963 94.2097 48.1388 94.2097 47.1813C94.2097 40.0002 96.1573 32.8191 95.1835 25.6379C95.1835 21.3292 95.1835 17.4993 94.6966 13.1906C94.6966 12.2331 94.6966 10.7969 93.7228 9.8394C93.2359 9.8394 92.749 9.36067 92.749 9.36067C74.7339 9.36067 57.2057 9.36066 39.1906 9.8394C34.8085 9.8394 30.4265 10.3182 26.0444 10.7969C25.5575 20.3718 26.5313 45.2664 28.4789 50.0538ZM24.5837 8.88193C36.2692 9.36067 47.9547 8.40317 59.6402 7.44569C59.6402 5.05198 57.6926 5.05198 56.7188 5.05198C47.4678 5.05198 38.2168 5.05198 28.4789 5.05198C26.0444 5.05198 24.0968 5.05198 22.1493 6.96695C22.1493 22.7655 22.1493 37.6065 22.1493 52.4475C23.6099 54.8412 25.5575 54.3625 27.0182 54.3625C35.2954 54.8412 43.5726 54.8412 51.8498 55.32C64.996 56.2774 78.1421 55.7987 90.8014 55.7987C93.7228 55.7987 96.6441 55.32 99.0786 52.4475C98.1048 36.649 100.052 20.8505 97.6179 4.57324C85.4456 2.65827 73.2732 4.09449 61.1008 5.05198C60.6139 5.05198 60.6139 6.00948 60.127 6.48822C61.5877 7.92445 63.5353 7.44569 64.996 7.44569C72.7863 7.44569 80.5766 7.44569 88.3669 7.44569C91.2883 7.44569 93.7228 7.92444 96.1573 9.36067C96.1573 22.2867 96.1573 35.2128 96.1573 47.6601C95.1835 49.5751 93.7228 51.0113 91.7752 51.9688C69.8649 51.9688 48.4416 51.9688 26.5313 51.9688C24.5837 46.7026 23.6099 32.3403 24.5837 8.88193Z" fill="#F8FAA5"/>
<path d="M2.45069 89.9706C1.96712 87.5847 1.48356 86.1532 1 84.7216C1 79.4727 4.8685 77.0869 7.28632 74.2239C11.6384 68.4978 16.474 63.2489 21.7932 58C34.3658 59.9087 46.9385 58.4772 59.0276 59.4315C71.1166 60.3859 83.6893 59.4315 96.2619 59.9087C98.1962 60.863 99.1633 61.8174 100.13 63.2489C103.999 70.4065 109.318 76.6097 114.637 82.3358C115.121 84.7216 115.121 87.1075 114.637 89.4934C113.67 89.9705 113.187 90.4477 112.22 90.4477C107.384 90.9249 102.065 91.4021 97.229 91.8792C90.4592 92.3564 83.6893 93.3108 76.4358 93.7879C74.9851 93.7879 73.5344 94.2651 72.5673 93.7879C62.4125 92.3564 52.2577 93.3108 42.1029 92.8336C36.3001 92.8336 30.4974 93.3108 24.6946 92.8336C16.9576 91.8792 9.70413 91.8793 2.45069 89.9706ZM3.41781 81.8586C4.8685 82.813 6.31919 83.2901 8.25344 83.7673C15.5069 84.2445 22.2768 84.7216 29.5302 84.7216C55.6426 84.7216 81.2715 84.7216 107.384 84.7216C108.835 84.7216 110.769 85.1988 112.703 83.2901C110.769 78.9956 106.9 76.6097 104.482 72.7923C102.065 68.975 99.6469 65.1576 96.2619 61.3402C86.5907 61.8174 76.9194 61.3402 66.7646 60.3859C58.0604 59.9087 49.8399 60.3859 41.1357 60.3859C36.7837 60.3859 32.4316 60.863 28.0795 59.4315C24.211 58.4772 20.8261 59.9087 18.4083 62.7717C14.5398 67.5434 10.1877 72.3152 5.83563 77.0869C4.8685 78.9956 3.90138 79.9499 3.41781 81.8586ZM111.736 86.6303C109.318 86.6303 106.9 86.6303 104.482 86.6303C73.5344 86.6303 42.1029 87.1075 11.1548 85.676C8.73702 85.676 6.80276 85.1988 4.38494 84.7216C3.90138 84.7216 3.90138 84.7217 3.41781 85.1988C2.93425 85.676 2.93426 86.6304 2.93426 87.5847C4.38495 89.0162 5.83564 89.4934 7.76989 89.4934C15.9905 89.9705 23.7275 90.9249 31.948 90.9249C38.7179 90.4477 45.9714 90.9249 52.7412 90.9249C54.6755 90.9249 57.0933 91.4021 59.0276 91.4021C66.281 91.8792 73.5345 92.3564 80.3043 91.4021C87.5578 90.4477 94.8112 89.4934 102.065 89.4934C105.933 89.0162 108.835 88.539 111.736 86.6303Z" fill="#F8FAA5"/>
<path d="M1 0.828412C1 1.41419 0.707104 2 0.414211 2C0.121317 2 -0.171572 0.828412 0.121321 0.828412C0.121321 0.242631 0.707106 0.24264 1 0.24264C1 -0.34314 1 0.242631 1 0.828412Z" fill="#F8FAA5"/>
<path d="M115 37.8C115 37.2667 115.481 37.2667 116.444 37C116.926 37.2667 117.407 37.5333 116.444 37.8C115.963 38.0667 115.481 38.0667 115 37.8Z" fill="#F8FAA5"/>
<path d="M67.7987 63.8421C68.2767 65.2632 68.7547 65.7369 68.2767 66.6842C67.7987 67.1579 66.8428 67.1579 65.8868 67.1579C64.4528 67.1579 65.4088 64.7895 63.9748 64.3158C61.1069 65.2632 60.6289 69.0526 56.805 70C57.761 68.1053 58.239 66.2105 58.717 64.7895C58.239 63.3684 54.8931 64.3158 52.9811 66.2105C52.5031 65.7369 52.5031 64.7895 51.5472 64.3158C42.9434 64.3158 33.8616 64.3158 25.2579 64.3158C25.2579 65.2632 25.7358 65.7369 25.7358 66.2105C24.3019 66.6842 22.8679 66.6842 20 66.2105C23.3459 66.2105 23.8239 64.3158 24.7799 62.4211C34.3396 62.4211 43.8994 61.4737 52.9811 62.4211C65.4088 63.8421 78.3145 62.4211 90.7421 63.3684C92.1761 63.3684 94.088 62.8947 96 64.7895C90.7421 66.2105 86.4403 64.7895 82.1384 64.7895C77.3585 63.3684 73.0566 63.8421 67.7987 63.8421Z" fill="#F8FAA5"/>
<path d="M42 82.1053C42 79.2631 43.4545 78.3158 43.9394 76.4211C52.6667 75.4737 61.3939 76.4211 70.1212 76.4211C72.5455 77.8421 73.0303 80.6842 74 82.1053C73.0303 84 71.0909 84 69.6364 84C60.4243 84 51.2121 83.0526 42 82.1053ZM70.6061 81.6316C70.6061 78.7895 69.1515 78.3158 67.2121 78.3158C62.8485 78.3158 58.4848 78.7895 54.6061 77.8421C51.697 77.3684 48.7879 78.3158 46.3636 78.3158C44.9091 78.3158 43.9394 79.2632 44.9091 81.6316C53.1515 81.1579 61.8788 81.6316 70.6061 81.6316Z" fill="#F8FAA5"/>
<path d="M38 72C49 72 59.5 72 70 72C70 74.25 69 75 68 75C63.5 75 59 75 54.5 74.25C49.5 72.75 44.5 73.5 40 75C39 74.25 38.5 75 38 72Z" fill="#F8FAA5"/>
<path d="M36 67.8821C33.2 70.706 31.3333 69.294 29 70C30.8667 66.4702 30.8667 66.4702 36 67.8821Z" fill="#F8FAA5"/>
<path d="M27 72.3156C23.5 72.6844 20.5 73.422 17 72.6844C20.5 72.3156 23.5 71.578 27 72.3156Z" fill="#F8FAA5"/>
<path d="M46.7084 65C47.139 66.1765 47.5695 67.353 48 69.1177C46.7084 70.2941 45.4169 70.2941 44.1253 69.1177C43.2642 66.7647 47.139 67.9412 46.7084 65Z" fill="#F8FAA5"/>
<path d="M42 67.2404C41.4 68.2019 40.2 67.9615 39.6 67.9615C38.4 67.9615 37.2 68.2019 36 67.4808C37.8 66.7596 39.6 67 42 67.2404Z" fill="#F8FAA5"/>
<path d="M27 68C24.6667 68 22.3333 68 20 68C20 67.0814 20.9333 67.3876 21.8667 67.3876C22.8 67.3876 24.2 67.3876 25.1333 67.0814C26.5333 66.7753 26.5333 67.3876 27 68Z" fill="#F8FAA5"/>
<path d="M88 72.3C86.0633 74.325 84.1266 72.975 82.1899 75C81.7058 72.975 82.1899 72.3 83.1583 72.3C84.6108 71.625 86.0633 72.3 88 72.3Z" fill="#F8FAA5"/>
<path d="M73 72.4928C74.0909 71.8979 75.5455 71.8979 77 72.1954C75.9091 73.9799 74.4545 72.1954 73 72.4928Z" fill="#F8FAA5"/>
<path d="M82 68C83.0918 67 83.0918 65 84.7294 65C85.2753 68 85.2753 68 82 68Z" fill="#F8FAA5"/>
<path d="M97 72.3445C94.1765 73.3933 92.2941 72.8689 89 72.8689C92.2941 71.82 94.6471 71.82 97 72.3445Z" fill="#F8FAA5"/>
<path d="M35 72.7163C32.8571 73.0946 30.7143 73.0946 29 72.7163C30.7143 71.9597 32.4286 71.5814 35 72.7163Z" fill="#F8FAA5"/>
<path d="M70 66.5946C70.5 63.6757 71.5 63.6757 73 64.4054C72 67.3243 72 67.3243 70 66.5946Z" fill="#F8FAA5"/>
<path d="M50 69.2751C51 66.3754 52 66.3754 53 68.5502C53 70 52.5 70 52 70C51 69.2751 50.5 69.2751 50 69.2751Z" fill="#F8FAA5"/>
<path d="M97.5 68C98.25 68 99 68 99 69C99 69.5 98.25 70 97.5 70C96.75 70 96 69.5 96 69C96 68.5 96 68 97.5 68Z" fill="#F8FAA5"/>
<path d="M29 64.5C30 63.8333 31 63.8333 32 64.5C31 65.1667 30 65.1667 29 64.5Z" fill="#F8FAA5"/>
<path d="M93.02 68C93.02 66.571 92.775 64.4274 94 65.1419C93.755 66.571 93.51 67.2855 93.02 68Z" fill="#F8FAA5"/>
<path d="M62 69.4346C63.2 67.7029 63.8 67.7029 65 68.5687C64.4 71.1662 63.2 69.4346 62 69.4346Z" fill="#F8FAA5"/>
<path d="M67 69.3333C68.2 67.5556 69.4 67.5556 70 69.3333C68.8 70.2222 67.6 70.2222 67 69.3333Z" fill="#F8FAA5"/>
<path d="M75.3069 65C76.231 65.6111 76.231 66.2223 75.3069 66.8334C74.3828 67.4446 73.4587 66.2223 74.3828 65.6112C74.3828 65 74.3828 65 75.3069 65Z" fill="#F8FAA5"/>
<path d="M100 72.7161C100.667 71.8517 101.333 71.8517 102 72.2839C101.333 73.1483 100.667 73.1483 100 72.7161Z" fill="#F8FAA5"/>
<path d="M93 68C93 69 93 69.5 91.7929 70C90.5858 69 90.5858 68.5 93 68Z" fill="#F8FAA5"/>
<path d="M86.8571 70C85.7143 69.3333 85.7143 68.6667 86.8571 68H88C88 68.6667 88 69.3333 86.8571 70Z" fill="#F8FAA5"/>
<path d="M77 69.1428C77.6667 68 78.3333 68 79 68V69.1428C78.3333 70.2857 77.6667 70.2857 77 69.1428Z" fill="#F8FAA5"/>
<path d="M73 68.6667C73.25 67.7778 73.5 67.7778 74 68.6667C73.5 70.4444 73.25 70.4444 73 68.6667Z" fill="#F8FAA5"/>
<path d="M88 66.1428C88 65 88.3333 65 88.6667 65L89 66.1428C88.6667 67.2857 88.3333 67.2857 88 66.1428Z" fill="#F8FAA5"/>
</svg>
