<svg width="171" height="114" viewBox="0 0 171 114" fill="none" xmlns="http://www.w3.org/2000/svg">
<g clip-path="url(#clip0)">
<path fill-rule="evenodd" clip-rule="evenodd" d="M167.436 44.7523C167.44 44.7564 167.451 44.7679 167.463 44.779L167.463 44.7698L167.436 44.7523Z" fill="#D82734"/>
<path fill-rule="evenodd" clip-rule="evenodd" d="M139.477 80.6835L139.157 80.4952C139.104 80.1864 139.3 79.9552 139.691 79.8909L139.965 80.1686C139.913 80.511 139.585 80.6414 139.477 80.6835ZM137.291 81.283C137.231 81.4036 137.147 81.4821 137.039 81.5158C136.957 81.5409 136.881 81.5347 136.82 81.5296C136.741 81.5228 136.68 81.5245 136.595 81.5708L136.246 81.4322L136.093 80.9202L136.244 80.6196L136.244 80.6188C136.577 80.5159 136.997 80.5193 137.287 81.0595L137.291 81.283ZM107.726 10.6116L107.62 10.7158L107.534 10.7506C107.344 10.8091 107.202 10.7427 107.117 10.6954L106.98 10.7938C106.886 10.7932 106.69 10.7928 106.63 10.6023C106.578 10.4177 106.733 10.3137 106.785 10.2801C106.8 10.2692 106.833 10.2489 106.84 10.239C106.818 10.2644 106.809 10.313 106.818 10.3541C106.829 10.338 106.839 10.3227 106.854 10.3076L106.892 9.99368C107.19 9.8617 107.52 9.91268 107.686 10.1167C107.8 10.2569 107.814 10.4424 107.726 10.6116ZM97.3068 14.0723C97.2784 14.1254 97.2295 14.2376 97.2346 14.2761L96.9908 14.6517C96.8386 14.6183 96.7302 14.5457 96.6736 14.4369C96.5923 14.2736 96.6585 14.1145 96.7073 13.9981C96.7212 13.9615 96.7492 13.8992 96.7485 13.8773L96.8989 13.5342C96.9776 13.5146 97.191 13.4592 97.3211 13.6165C97.4435 13.7687 97.3628 13.9441 97.3068 14.0723ZM16.2919 103.637C16.2769 103.758 16.1593 104.233 15.8626 104.325C15.7811 104.35 15.5054 104.395 15.3562 103.94L15.6011 103.587C15.6607 103.51 15.8046 103.367 16.0515 103.363L16.2919 103.637ZM19.0801 108.738L19.3542 108.625C19.4354 108.648 19.4736 108.659 19.5345 108.64L19.8427 108.779C19.9246 108.992 20.0034 109.237 19.9045 109.446C19.8654 109.527 19.7834 109.634 19.6115 109.688C19.5812 109.697 19.5475 109.705 19.5092 109.711L19.3667 109.688C19.2241 109.617 19.1077 109.463 19.0487 109.267C18.9893 109.071 19.0015 108.878 19.0801 108.738ZM14.3021 102.532C14.1814 102.462 14.0957 102.343 14.063 102.197L14.2249 101.91L14.6262 101.786L14.9093 101.908C15.0072 102.104 14.9825 102.252 14.9445 102.343C14.8978 102.456 14.8026 102.542 14.683 102.579C14.5582 102.617 14.4193 102.6 14.3021 102.532ZM13.0293 98.4506C13.1402 98.1744 13.5759 98.0506 13.8377 98.201L13.9528 98.3589C13.989 98.5206 13.9804 98.8159 13.5103 98.9616C13.455 98.9788 13.3951 98.9943 13.3344 99.0091L13.0684 98.8884C12.9666 98.699 12.9907 98.5459 13.0293 98.4506ZM5.80621 72.367C5.95612 72.3541 6.06439 72.4148 6.13605 72.4548C6.15496 72.4661 6.18425 72.4827 6.19447 72.4835C6.21349 72.4763 6.23593 72.4698 6.26477 72.4519L6.62665 72.7001C6.58941 72.91 6.4616 73.0687 6.28407 73.1236C6.03592 73.2005 5.71125 73.0554 5.59763 72.6792L5.80621 72.367ZM24.3041 111.404L24.6376 111.555L24.7299 111.86L24.5716 112.163L24.1717 112.287L23.8693 111.999C23.915 111.782 23.9733 111.506 24.3041 111.404ZM166.807 44.1793L166.991 44.0282L157.489 12.5291C154.686 3.23456 144.96 -2.01913 135.807 0.816971L114.651 7.37426C114.636 7.38015 114.625 7.38744 114.606 7.39231C114.599 7.39564 114.583 7.39502 114.576 7.39758L75.398 19.5385L75.3982 19.5458C75.3629 19.6176 75.2982 19.7096 75.168 19.7694C75.1951 19.8946 75.1758 19.9916 75.1632 20.0634C75.1569 20.0993 75.1538 20.1193 75.1544 20.1358L74.9706 20.3904C74.7271 20.4491 74.4956 20.3111 74.4305 20.0694C74.4088 19.9892 74.4137 19.912 74.4338 19.838L73.0061 20.2802C73.0216 20.29 73.037 20.2995 73.0526 20.3124C73.1073 20.3641 73.1513 20.4351 73.1769 20.5186C73.2495 20.7596 73.1518 20.9893 72.9462 21.0529C72.8752 21.0749 72.7959 21.0746 72.7119 21.0515L72.5476 20.8888L72.4875 20.6838L72.6922 20.3779L72.6474 20.3921C72.6288 20.4016 72.6178 20.4115 72.6032 20.4255L72.6137 20.4017L44.3785 29.1523C44.4256 29.2028 44.4658 29.2732 44.4921 29.3777L44.3284 29.6638L44.0294 29.7571L43.7291 29.5961L43.6691 29.3923L43.6759 29.3698L13.6729 38.6685C13.6584 38.6743 13.6455 38.6817 13.6298 38.6865C13.6197 38.6895 13.6076 38.6892 13.5975 38.6918L12.7547 38.9529C3.60319 41.789 -1.56161 51.6582 1.24152 60.9524L3.87927 69.6973C4.16087 69.5935 4.38063 69.6771 4.51445 69.7445C4.62016 69.7968 4.66003 69.8135 4.73589 69.7897L5.06142 69.992C5.07953 70.1755 5.02783 70.3176 4.98726 70.4322C4.94872 70.5402 4.92893 70.6011 4.94229 70.6808L4.8375 70.9253C4.68942 71.0229 4.57737 71.0813 4.4746 71.1133C4.41742 71.131 4.36554 71.1382 4.31467 71.1419L10.8758 92.8952L11.1222 92.6385C11.2077 92.6635 11.2443 92.6722 11.3014 92.6545L11.6293 92.8709C11.642 93.2006 11.4729 93.3028 11.3709 93.3344C11.2446 93.3737 11.1189 93.3351 11.0347 93.3028L10.9813 93.2448L13.5165 101.65C14.9281 106.33 18.0964 109.984 22.0617 112.098L22.0789 112.092C22.2698 112.033 22.4051 112.076 22.4846 112.124C22.5872 112.185 22.6591 112.287 22.7029 112.425C23.1651 112.648 23.6382 112.847 24.1183 113.028C24.1592 112.643 24.4678 112.413 25.0507 112.413L25.2904 112.648C25.2955 112.814 25.1986 112.916 25.1468 112.971C25.1267 112.969 25.1384 112.946 25.1329 112.928L25.046 113.35C25.7724 113.577 26.5164 113.753 27.2708 113.883C27.2304 113.786 27.1934 113.68 27.1617 113.552L27.3149 113.263C27.4013 113.24 27.529 113.197 27.6506 113.238L27.821 113.065C27.8186 113.019 27.8132 112.963 27.8091 112.919C27.7902 112.724 27.7585 112.39 27.9641 112.208L27.9 111.995L27.9195 111.958C27.891 111.954 27.8618 111.951 27.8333 111.947L27.8529 112C27.8915 112.109 27.8688 112.195 27.8427 112.248L27.7385 112.337C27.6746 112.562 27.5069 112.8 27.2927 112.866C27.2266 112.887 26.89 112.964 26.7269 112.479L27.0016 112.221C26.9879 112.186 26.9768 112.15 26.9706 112.112C26.8784 112.285 26.7249 112.456 26.4958 112.57L26.3302 112.587C26.0217 112.505 25.7692 112.337 25.5772 112.085C25.5717 112.09 25.5673 112.094 25.5618 112.099C25.5256 112.135 25.4716 112.188 25.3871 112.215C25.2548 112.255 25.1348 112.204 25.0571 112.163L24.9398 112.019L24.8164 111.611L24.9823 111.462L24.7929 111.393C24.7385 111.306 24.7464 111.219 24.7803 111.139C24.2887 110.954 23.808 110.742 23.3382 110.507C23.3624 110.638 23.3168 110.761 23.196 110.872C23.193 110.872 23.2099 110.826 23.1993 110.783L23.005 111.083C22.7143 111.13 22.6154 110.839 22.5825 110.743C22.5742 110.72 22.5669 110.696 22.5567 110.674L22.7021 110.338L22.8916 110.279C22.6579 110.152 22.428 110.019 22.2007 109.88C22.1608 109.94 22.0947 110.004 21.9826 110.039C21.7942 110.097 21.5584 110.039 21.4021 110.001L21.2133 109.862C21.1558 109.74 21.1744 109.645 21.1996 109.587L21.382 109.425C21.4119 109.416 21.4478 109.414 21.4848 109.414C21.0938 109.145 20.714 108.858 20.3478 108.553C20.3151 108.567 20.2827 108.581 20.2461 108.592L20.193 108.608L19.8923 108.381C19.8901 108.307 19.9091 108.247 19.9346 108.197C19.8613 108.131 19.7898 108.064 19.7179 107.997C19.7224 108.018 19.7254 108.037 19.7262 108.049C19.7383 108.278 19.5219 108.485 19.3051 108.552C19.122 108.609 18.9484 108.569 18.8295 108.444L18.7708 108.34C18.6571 107.921 19.0067 107.805 19.1915 107.797C19.1489 107.821 19.0905 107.924 19.1116 108.008L19.3864 107.71C19.4016 107.712 19.4135 107.717 19.4272 107.721C17.6088 105.941 16.1957 103.685 15.4057 101.064L3.13072 60.3671C2.19594 57.268 2.26161 54.0968 3.13821 51.213C3.12298 51.2204 3.10733 51.2267 3.09239 51.2314C2.96902 51.2687 2.85413 51.224 2.76105 51.1874C2.72236 51.1719 2.68137 51.1557 2.65174 51.1509L2.45655 50.9598C2.3979 50.665 2.5958 50.5875 2.63579 50.5754C2.72959 50.546 2.81258 50.575 2.87262 50.5959C2.89329 50.6036 2.92808 50.6154 2.94092 50.6154L3.14645 50.7025L3.07337 50.4596L3.19368 50.1727L3.27671 50.138C3.37388 50.1078 3.45396 50.1184 3.51306 50.134C3.93868 49.0268 4.48662 47.9717 5.14632 46.9901C5.1547 46.9166 5.1681 46.8459 5.18458 46.7767C5.19902 46.7144 5.21464 46.6533 5.21754 46.5849L5.36048 46.3724L5.43019 46.3458C5.50046 46.3242 5.56121 46.3221 5.6173 46.3274C7.49976 43.818 10.1412 41.8606 13.3332 40.8716L25.0369 37.2445C24.9927 37.1033 25.0247 36.9925 25.0443 36.9362L25.2758 36.6336C25.4656 36.6262 25.6035 36.682 25.6827 36.7966C25.7367 36.8714 25.7508 36.9514 25.7458 37.0241L61.6649 25.8929C61.6193 25.8842 61.5736 25.8739 61.5279 25.8628C61.4669 25.8489 61.4059 25.8326 61.3416 25.8302L61.1106 25.597C61.104 25.4082 61.2156 25.2497 61.3987 25.1934C61.5631 25.1421 61.7572 25.1813 61.8895 25.2933C62.0101 25.3923 62.0681 25.5375 62.0508 25.6912L61.9116 25.8168L102.573 13.2148L102.436 13.0777L102.372 12.874L102.581 12.5614C102.528 12.577 102.514 12.591 102.492 12.6143L102.558 12.4559L102.625 12.4279C102.733 12.3934 102.852 12.4211 102.941 12.502C102.996 12.5538 103.04 12.6247 103.066 12.7071C103.104 12.8415 103.09 12.9709 103.037 13.0713L126.014 5.95031C125.971 5.80912 126.001 5.69837 126.022 5.64203L126.253 5.33978C126.441 5.33204 126.579 5.38744 126.659 5.50241C126.714 5.57718 126.729 5.65724 126.724 5.7299L136.388 2.73554C142.144 0.951259 148.154 2.78226 152.05 6.93967L152.17 6.90251L152.446 7.01637C152.53 7.17029 152.516 7.292 152.488 7.36699C152.481 7.38181 152.474 7.39127 152.467 7.40417C153.857 9.0145 154.944 10.938 155.602 13.1143L167.876 53.812C170.359 62.0488 165.783 70.794 157.673 73.3075L140.59 78.6022L140.528 78.7708L140.428 78.8284C140.394 78.8388 140.364 78.8418 140.334 78.8394C140.323 78.9629 140.312 79.0707 140.254 79.1563C140.161 79.3053 140.031 79.3532 139.915 79.396C139.856 79.418 139.788 79.4422 139.707 79.4899C139.663 79.5156 139.641 79.557 139.599 79.6333C139.542 79.7408 139.457 79.9033 139.252 79.973L138.96 79.8462C138.919 79.7625 138.876 79.7011 138.832 79.6401C138.753 79.5305 138.669 79.4088 138.613 79.214L135.541 80.167C135.536 80.2446 135.516 80.3232 135.481 80.3965L135.312 80.5225C135.135 80.5544 134.978 80.4981 134.876 80.3724L134.48 80.4948L134.343 80.704C134.23 80.7091 134.068 80.7147 133.912 80.6711L132.252 81.1862C132.269 81.2213 132.289 81.251 132.301 81.2912L131.937 81.5751C131.906 81.5512 131.879 81.5349 131.864 81.5239C131.854 81.5576 131.844 81.6044 131.834 81.6523L132.036 81.59L132.312 81.7043C132.4 81.8569 132.382 81.9787 132.354 82.0537C132.289 82.229 132.121 82.287 131.998 82.3289L131.744 82.1978C131.723 82.2679 131.695 82.3318 131.656 82.3861L131.597 82.4438C131.498 82.5113 131.416 82.5506 131.294 82.5318C131.295 82.5518 131.292 82.573 131.289 82.5938C131.277 82.6801 131.227 82.7559 131.153 82.8064C131.135 82.8235 131.112 82.8385 131.094 82.8518C131.122 82.8911 131.142 82.9372 131.148 82.9915C131.172 83.1302 131.1 83.2317 131.034 83.3011L131.271 83.1513C131.426 83.2602 131.517 83.3779 131.57 83.4957L131.891 83.3955C131.883 83.3666 131.874 83.337 131.862 83.3064C131.812 83.1781 131.753 83.0183 131.827 82.8626C131.887 82.7317 132.024 82.6582 132.217 82.663L132.448 82.8824C132.453 82.9325 132.455 82.9796 132.456 83.0217C132.464 83.0211 132.467 83.0194 132.475 83.0172L132.665 83.1552L135.539 82.2647C135.347 82.1901 135.296 82.03 135.291 81.8879L135.412 81.6662C135.671 81.5137 135.862 81.5661 135.959 81.6325C136.079 81.7173 136.144 81.8612 136.159 82.0724L137.064 81.7922C137.07 81.7648 137.073 81.7371 137.083 81.7114C137.171 81.5028 137.384 81.4366 137.455 81.415C137.485 81.4051 137.518 81.3966 137.552 81.3878C137.476 81.2662 137.455 81.11 137.445 81.0176L137.639 80.7488C137.951 80.6942 138.163 80.8226 138.333 80.9248C138.425 80.9795 138.503 81.0255 138.583 81.0423L138.754 81.1924C138.795 81.1752 138.836 81.1623 138.87 81.1504L138.958 81.2048L158.25 75.2262C167.403 72.3898 172.57 62.5208 169.763 53.2268L167.191 44.6986C167.047 44.6726 166.776 44.6038 166.807 44.1793Z" fill="#D82734"/>
<path fill-rule="evenodd" clip-rule="evenodd" d="M129.748 78.2541C129.759 78.2457 129.769 78.2154 129.779 78.1709C129.799 78.1047 129.83 78.0027 129.906 77.9161C129.894 77.8938 129.882 77.8728 129.874 77.8543C129.846 77.8069 129.821 77.7637 129.805 77.7167L129.736 77.7064C129.635 77.6306 129.631 77.5187 129.629 77.444L129.627 77.4007L129.43 77.1472C129.432 77.2173 129.442 77.2998 129.453 77.3976C129.49 77.6874 129.533 78.0622 129.319 78.3193C129.424 78.3794 129.536 78.3578 129.592 78.3405C129.648 78.3232 129.7 78.2934 129.748 78.2541Z" fill="#D82734"/>
<path fill-rule="evenodd" clip-rule="evenodd" d="M99.2036 85.2286L99.5283 85.4386L99.5307 85.5083C99.5502 85.7412 99.5843 86.1757 99.1358 86.3153L99.0984 86.3254L98.8175 86.1779C98.7303 85.9539 98.7233 85.7547 98.7968 85.5865C98.8668 85.426 99.0061 85.3053 99.2036 85.2286ZM101.4 86.2534C101.43 86.2355 101.453 86.2508 101.479 86.2442L101.399 85.9908C101.653 85.9121 101.903 86.0437 101.98 86.2965C102.014 86.415 102.004 86.5438 101.947 86.6501C101.89 86.7587 101.791 86.8401 101.668 86.8789L101.591 86.625C101.565 86.6355 101.554 86.6577 101.52 86.6612C101.292 86.5104 101.493 86.5287 101.4 86.2534ZM103.073 85.7006L103.105 85.5365C103.191 85.3908 103.346 85.283 103.563 85.2156L103.619 85.1987L103.883 85.3053C104.071 85.6125 103.962 85.8184 103.901 85.9283C103.887 85.9499 103.869 85.9831 103.869 85.9908L103.67 86.247C103.554 86.2657 103.169 86.2826 103.073 85.7006ZM112.646 80.2965L112.878 79.9935C113.066 79.9862 113.204 80.0408 113.284 80.1546C113.403 80.3253 113.331 80.53 113.303 80.5973L113.149 80.7431L112.947 80.8054L112.667 80.6828C112.574 80.5023 112.626 80.3628 112.646 80.2965ZM114.561 82.8777C114.6 82.8994 114.619 82.9091 114.638 82.9088L114.858 83.038C114.902 83.1239 114.906 83.2209 114.867 83.3116C114.801 83.4784 114.619 83.55 114.544 83.5733C114.364 83.6294 114.19 83.6014 114.08 83.4982C113.983 83.4073 113.948 83.2689 113.98 83.1201L114.001 83.0607C114.047 82.9777 114.119 82.8632 114.249 82.8226C114.388 82.7802 114.496 82.8413 114.561 82.8777ZM116.902 82.6195C117.014 82.3816 117.355 82.2773 117.574 82.4077L117.689 82.6527C117.655 82.8828 117.491 83.0573 117.201 83.1714L116.89 83.0304C116.823 82.8478 116.86 82.7058 116.902 82.6195ZM119.013 78.2868C119.144 78.2458 119.296 78.2731 119.422 78.3025L119.648 78.4918C119.696 78.6979 119.601 78.8747 119.414 78.9326C119.279 78.9741 119.131 78.9467 119.001 78.9174L118.78 78.7307C118.731 78.5238 118.827 78.3451 119.013 78.2868ZM120.261 77.5433L120.532 77.4306C120.613 77.4539 120.651 77.4641 120.714 77.445L121.021 77.5842C121.104 77.7977 121.181 78.0428 121.082 78.2518C121.044 78.3322 120.961 78.4398 120.789 78.4933C120.759 78.5024 120.725 78.5101 120.687 78.5161L120.547 78.4937C120.405 78.422 120.286 78.2689 120.226 78.073C120.166 77.8765 120.179 77.6835 120.261 77.5433ZM120.371 76.602C120.327 76.6262 120.27 76.7299 120.292 76.8131L120.565 76.5151C120.865 76.5718 120.899 76.7888 120.905 76.8546C120.917 77.0835 120.701 77.2905 120.485 77.3575C120.301 77.4145 120.126 77.375 120.009 77.2495L119.948 77.1457C119.835 76.7262 120.186 76.6108 120.371 76.602ZM121.215 76.8625C121.23 76.8406 121.224 76.886 121.228 76.9039L121.398 76.4649C121.659 76.4769 121.838 76.6264 121.911 76.8843L121.884 77.0778C121.798 77.223 121.643 77.3305 121.423 77.398L121.37 77.4136L121.072 77.1863C121.066 77.0196 121.164 76.9172 121.215 76.8625ZM122.563 78.2308C122.634 78.2084 122.732 78.2138 122.827 78.2396C122.874 78.1632 122.943 78.0909 123.063 78.0534L123.145 78.0348L123.334 78.1509C123.365 78.0704 123.42 78.003 123.494 77.9543L123.493 77.9517L123.653 77.6508L123.952 77.5579L124.257 77.7581C124.267 77.8219 124.279 77.8448 124.279 77.8456C124.271 77.8278 124.233 77.8096 124.214 77.8118L124.555 78.0646C124.525 78.2942 124.277 78.4179 124.075 78.3908C124.014 78.4624 123.917 78.5187 123.79 78.5584L123.637 78.3801L123.697 78.5859C123.678 78.5923 123.656 78.5988 123.637 78.6064L123.448 78.5029C123.443 78.5533 123.425 78.5996 123.404 78.6429C123.373 78.7107 123.3 78.8011 123.162 78.8443C122.971 78.9027 122.739 78.8448 122.583 78.8062L122.393 78.6675C122.336 78.5456 122.351 78.4507 122.379 78.3925L122.563 78.2308ZM124.184 79.8886C123.891 79.9353 123.794 79.6449 123.761 79.549C123.752 79.5255 123.744 79.5013 123.736 79.4797L123.879 79.1433L124.185 79.0494L124.461 79.1579C124.57 79.3489 124.542 79.524 124.373 79.678C124.37 79.6781 124.387 79.6311 124.378 79.5885L124.184 79.8886ZM90.0423 87.0574L90.2591 86.7771C90.3571 86.7702 90.4301 86.8041 90.4723 86.8222L90.7445 87.0452C90.7516 87.1416 90.7201 87.2125 90.7027 87.2545L90.4859 87.5367C90.3917 87.5431 90.3188 87.5122 90.2766 87.493L89.9969 87.2738C89.9897 87.1743 90.0248 87.0975 90.0423 87.0574ZM90.2256 89.8187C90.1675 89.9941 89.9918 90.0482 89.9358 90.0655C89.8984 90.0768 89.8572 90.0866 89.8197 90.0964L89.7336 90.1182L89.3774 89.9787L89.3173 89.7729L89.4768 89.4701L89.8766 89.3453L90.1443 89.4376C90.2359 89.5721 90.263 89.7004 90.2256 89.8187ZM76.2967 91.4312L76.5135 91.1494C76.6115 91.1429 76.6806 91.1735 76.7228 91.1923L77.0026 91.4146C77.0098 91.5118 76.9783 91.5839 76.9608 91.6259L76.7403 91.9078C76.646 91.9146 76.5732 91.8841 76.5348 91.8651L76.251 91.6361C76.2477 91.5419 76.2793 91.4725 76.2967 91.4312ZM40.1303 104.458C40.3319 104.497 40.7046 104.569 40.7754 105.081L40.5281 105.357C40.1157 105.337 39.9358 104.946 39.8664 104.798L40.1303 104.458ZM53.5089 98.2323C53.5033 98.0717 53.6118 97.9314 53.7837 97.8782C53.9294 97.8329 54.1264 97.8482 54.2332 97.9864C54.312 98.0784 54.3389 98.2006 54.3051 98.3149C54.268 98.4401 54.1657 98.5411 54.0237 98.5848C53.8891 98.6263 53.7562 98.6072 53.6555 98.5336C53.5624 98.464 53.5095 98.3573 53.5089 98.2323ZM58.6017 99.8659C58.7462 99.6772 58.9275 99.568 59.228 99.5173L59.4822 99.6568C59.5765 99.871 59.5877 100.083 59.5106 100.255C59.451 100.388 59.3449 100.485 59.2141 100.525C58.9824 100.597 58.6832 100.47 58.5641 100.087L58.6017 99.8659ZM60.4071 100.073C60.4166 100.018 60.4165 100.015 60.408 99.9908L60.5105 99.6792C61.0662 99.3649 61.2648 99.8592 61.3628 100.071L61.3594 100.297C61.2848 100.433 61.1525 100.539 60.9993 100.586C60.8423 100.634 60.6756 100.621 60.5409 100.549L60.4269 100.422C60.3649 100.269 60.391 100.151 60.4071 100.073ZM59.9207 96.2037L60.0391 95.9173L60.1248 95.8821C60.2631 95.8393 60.3664 95.8783 60.4238 95.8981L60.7188 96.1241C60.7259 96.2209 60.6982 96.2917 60.677 96.335L60.5128 96.6088L60.311 96.6711L60.0145 96.51L59.9207 96.2037ZM61.7793 97.7183L61.8429 97.6996L62.0872 97.9875C62.0793 97.9771 62.0751 97.965 62.0634 97.9569C62.1181 98.0087 62.2041 98.0901 62.256 98.2781L62.1224 98.5647C62.0778 98.5847 62.0331 98.6012 61.9919 98.6141C61.8088 98.6708 61.6536 98.6605 61.5262 98.5832C61.4065 98.5088 61.3265 98.3808 61.2976 98.2042L61.3294 98.0305C61.4188 97.8882 61.5701 97.7835 61.7793 97.7183ZM29.6675 107.422L29.8363 107.171L30.1352 107.078L30.4355 107.239L30.5893 107.749L30.3661 108.063C29.9357 108.07 29.6977 107.855 29.6675 107.422ZM94.8422 84.5256C94.8011 84.5377 94.7562 84.5493 94.7036 84.5588L94.6211 84.4685L94.4119 84.5341C94.416 84.5443 94.4201 84.553 94.4243 84.5643L94.2328 84.9239C94.1984 85.0198 94.1403 85.1944 93.9273 85.261C93.8862 85.2739 93.8411 85.2808 93.7921 85.2845L93.5687 85.1622C93.3217 85.2276 93.1496 85.1673 93.0104 84.9677L66.2178 93.271C66.2574 93.3237 66.286 93.3875 66.3042 93.4751L66.1363 93.7502L66.0093 93.7934C65.9608 93.8104 65.9161 93.8265 65.8712 93.8404C65.7927 93.8654 65.576 93.9328 65.4052 93.8014C65.3315 93.7472 65.2872 93.6671 65.261 93.5683L53.4811 97.2184L53.6216 97.3488C53.663 97.4525 53.6595 97.5684 53.6104 97.6753C53.5473 97.8159 53.4004 97.9365 53.2322 97.9888C53.064 98.0403 52.9045 98.0163 52.7879 97.9222C52.7062 97.8545 52.6109 97.7224 52.629 97.4828L44.5527 99.9853C44.4729 100.08 44.3735 100.155 44.2576 100.19C44.1455 100.225 44.032 100.219 43.9323 100.178L41.3685 100.972L41.2565 101.118C41.1623 101.124 41.0895 101.094 41.0473 101.076L41.0434 101.073L39.3729 101.591L39.3283 101.613C39.3021 101.622 39.2722 101.629 39.2459 101.633C39.2577 101.647 39.2658 101.662 39.2739 101.677C39.2851 101.675 39.2964 101.673 39.3076 101.67L39.5411 101.757C39.6913 101.948 39.6034 102.135 39.5718 102.204C39.5718 102.204 39.5704 102.165 39.554 102.127L39.5707 102.281L39.8022 102.204C39.8402 102.318 39.825 102.423 39.8129 102.508C39.7938 102.612 39.7849 102.681 39.8606 102.793L39.7149 103.165C39.6923 103.167 39.6888 103.176 39.656 103.21C39.6049 103.261 39.532 103.337 39.4012 103.378L39.33 103.394L39.1358 103.241C39.1245 103.242 39.1057 103.245 39.0757 103.251L38.806 103.099C38.7021 102.83 38.8357 102.653 38.9079 102.557C38.9223 102.536 38.9438 102.504 38.9472 102.492C38.916 102.355 38.8565 102.274 38.7601 102.219C38.5943 102.122 38.3224 102.125 38.122 102.228C38.293 102.581 38.2507 103.102 38.0978 103.374L38.0177 103.459C37.8107 103.591 37.6324 103.568 37.4983 103.407C37.4803 103.432 37.4622 103.456 37.4404 103.48C37.35 103.596 37.2922 103.672 37.284 103.762L37.0461 103.981C36.7589 103.979 36.4785 103.845 36.2969 103.622C36.1943 103.497 36.1288 103.352 36.1007 103.196L35.9763 103.311C35.7689 103.322 35.6016 103.182 35.5637 102.964C35.554 102.902 35.5554 102.835 35.572 102.769L34.5405 103.088C34.5635 103.096 34.59 103.099 34.6131 103.11C34.6617 103.098 34.7141 103.083 34.7968 103.07L35.0646 103.275C35.1386 103.771 34.9673 104.166 34.5681 104.418L34.2119 104.279C34.1431 104.039 34.0998 103.989 34.0329 103.914C33.9582 103.829 33.8638 103.723 33.7449 103.455L33.8118 103.314L32.4626 103.732C32.3841 103.757 32.3055 103.777 32.2269 103.799C32.1096 104.009 31.9609 104.188 31.753 104.291L31.6785 104.321C31.5178 104.37 31.384 104.325 31.296 104.295C31.2693 104.287 31.2349 104.275 31.2235 104.274L30.8521 104.239C30.8489 104.258 30.8459 104.277 30.8427 104.296L31.096 104.516L31.0717 104.579C31.006 104.751 30.9226 104.96 30.7317 105.118L30.7591 105.148C30.7525 105.174 30.7498 105.205 30.7471 105.234C30.7374 105.39 30.6782 105.751 30.2253 105.764L30.0862 105.674C30.1029 105.721 30.1124 105.776 30.1147 105.842L29.878 106.093L29.7962 106.131C29.7528 106.187 29.6805 106.282 29.5348 106.327C29.5049 106.336 29.4711 106.343 29.4335 106.348L29.2889 106.319C28.9845 106.146 28.9859 105.863 28.9869 105.676C28.9899 105.543 28.9896 105.427 28.9212 105.309L29.0562 104.956C29.0824 104.948 29.1049 104.944 29.1275 104.942C29.085 104.806 29.0487 104.632 29.0888 104.48C28.9444 104.456 28.7229 104.389 28.6556 104.085L28.7809 103.887C27.7542 103.661 26.7881 103.216 25.949 102.585C25.9557 102.614 25.9638 102.641 25.9656 102.672C25.9807 102.919 25.8122 103.244 25.548 103.283L25.6568 103.295C25.7378 103.34 25.8511 103.415 25.8902 103.55C25.9 103.584 25.9038 103.617 25.9033 103.647L25.9265 103.639C25.9499 103.671 25.9612 103.68 25.9923 103.705C26.023 103.73 26.0595 103.76 26.1074 103.809C26.2242 103.768 26.3706 103.753 26.4953 103.788L26.7221 103.466C26.9441 103.484 27.1188 103.575 27.2727 103.656C27.4697 103.758 27.6109 103.832 27.8314 103.774L28.1232 103.952C28.2306 104.398 28.3819 104.792 28.5997 105.187L28.2807 105.519C28.1656 105.457 28.0776 105.479 27.9183 105.528C27.746 105.58 27.5102 105.652 27.2608 105.479L27.1612 105.232C27.1928 105.066 27.1674 105.001 27.1592 104.993C27.1499 104.985 27.0747 104.962 26.9061 105.014L26.7452 104.876L26.7836 105C26.7844 105.045 26.7764 105.086 26.7656 105.124C27.0382 105.119 27.1617 105.39 27.2179 105.515C27.2379 105.558 27.267 105.623 27.2842 105.64L27.189 105.823L27.423 106.046L27.369 106.003L27.4179 106.051L27.3269 105.976L27.4074 106.062C27.3331 106.143 27.3256 106.189 27.3285 106.195C27.3396 106.232 27.4608 106.336 27.7474 106.4L27.9324 106.602C27.957 106.775 27.8707 106.88 27.7736 106.944C27.9097 107.142 27.9981 107.183 28.1561 107.134L28.1592 107.135L28.1457 107.116C28.1285 106.916 28.2505 106.774 28.5087 106.693L28.6554 106.892L28.5872 106.67C28.6096 106.662 28.6358 106.655 28.6544 106.646L28.9354 106.795C29.0561 106.79 29.1675 106.842 29.239 106.944C29.3976 107.16 29.3431 107.544 29.283 107.662L29.2141 107.744L29.1176 107.796C28.9457 107.849 28.8059 107.74 28.7206 107.676L28.7241 107.669L28.6098 107.749C28.5749 107.724 28.5209 107.691 28.4778 107.648C28.4387 107.718 28.3913 107.766 28.362 107.792C28.3605 107.792 28.36 107.758 28.3516 107.733L28.3151 107.845C28.3533 107.837 28.3896 107.828 28.4196 107.82C28.487 107.803 28.5544 107.787 28.6182 107.775L28.7664 108.231C28.6995 108.264 28.6635 108.314 28.6476 108.399C28.6549 108.391 28.6659 108.382 28.6731 108.372C28.7891 108.231 28.9232 108.071 29.1381 107.95L29.4927 108.152C29.4945 108.201 29.5027 108.219 29.5027 108.219C29.498 108.196 29.5881 108.177 29.6406 108.167C29.7681 108.14 29.9144 108.11 30.052 108.155L30.2065 108.469C30.1997 108.493 30.1939 108.542 30.1917 108.587C30.1867 108.661 30.1792 108.77 30.1337 108.875C30.1647 108.897 30.1839 108.904 30.1954 108.908L30.3703 109.159C30.3748 109.177 30.376 109.211 30.3897 109.28C30.3981 109.306 30.3982 109.309 30.46 109.348C30.5527 109.404 30.7033 109.499 30.7495 109.74L30.6955 109.816C30.9219 109.81 31.1444 109.798 31.3704 109.779L31.3874 109.725L31.5097 109.658C31.6405 109.617 31.748 109.665 31.8297 109.732C32.5972 109.642 33.3661 109.484 34.1285 109.248L35.9336 108.688C35.9435 108.646 35.9534 108.606 35.9709 108.567C35.9847 108.528 36.0061 108.492 36.0276 108.46C35.8356 108.479 35.7104 108.354 35.6387 108.248C35.6093 108.271 35.5798 108.292 35.5503 108.313C35.4913 108.355 35.4066 108.416 35.4076 108.445L34.9785 108.6C35.0141 108.644 35.0676 108.662 35.0939 108.659C34.9778 108.687 34.8692 108.715 34.7543 108.67C34.6702 108.64 34.6265 108.58 34.6017 108.518L34.4114 108.478C34.3372 108.41 34.3037 108.315 34.3193 108.22C34.3257 108.188 34.3361 108.16 34.3503 108.136C34.3115 108.104 34.2723 108.065 34.244 108.013C34.1556 107.861 34.1919 107.71 34.2083 107.637C34.2084 107.64 34.2144 107.704 34.2617 107.76C34.309 107.816 34.366 107.828 34.3849 107.828L34.22 107.539L34.1272 107.912L33.6264 108.068L33.3467 107.955C33.2176 107.718 33.1876 107.509 33.2569 107.33C33.3472 107.103 33.5914 106.958 33.9672 106.901L34.2173 107.031C34.2001 106.97 34.1678 106.911 34.1282 106.859L34.3071 106.465C34.4392 106.461 34.5355 106.515 34.601 106.552L34.9157 106.801C34.9167 106.828 34.9176 106.854 34.9146 106.876C34.9885 106.829 35.0585 106.778 35.1285 106.728C35.4715 106.488 35.8724 106.287 36.3457 106.424L36.4613 106.815C36.4684 106.803 36.4715 106.782 36.4669 106.759C36.4547 106.734 36.4462 106.706 36.4414 106.677C36.4375 106.675 36.4374 106.672 36.4336 106.671C36.4374 106.672 36.4375 106.674 36.4413 106.675C36.4278 106.612 36.4291 106.542 36.4493 106.471L36.5724 106.318L36.6543 106.283C36.7926 106.24 36.8959 106.278 36.9533 106.298L37.2222 106.427C37.2383 106.455 37.2507 106.486 37.2555 106.517C37.2722 106.453 37.2785 106.418 37.2577 106.361L37.3685 106.073C37.6873 105.899 37.8957 106.133 37.9592 106.222C37.9791 106.251 37.9372 106.241 37.9186 106.247L38.3079 106.363L38.4618 106.873L38.1511 107.172C38.0834 107.18 38.043 107.213 38.0063 107.244C37.9436 107.289 37.8773 107.339 37.7914 107.365C37.5597 107.438 37.366 107.299 37.2179 106.954L37.379 106.7L37.265 106.573C37.2667 106.619 37.257 106.668 37.2397 106.713C37.1495 106.943 36.7674 107.034 36.5695 106.883C36.5739 106.903 36.5747 106.926 36.5718 106.95C36.5582 107.102 36.4324 107.178 36.3918 107.203L36.2762 107.247C36.3534 107.403 36.3767 107.529 36.3692 107.638C36.4393 107.591 36.5177 107.564 36.5849 107.541L36.9554 107.765C36.9429 107.95 36.8754 108.071 36.7838 108.152L36.8601 108.173C36.88 108.203 36.9317 108.277 36.9614 108.37L75.063 96.5617C75.0475 96.5504 75.032 96.539 75.0203 96.5291C74.9971 96.5126 74.966 96.488 74.9545 96.4838L74.7438 96.0758C74.7585 96.0645 74.772 96.018 74.7822 95.9843C74.83 95.8396 74.9377 95.5704 75.307 95.5437L75.4287 95.5659C75.5747 95.6368 75.6934 95.7906 75.7494 95.9874C75.7877 96.1111 75.7957 96.2316 75.7768 96.3404L90.0458 91.9188L89.8316 91.8434C89.7757 91.649 89.7175 91.1727 90.3902 90.9636C90.4538 90.9445 90.5212 90.9272 90.5924 90.9121L90.8791 91.1161C90.8894 91.194 90.921 91.2327 90.9683 91.2913C91.0196 91.3536 91.0985 91.4502 91.1072 91.5887L94.9005 90.4134C94.8314 90.2735 94.8426 90.1599 94.8703 90.0892C94.9322 89.9156 95.1002 89.8571 95.2234 89.8141L95.5974 90.0319C95.5958 90.0949 95.5828 90.1536 95.5657 90.2072L118.117 83.2188C118.12 83.2145 118.124 83.2097 118.124 83.2059L118.203 83.0858L118.452 82.9773C118.513 82.989 118.567 83.0194 118.617 83.064L123.076 81.6817C123.041 81.5422 123.071 81.4337 123.091 81.3701L123.189 80.9218L123.256 80.8979C123.447 80.8387 123.584 80.8819 123.662 80.9298C123.785 81.0011 123.865 81.1287 123.905 81.3075L123.767 81.4669L125.258 81.0052L125.047 80.8047C125.093 80.5876 125.151 80.3117 125.484 80.2092L125.818 80.3605L125.908 80.6657L125.823 80.8306L126.096 80.7462L125.993 80.4161L126.162 80.2676L125.971 80.1987C125.907 80.0924 125.929 79.9857 125.983 79.8937C125.947 79.8302 125.933 79.7589 125.938 79.6847C125.957 79.4712 126.124 79.2977 126.432 79.2413L126.473 79.1241L126.544 79.0901C126.733 78.9942 126.838 78.9479 126.943 78.9339C127.007 78.8132 127.094 78.715 127.174 78.6274C127.268 78.5194 127.352 78.4264 127.363 78.3232L127.501 78.137C127.534 78.1201 127.56 78.1023 127.601 78.0963C127.49 77.9379 127.431 77.7563 127.399 77.5967C127.317 77.7388 127.149 77.8148 126.962 77.7638L126.794 77.6005L126.734 77.3955L126.942 77.0829C126.898 77.0994 126.875 77.114 126.854 77.1355L126.916 76.9787L126.957 76.9608C126.933 76.916 126.912 76.8676 126.892 76.817L126.974 76.6929C126.94 76.6929 126.91 76.6898 126.876 76.6841L126.644 76.4275C126.566 76.3669 126.426 76.2533 126.424 75.9688L126.631 75.7253C126.762 75.7061 126.808 75.7164 126.823 75.3945C126.827 75.3 126.828 75.2048 126.847 75.1182L127.067 74.9245C127.109 74.9166 127.131 74.9123 127.146 74.8995C127.115 74.888 127.088 74.8713 127.061 74.8492C127.016 74.8745 126.968 74.8977 126.908 74.9159L126.89 74.9219L126.613 74.5787C126.617 74.5766 126.605 74.5698 126.59 74.5615L126.138 74.7012C126.104 74.7242 126.067 74.745 126.026 74.7584C125.981 74.7718 125.94 74.7775 125.891 74.7777L95.1593 84.302C95.1094 84.3858 95.0179 84.4707 94.8422 84.5256Z" fill="#D82734"/>
<path fill-rule="evenodd" clip-rule="evenodd" d="M137.577 71.3882C137.597 71.4017 137.68 71.4061 137.729 71.4086C137.786 71.412 137.865 71.4165 137.953 71.4376C137.942 71.3318 137.941 71.2113 137.99 71.095L137.385 71.2826C137.413 71.3383 137.438 71.3916 137.443 71.4397L137.577 71.3882Z" fill="#D82734"/>
<path fill-rule="evenodd" clip-rule="evenodd" d="M128.982 79.4641C128.99 79.4792 128.99 79.4953 128.995 79.5108L129.133 79.468C129.08 79.4772 129.031 79.4762 128.982 79.4641Z" fill="#D82734"/>
<path fill-rule="evenodd" clip-rule="evenodd" d="M129.502 79.4475L129.362 79.549L129.646 79.4612C129.586 79.4503 129.525 79.4409 129.502 79.4475Z" fill="#D82734"/>
<path fill-rule="evenodd" clip-rule="evenodd" d="M131.549 76.159L131.325 76.4725C130.891 76.4804 130.657 76.2646 130.627 75.8318L130.796 75.5812L131.095 75.4879L131.395 75.6489L131.549 76.159ZM141.09 72.8679C141.291 72.9065 141.664 72.979 141.735 73.4905L141.487 73.7665C141.075 73.7471 140.895 73.3557 140.826 73.2081L141.09 72.8679ZM154.468 66.6421C154.463 66.4816 154.571 66.3412 154.743 66.288C154.889 66.2427 155.086 66.258 155.193 66.3962C155.271 66.4882 155.298 66.6104 155.264 66.7247C155.227 66.8499 155.121 66.951 154.983 66.9946C154.848 67.0361 154.716 67.0174 154.615 66.9434C154.522 66.8738 154.469 66.7671 154.468 66.6421ZM159.561 68.2757C159.706 68.087 159.887 67.9778 160.187 67.9271L160.441 68.0666C160.536 68.2808 160.547 68.4929 160.47 68.6651C160.41 68.7976 160.304 68.8953 160.173 68.9351C159.942 69.0073 159.643 68.88 159.523 68.4968L159.561 68.2757ZM160.88 64.6135L160.998 64.3271L161.084 64.2919C161.222 64.2491 161.326 64.2881 161.383 64.3079L161.678 64.5339C161.685 64.6307 161.658 64.7015 161.636 64.7448L161.472 65.0186L161.27 65.0813L160.974 64.9198L160.88 64.6135ZM130.353 60.405L127.849 61.1805L99.9833 69.8162L99.1948 70.0608L29.3748 91.6992L26.8715 92.4747L21.929 94.0066L12.7681 63.6339C12.6757 63.5827 12.6047 63.4966 12.5794 63.3793C12.56 63.2895 12.5706 63.1909 12.6075 63.1007L11.7355 60.21L17.2521 58.5004L17.9782 58.2752L25.5014 55.944L26.395 55.6669L30.0751 54.5266L30.4376 54.4142L36.1482 52.6442L36.5369 52.5236L39.1941 51.7009L39.9527 51.465L86.4633 37.0517L87.1509 36.8374L110.715 29.5352L111.365 29.3341L118.23 27.2062L118.955 26.981L126.478 24.6498L127.372 24.3728L131.053 23.2324L131.415 23.12L137.126 21.35L137.515 21.2294L140.168 20.4068L140.93 20.1712L148.824 17.725L159.018 51.5212L130.353 60.405ZM21.3444 98.7508L21.1232 99.0155C21.0672 99.0348 21.0231 99.0493 20.9851 99.0652C20.9323 99.0878 20.8801 99.1088 20.8308 99.1239C20.7736 99.1417 20.6017 99.1948 20.4532 99.0846C20.3535 99.0094 20.3035 98.8892 20.3031 98.7258L20.3281 98.618C20.4599 98.3464 20.8907 98.2002 21.136 98.3665C21.2204 98.4238 21.3241 98.5371 21.3444 98.7508ZM17.6483 94.5009L17.4543 94.7988C17.4575 94.7925 17.4874 94.7497 17.4858 94.7156L17.2539 94.9657C16.958 94.9741 16.7085 94.7098 16.6456 94.3242C16.5754 93.884 16.7889 93.5279 17.1513 93.4995L17.4052 93.7814C17.3821 93.9195 17.4017 93.9522 17.4652 94.0612C17.5199 94.156 17.5962 94.286 17.6483 94.5009ZM9.4755 69.7258C9.40299 69.7483 9.32519 69.7487 9.24201 69.7251L9.0769 69.5621L9.01578 69.3591L9.22474 69.0469C9.20479 69.0706 9.15706 69.0776 9.13366 69.0999L9.20178 68.941L9.26728 68.9127C9.37715 68.8785 9.49561 68.9062 9.58343 68.9872C9.6396 69.0377 9.6825 69.1087 9.7073 69.1915C9.77994 69.4325 9.67993 69.6627 9.4755 69.7258ZM21.9413 104.322C21.9937 104.557 21.7605 104.835 21.5803 104.891L21.3279 104.856C21.307 104.842 21.2794 104.819 21.254 104.783C21.1691 104.745 21.0925 104.681 21.0932 104.551L21.2653 104.319L21.3548 104.305C21.3721 104.305 21.4049 104.303 21.421 104.298L21.5363 104.085C21.7881 104.048 21.9121 104.19 21.9413 104.322ZM24.0155 41.4758C23.9687 41.1978 24.1812 40.8348 24.5172 40.8714L24.6845 40.9661C24.9413 41.3115 24.7351 41.53 24.6674 41.6026L24.4292 41.8249C24.2195 41.8346 24.0533 41.6946 24.0155 41.4758ZM17.2601 45.943L17.1663 46.092C16.8745 46.1398 16.7765 45.8441 16.7448 45.7474C16.7364 45.7239 16.7291 45.6996 16.719 45.6789L16.8187 45.3655C17.0085 45.2614 17.2522 45.2084 17.4187 45.6283L17.2165 45.9606C17.258 45.9588 17.2487 45.9507 17.2601 45.943ZM9.20877 51.5402C9.21943 51.521 9.23575 51.4906 9.23656 51.4813L9.45754 51.2212C9.70585 51.203 9.88213 51.4476 9.92752 51.6981C9.97776 51.9686 9.86295 52.1966 9.64357 52.2645C9.56584 52.2887 9.47865 52.291 9.38357 52.2728L9.22673 52.1628C9.03774 51.8569 9.14917 51.6508 9.20877 51.5402ZM12.5562 48.1102C12.5622 48.2074 12.5307 48.2787 12.5126 48.3211L12.295 48.6022C12.1973 48.6087 12.1264 48.5774 12.0834 48.5578L11.8086 48.3388C11.8003 48.2405 11.8314 48.1685 11.8503 48.1249L12.0675 47.8427C12.1643 47.8366 12.2349 47.8671 12.2779 47.8863L12.5562 48.1102ZM10.3894 60.6398C10.4324 60.8347 10.327 61.0378 10.1539 61.0914L9.90451 61.0568C9.83076 61.011 9.77708 60.9342 9.73753 60.8294L10.3859 60.6284C10.3868 60.6322 10.3885 60.636 10.3894 60.6398ZM14.4405 70.7721C14.3985 70.8691 14.3022 70.999 14.0817 71.0673C14.0372 71.0812 13.9877 71.0925 13.9336 71.1005L13.6693 70.9318L13.5984 70.6972C13.5495 70.7676 13.4896 70.8149 13.419 70.8369L13.3459 70.594C13.3122 70.6025 13.2769 70.5888 13.2404 70.506C13.199 70.4108 13.2467 70.4145 13.2848 70.3913L13.2792 70.3731C13.2355 70.3865 13.2111 70.4119 13.205 70.421C13.2236 70.3931 13.2468 70.2987 13.2455 70.2615L13.4072 70.2195C13.4265 70.1985 13.4375 70.1992 13.4488 70.1984L13.3758 69.9567L13.7071 70.1422C13.7071 70.1422 13.7071 70.1422 13.7075 70.1434C13.714 70.165 13.7186 70.1894 13.7202 70.2147L14.1055 70.0953L14.3907 70.2219C14.4902 70.4317 14.5068 70.6168 14.4405 70.7721ZM17.49 84.2334L17.7916 84.14L18.0896 84.301L18.2126 84.7087L18.0986 84.9927C18.0549 85.0164 18.0117 85.0356 17.9688 85.049C17.8271 85.0927 17.7145 85.069 17.6406 85.0535C17.6094 85.0473 17.5855 85.042 17.5674 85.0434L17.3227 84.7329C17.3473 84.6472 17.3569 84.6105 17.3339 84.5453L17.49 84.2334ZM12.7075 69.5673L12.7067 69.4032C12.7748 69.2117 12.9605 69.1323 13.0952 69.0747C13.1403 69.0559 13.2147 69.0237 13.2338 69.0058C13.2217 69.0177 13.2118 69.0472 13.215 69.0644L13.5038 68.7559C13.6556 68.797 13.7182 68.9241 13.7556 68.9999C13.7658 69.0202 13.7833 69.0557 13.7915 69.0638L14.1067 69.2964C14.1193 69.5817 13.752 69.8254 13.487 69.9071C13.1267 70.0191 12.8206 69.8852 12.7075 69.5673ZM11.2828 61.7331C11.3595 61.9928 11.1928 62.2495 10.886 62.3446C10.6984 62.4025 10.5071 62.3789 10.373 62.2808C10.254 62.1937 10.1872 62.056 10.1838 61.8927L10.2131 61.7694C10.3221 61.5684 10.5493 61.4772 10.7347 61.4198C10.799 61.3995 10.866 61.3822 10.9345 61.3637L11.2209 61.6701C11.2189 61.6767 11.2172 61.6833 11.2159 61.6887L11.2828 61.7331ZM46.7153 38.9279L46.7439 38.8817C46.703 38.8992 46.703 38.8992 46.6845 38.9106L46.7623 38.7591L46.9641 38.6968L47.1189 38.803L127.908 13.765C127.841 13.7013 127.774 13.599 127.745 13.4343L127.928 13.1586C127.947 13.1618 127.954 13.1485 127.987 13.1132C128.038 13.0635 128.111 12.9881 128.242 12.9474L128.309 12.9309L128.551 13.0322C128.662 13.1963 128.691 13.3744 128.644 13.5371L138.925 10.3505C142.797 9.15136 146.906 11.3725 148.093 15.3019L148.243 15.8064L100.234 30.6856L99.6657 30.8619L71.8415 39.4846L71.1427 39.7012L11.157 58.2917L11.0049 57.7869C9.8197 53.8574 12.003 49.6856 15.8722 48.4865L26.9301 45.0592C26.8636 44.9955 26.7958 44.8932 26.7674 44.7285L26.9505 44.4528C26.9695 44.456 26.9766 44.4427 27.0093 44.4074C27.0605 44.3577 27.1334 44.2823 27.2642 44.2416L27.3316 44.2251L27.5731 44.3264C27.6846 44.4901 27.7173 44.6684 27.6663 44.8313L46.7153 38.9279ZM29.7313 42.6263C29.7365 42.5594 29.7385 42.5071 29.706 42.4427L29.9393 42.0924C30.1932 42.1146 30.3626 42.2053 30.4436 42.3621C30.5284 42.5179 30.5049 42.7101 30.3842 42.9318L30.1845 43.0558C30.06 43.0601 29.9199 43.05 29.818 42.9454C29.7199 42.8392 29.7265 42.7058 29.7313 42.6263ZM35.7844 40.8193C35.8 40.9415 35.806 41.2213 35.5257 41.3089C35.4808 41.322 35.4358 41.3305 35.3867 41.3326L35.1548 41.1815C35.0847 41.0121 35.0832 40.8615 35.1429 40.732C35.1814 40.6463 35.2719 40.5315 35.4662 40.4714L35.5298 40.4543L35.7844 40.8193ZM54.5673 35.7361C54.6116 36.0314 54.3242 36.1323 54.2272 36.1649C54.2048 36.1733 54.1786 36.1804 54.1601 36.191L53.83 36.041L53.7399 35.7347L54.0315 35.4299C54.1193 35.4564 54.1815 35.5071 54.2243 35.5413L54.5673 35.7361ZM57.7722 34.694C57.8268 34.8502 57.8175 35.0181 57.7472 35.1675C57.6626 35.3415 57.4899 35.4821 57.2956 35.543C57.1387 35.5918 56.976 35.5856 56.8416 35.5243L56.698 35.3053C56.694 35.0823 56.8116 34.6643 57.5061 34.5388L57.7722 34.694ZM58.7826 34.2027C58.648 34.2439 58.5078 34.2315 58.3923 34.1676C58.2806 34.1063 58.1938 34.002 58.1556 33.8817L58.1555 33.879C58.0956 33.6767 58.1812 33.4259 58.4653 33.3389L58.5532 33.5829C58.5756 33.5756 58.5788 33.5586 58.6088 33.5548C58.6476 33.6919 58.6901 33.8274 58.7327 33.9636C58.7177 33.9687 58.7061 33.9591 58.6911 33.9627L58.7826 34.2027ZM62.5069 28.8859L62.6307 29.2939L62.5344 29.5661C62.468 29.6114 62.4049 29.6443 62.3414 29.6634C62.1919 29.71 62.0772 29.6703 62.0077 29.6286C61.834 29.5223 61.7811 29.3067 61.7435 29.0951L61.9076 28.8182L62.2066 28.7249L62.5069 28.8859ZM72.4015 25.9859L72.2774 26.2185C72.2292 26.2439 72.1882 26.2611 72.1508 26.2731C72.0088 26.3172 71.8947 26.2943 71.8224 26.2796C71.7844 26.2721 71.7654 26.2686 71.7465 26.27L71.4982 26.0827C71.4406 25.84 71.5687 25.6119 71.8004 25.5401C71.9349 25.4982 72.0792 25.5193 72.1953 25.5984C72.3153 25.6809 72.3881 25.8184 72.4015 25.9859ZM77.6528 24.8026L77.484 25.0555L77.0842 25.1799L76.7839 25.019L76.6301 24.5089L76.9178 24.2027C76.956 24.2129 76.9976 24.2156 77.0393 24.2207C77.2251 24.2395 77.6081 24.2795 77.6528 24.8026ZM90.0193 23.4548C90.0638 23.6474 89.9539 23.8541 89.782 23.9073L89.5315 23.8727C89.4194 23.801 89.3505 23.6658 89.3126 23.4473L89.5144 23.1683C89.8263 23.1187 89.9834 23.2916 90.0193 23.4548ZM105.035 18.8982C105.039 18.9913 105.011 19.0598 104.99 19.1008L104.825 19.3731L104.623 19.4357L104.493 19.364C104.479 19.6157 104.357 19.7082 104.253 19.741C104.129 19.7783 104.014 19.7336 103.922 19.6969C103.884 19.6813 103.842 19.6652 103.812 19.6605L103.616 19.4694C103.557 19.1746 103.758 19.097 103.795 19.0849C103.889 19.0556 103.973 19.0845 104.034 19.1054C104.053 19.1131 104.088 19.125 104.103 19.1248L104.306 19.2121L104.233 18.9692L104.355 18.6822L104.437 18.6475C104.576 18.6051 104.679 18.6425 104.736 18.6628L105.035 18.8982ZM106.548 15.8165L106.298 15.5617C106.306 15.4644 106.325 15.3747 106.345 15.2862C106.358 15.224 106.374 15.1628 106.38 15.0947L106.52 14.882L106.59 14.8553C106.968 14.7386 107.135 15.0764 107.208 15.2204L107.248 15.2984C107.273 15.3512 107.292 15.3624 107.451 15.3772C107.633 15.3935 107.932 15.4199 108.054 15.7627L108.035 15.9671C107.963 16.09 107.86 16.176 107.733 16.2154C107.528 16.2786 107.306 16.2142 107.131 16.1624C107.032 16.1344 106.946 16.0653 106.86 15.9912C106.759 15.9073 106.646 15.8119 106.548 15.8165ZM107.745 19.1453L107.618 19.5137L107.114 19.6698L106.826 19.5368C106.67 19.1802 106.87 18.9684 106.979 18.8541C107.008 18.8232 107.056 18.7762 107.059 18.7585L107.208 18.5761C107.208 18.5753 107.211 18.5744 107.211 18.5744C107.335 18.536 107.433 18.5467 107.511 18.5962C107.657 18.6893 107.69 18.8688 107.714 19.0125C107.723 19.0571 107.733 19.1246 107.745 19.1453ZM113.534 16.816C113.538 16.9133 113.51 16.9844 113.489 17.027L113.272 17.308C113.174 17.3149 113.105 17.2832 113.063 17.2636L112.787 17.0446C112.78 16.9463 112.807 16.8743 112.828 16.8306L113.045 16.5485C113.143 16.5423 113.212 16.5729 113.255 16.5922L113.534 16.816ZM118.237 14.6488L118.144 14.7978C117.851 14.8456 117.754 14.5499 117.721 14.4532C117.712 14.4297 117.708 14.4054 117.696 14.3847L117.798 14.0712C117.987 13.9672 118.231 13.9142 118.396 14.3341L118.193 14.6665C118.234 14.6643 118.226 14.6565 118.237 14.6488ZM125.645 10.3084L125.407 10.5307C125.196 10.5404 125.033 10.4004 124.995 10.1815C124.947 9.90357 125.157 9.54067 125.495 9.57721L125.661 9.67192C125.918 10.0173 125.714 10.2358 125.645 10.3084ZM130.709 11.3321C130.714 11.2651 130.716 11.2129 130.684 11.1485L130.917 10.7982C131.171 10.8204 131.34 10.9111 131.421 11.0679C131.506 11.2237 131.483 11.4159 131.362 11.638L131.162 11.7615C131.038 11.7659 130.898 11.7558 130.796 11.6512C130.694 11.5451 130.704 11.4116 130.709 11.3321ZM136.762 9.52512C136.778 9.64731 136.784 9.92748 136.503 10.0147C136.459 10.0278 136.414 10.0363 136.361 10.0385L136.133 9.88731C136.062 9.71831 136.061 9.56725 136.121 9.43782C136.159 9.3521 136.25 9.23732 136.444 9.17722L136.508 9.16004L136.762 9.52512ZM159.988 39.5086C159.939 39.6227 159.837 39.7107 159.702 39.7522C159.478 39.8218 159.335 39.7244 159.289 39.5964C159.268 39.5327 159.269 39.4762 159.287 39.4296C159.263 39.3894 159.249 39.3411 159.248 39.2867L159.45 39.0277C159.54 38.9992 159.661 39.005 159.813 39.0441L159.969 39.1706C160.026 39.2837 160.034 39.4039 159.988 39.5086ZM162.689 50.1096L162.503 50.296C162.372 50.3367 162.27 50.3149 162.201 50.3012C162.155 50.2909 162.148 50.2912 162.137 50.295L161.812 50.1898C161.767 50.1039 161.764 50.0073 161.802 49.9182C161.868 49.7509 162.051 49.6797 162.122 49.6569C162.305 49.5999 162.48 49.6283 162.589 49.7311C162.687 49.8228 162.722 49.9605 162.689 50.1096ZM163.981 57.5787C164.071 57.7581 164.023 57.8964 164.002 57.9627L163.831 58.2578L163.63 58.3205L163.324 58.1305C163.328 58.1293 163.371 58.1581 163.405 58.1569L163.159 57.9304C163.141 57.633 163.432 57.543 163.526 57.5133L163.673 57.7203L163.677 57.7197L163.604 57.4898C163.627 57.4829 163.653 57.4755 163.672 57.4668L163.981 57.5787ZM153.159 26.3382L153.386 26.4645C153.499 26.6726 153.467 26.8279 153.448 26.9291C153.441 26.9612 153.435 26.9863 153.435 27.0047L153.252 27.2558C153.012 27.3129 152.78 27.1737 152.715 26.9321C152.637 26.6417 152.843 26.3665 153.159 26.3382ZM157.936 37.5302L157.794 37.796C157.727 37.8248 157.66 37.8513 157.596 37.8704C157.529 37.8919 157.32 37.9568 157.149 37.8285C157.033 37.7409 156.971 37.5942 156.971 37.3917L157.19 37.1482L157.276 37.1386C157.434 37.1193 157.855 37.067 157.936 37.5302ZM158.741 41.7645L158.595 41.7021C158.543 41.6103 158.536 41.5086 158.574 41.4148C158.671 41.1709 159.091 41.0884 159.275 41.2726C159.373 41.3673 159.405 41.5081 159.364 41.658L159.204 41.8258L159.002 41.8889L158.692 41.6692C158.693 41.6879 158.706 41.7278 158.741 41.7645ZM147.513 7.90006L147.722 7.58748C147.681 7.60502 147.681 7.60502 147.662 7.61641L147.74 7.46487L147.942 7.40259L148.252 7.61807C148.251 7.60466 148.243 7.57965 148.227 7.55451L148.373 7.63378L148.437 7.83828L148.225 8.15099C148.274 8.14238 148.27 8.13409 148.288 8.12079L148.207 8.27514L148.005 8.33741L147.695 8.12768C147.699 8.13904 147.704 8.16113 147.72 8.18435L147.577 8.10495L147.513 7.90006ZM136.93 76.9764C136.944 76.9379 136.965 76.9019 136.987 76.8693C136.795 76.8887 136.67 76.7642 136.598 76.6577C136.569 76.681 136.539 76.702 136.51 76.7226C136.451 76.7653 136.366 76.8258 136.367 76.8553L135.938 77.0099C135.973 77.0539 136.027 77.0716 136.053 77.0684C135.937 77.0966 135.825 77.1251 135.71 77.0804C135.629 77.0494 135.586 76.9896 135.561 76.9279L135.371 76.8882C135.297 76.8198 135.263 76.7247 135.279 76.6298C135.285 76.5981 135.295 76.5701 135.306 76.5456C135.267 76.5144 135.232 76.4746 135.203 76.4226C135.115 76.2704 135.151 76.1199 135.168 76.0472C135.168 76.0499 135.174 76.1141 135.221 76.1696C135.268 76.2263 135.325 76.2377 135.344 76.2382L135.179 75.949L135.087 76.322L134.586 76.4776L134.306 76.3646C134.177 76.1282 134.143 75.9185 134.216 75.7398C134.307 75.5131 134.551 75.3676 134.927 75.3104L135.177 75.4409C135.159 75.3794 135.127 75.3207 135.088 75.2687L135.266 74.8743C135.399 74.8709 135.495 74.925 135.56 74.9619L135.875 75.2109C135.876 75.2381 135.873 75.2635 135.87 75.2859C135.948 75.2387 136.018 75.1879 136.088 75.1383C136.431 74.8981 136.832 74.6969 137.305 74.8342L137.421 75.2245C137.428 75.2131 137.431 75.1923 137.426 75.1686C137.414 75.1434 137.405 75.1157 137.401 75.0867C137.397 75.0845 137.397 75.0822 137.393 75.0804C137.397 75.0822 137.397 75.0838 137.401 75.0852C137.387 75.0216 137.388 74.9517 137.409 74.8804L137.528 74.7275L137.614 74.6926C137.752 74.6502 137.855 74.688 137.913 74.7083L138.182 74.8366C138.198 74.8652 138.21 74.8958 138.215 74.9263C138.232 74.8632 138.238 74.8273 138.217 74.7709L138.328 74.4824C138.647 74.3087 138.855 74.5434 138.919 74.6313C138.938 74.6609 138.897 74.6505 138.878 74.6565L139.267 74.773L139.421 75.2831L139.11 75.582C139.043 75.5901 139.002 75.623 138.966 75.6542C138.903 75.6989 138.837 75.7484 138.751 75.7748C138.515 75.8475 138.322 75.7093 138.177 75.3633L138.338 75.1096L138.224 74.9824C138.226 75.0291 138.216 75.0774 138.199 75.1232C138.109 75.3527 137.727 75.4435 137.529 75.2932C137.533 75.313 137.534 75.3356 137.531 75.3594C137.518 75.5122 137.392 75.5875 137.351 75.6131L137.235 75.6567C137.313 75.8124 137.336 75.9393 137.328 76.0481C137.399 76.0008 137.477 75.9735 137.544 75.9508L137.915 76.1753C137.902 76.3594 137.835 76.4811 137.743 76.5621L137.816 76.5834C137.839 76.6132 137.891 76.6866 137.921 76.7796L157.164 70.8157C158.726 70.3316 160.131 69.5718 161.348 68.608C161.35 68.5596 161.36 68.5167 161.366 68.4831C161.376 68.4279 161.376 68.4252 161.367 68.4006L161.47 68.089C161.711 67.9537 161.881 67.9722 162.009 68.0495C162.378 67.7121 162.732 67.3572 163.063 66.9813C163.026 66.9976 162.985 67.0128 162.947 67.0241C162.768 67.0806 162.613 67.0703 162.486 66.993C162.366 66.9186 162.286 66.7906 162.257 66.614L162.289 66.4403C162.378 66.298 162.529 66.1933 162.739 66.1281L162.802 66.1094L163.047 66.3973C163.039 66.3869 163.034 66.3748 163.023 66.3667C163.077 66.4185 163.163 66.4999 163.215 66.6879L163.096 66.943C164.665 65.1399 165.725 62.9244 166.155 60.5489C166.148 60.5507 166.14 60.5537 166.137 60.5557L165.764 60.367C165.756 60.2675 165.788 60.1943 165.805 60.1511L165.97 59.88L166.171 59.8181L166.26 59.8549C166.491 58.0495 166.357 56.1679 165.798 54.3164L157.343 26.283C157.317 26.3034 157.288 26.3236 157.254 26.334L157.003 26.3002C156.891 26.2285 156.822 26.0936 156.785 25.8752L156.983 25.5963C157.039 25.5878 157.088 25.588 157.134 25.5918L153.557 13.7319C153.475 13.757 153.407 13.7406 153.369 13.7312C153.342 13.7248 153.327 13.7219 153.282 13.7365L152.967 13.5807L152.903 13.3761L153.07 13.0712C153.07 13.0708 153.073 13.0699 153.073 13.0699C153.126 13.0531 153.137 13.0446 153.155 13.0229C153.177 12.9968 153.224 12.9534 153.291 12.9257C150.929 6.39004 143.897 2.77899 137.263 4.83443L129.288 7.30646C129.402 7.31937 129.509 7.37582 129.592 7.4784C129.77 7.70309 129.83 8.12635 129.713 8.35021L129.377 8.44136C129.122 8.2792 128.826 7.72186 128.975 7.43667L129.037 7.3831L28.3101 38.6007C28.4239 38.6136 28.5316 38.67 28.6145 38.7726C28.7961 38.9972 28.8525 39.4206 28.7356 39.6444L28.3988 39.7356C28.1438 39.5734 27.8486 39.0157 27.9973 38.7309L28.0596 38.6773L14.2085 42.9704C10.6043 44.0874 7.82682 46.6598 6.30393 49.8593C6.39334 49.845 6.47099 49.8511 6.53356 49.8904C6.6815 49.9834 6.71233 50.163 6.73737 50.3067C6.74497 50.3513 6.75639 50.4188 6.76656 50.4395L6.63965 50.808L6.13662 50.964L5.88282 50.8471C4.86678 53.5129 4.6865 56.529 5.57347 59.4701L7.33579 65.3122L7.35978 65.2634C7.41204 65.2455 7.44658 65.2178 7.4888 65.1826C7.60145 65.0874 7.81892 64.9973 8.05371 65.1218L8.15607 65.4458C8.04991 65.662 7.91398 65.8911 7.71778 65.9521C7.68225 65.9625 7.61017 65.9754 7.52932 65.9537L10.1103 74.5111C10.1844 74.5557 10.243 74.6115 10.2826 74.6535C10.3073 74.6795 10.3446 74.7196 10.3599 74.7256L10.7405 74.8811C10.8125 75.256 10.7174 75.5627 10.4846 75.753L12.754 83.2765L12.7486 83.2495C12.8441 83.1844 13.0086 83.0701 13.1888 83.0139C13.4182 82.943 13.5717 82.9994 13.6599 83.0592C13.7957 83.1511 13.8756 83.3087 13.8969 83.5277L13.544 83.764C13.5789 83.7356 13.5617 83.7745 13.5458 83.7943C13.5056 83.8451 13.4524 83.911 13.3751 83.9686C13.3878 84.0521 13.3784 84.1273 13.3487 84.1981C13.3181 84.2728 13.247 84.3685 13.0997 84.4224L15.582 92.6534C15.7374 92.7235 15.8862 92.8629 15.9233 93.1669L15.8537 93.37C15.8394 93.3839 15.8239 93.3932 15.8092 93.4056L16.8124 96.7321C16.8274 96.404 16.9361 95.9591 17.4392 95.8031C17.5569 95.7667 17.6933 95.747 17.8456 95.7463L18.0701 95.9019C18.1666 96.1543 18.0941 96.3402 18.0023 96.4707C18.0836 96.6229 18.0882 96.8195 18.0916 96.9601C18.0934 97.0467 18.097 97.1923 18.1206 97.2306L18.4169 97.427C18.444 97.7176 18.486 98.1745 18.0024 98.3244C17.9617 98.337 17.9149 98.3474 17.8638 98.3554L17.6296 98.2485C17.5749 98.1645 17.5572 98.0799 17.5565 98.0067L17.4275 97.9567C17.3151 97.7466 17.346 97.5925 17.3659 97.4913C17.3697 97.4713 17.373 97.4554 17.374 97.4431C17.3376 97.3623 17.2781 97.336 17.1121 97.2866C17.0659 97.2728 17.0197 97.2587 16.976 97.2426L16.9598 97.2205L17.3071 98.3721C17.4581 98.4551 17.6012 98.5605 17.7246 98.7085C18.0188 98.5433 18.2904 98.6738 18.4492 98.7633C18.4916 98.7879 18.5637 98.8288 18.5859 98.828C18.5859 98.828 18.6106 98.8202 18.6581 98.763L18.7823 98.6842C19.0369 98.6197 19.1683 98.823 19.2178 98.8987C19.2222 98.9162 19.1728 98.898 19.1362 98.91L19.4187 99.2872C19.3357 99.3871 19.2481 99.4849 19.1581 99.5809C19.209 99.6002 19.2573 99.6315 19.2999 99.6825L19.353 99.7969C19.3781 99.941 19.3233 100.038 19.2486 100.105C19.322 100.305 19.2324 100.497 19.1674 100.637C19.1523 100.671 19.1306 100.718 19.1213 100.745L19.23 100.916C19.2015 101.115 19.1192 101.237 18.9851 101.278C18.7612 101.348 18.6026 101.145 18.4856 100.997C18.4619 100.966 18.4405 100.938 18.4229 100.921L18.4411 100.901L18.3352 100.942C18.2728 100.851 18.1939 100.701 18.145 100.524C18.1303 100.537 18.1366 100.489 18.1212 100.448L18.0145 100.671C18.1554 101.081 18.3151 101.478 18.4918 101.865L18.5414 101.783C18.801 101.612 19.015 101.758 19.0901 101.82L19.3187 101.918L19.3662 102.176C19.3445 102.246 19.2843 102.341 19.1274 102.39C19.0201 102.423 18.8767 102.427 18.7466 102.391C20.3888 105.604 23.2323 107.929 26.5202 108.951C26.4613 108.831 26.4237 108.708 26.4016 108.595C26.3212 108.737 26.152 108.813 25.9651 108.762L25.7985 108.599L25.7369 108.394L25.9462 108.081C25.903 108.098 25.8782 108.112 25.8563 108.134L25.9214 107.977L25.9627 107.959C25.9385 107.914 25.9153 107.866 25.8939 107.815L25.9768 107.691C25.9454 107.691 25.9132 107.688 25.8813 107.682L25.6479 107.426C25.5722 107.365 25.4303 107.251 25.4275 106.967L25.634 106.724C25.7667 106.704 25.8139 106.715 25.8261 106.393C25.8296 106.298 25.833 106.203 25.8508 106.116L26.0696 105.923C26.1112 105.915 26.1341 105.911 26.1499 105.898C26.1208 105.886 26.0915 105.869 26.0635 105.847C26.0202 105.873 25.9708 105.896 25.9129 105.914L25.893 105.92L25.6162 105.577C25.6312 105.572 25.555 105.543 25.5049 105.525C25.4627 105.508 25.4176 105.492 25.3734 105.471C25.3413 105.504 25.3152 105.533 25.2926 105.559C25.2181 105.642 25.1479 105.72 25.0294 105.757C24.8829 105.802 24.737 105.767 24.3839 105.683L24.1996 105.437C24.2007 105.403 24.2024 105.376 24.2016 105.354C24.1986 105.353 24.1944 105.353 24.1895 105.353L24.0845 105.341L23.9109 105.228C23.7767 105.009 23.8318 104.846 23.8933 104.746C23.8547 104.735 23.8129 104.715 23.7732 104.684C23.725 104.848 23.6513 105.14 23.2116 105.183L22.953 104.995C22.9447 104.961 22.9271 104.881 22.9131 104.857C22.9287 104.883 22.9823 104.914 23.0315 104.907L22.7758 104.767C22.7308 104.667 22.7222 104.573 22.7509 104.487L22.7003 104.52C22.5162 104.463 22.4061 104.327 22.4053 104.153C22.4054 103.93 22.6041 103.723 22.8102 103.6C22.6949 103.467 22.5243 103.428 22.2688 103.468L21.9931 103.232L21.9528 103.147C21.8832 103.092 21.7662 102.998 21.7367 102.782L21.8998 102.616C21.8223 102.376 21.7773 102.135 21.8797 101.932L22.1588 101.81L22.2248 101.828C22.5466 101.914 22.8406 102.012 22.9107 102.248C22.9189 102.276 22.924 102.303 22.9246 102.33C22.9563 102.351 22.9884 102.373 23.0201 102.395C23.2 102.514 23.3852 102.638 23.5472 102.829L23.6057 102.98C23.6103 103.121 23.5411 103.216 23.4887 103.275C23.5032 103.278 23.5206 103.281 23.5362 103.284C23.5925 103.293 23.6677 103.306 23.7432 103.336C23.7691 103.299 23.8049 103.263 23.8533 103.233C23.8324 103.186 23.8106 103.145 23.7881 103.107C23.7179 102.98 23.6373 102.837 23.6717 102.565L23.7679 102.4C23.8095 102.369 23.8545 102.346 23.9008 102.332C24.1299 102.261 24.3092 102.409 24.417 102.498C24.4181 102.498 24.4201 102.501 24.4201 102.501L24.5508 102.372C24.8705 102.342 24.9303 102.562 24.9387 102.607C24.9595 102.715 24.9147 102.819 24.8493 102.903C24.9962 103.031 25.2632 103.029 25.4253 102.988C25.3467 102.976 25.2714 102.94 25.207 102.879L25.1683 102.831C25.0422 102.629 25.0674 102.474 25.1294 102.366C25.0979 102.374 25.0649 102.382 25.03 102.388L24.7671 102.249C24.7052 102.107 24.7567 101.961 24.7983 101.844C24.8093 101.813 24.8226 101.782 24.8259 101.757C24.8231 101.774 24.8268 101.838 24.8782 101.892C24.9002 101.916 24.9249 101.93 24.946 101.939L24.9409 101.912C24.9521 101.91 24.9619 101.908 24.9731 101.905L24.7449 101.612C24.782 101.527 24.8543 101.455 24.9465 101.401C24.8491 101.296 24.7539 101.189 24.6624 101.078L24.6341 101.166C24.572 101.203 24.5121 101.231 24.4512 101.25C24.3058 101.295 24.1893 101.28 24.1039 101.269C24.0353 101.261 24 101.258 23.9537 101.272L23.664 100.939C23.675 100.907 23.6555 100.794 23.6437 100.726C23.6328 100.66 23.619 100.58 23.6164 100.496C23.5393 100.526 23.4772 100.532 23.4166 100.529L23.3181 100.445C23.1826 100.685 22.9211 100.675 22.7026 100.668C22.5543 100.662 22.4039 100.685 22.3789 100.715L21.9566 100.562C21.9539 100.356 22.0497 100.212 22.1208 100.105C22.1753 100.023 22.2043 99.9773 22.204 99.9248L22.4196 99.6818C22.5344 99.6708 22.6276 99.6887 22.7029 99.716C22.6716 99.6634 22.6426 99.5999 22.6225 99.5232L22.6636 99.3139C22.8054 99.1244 22.9893 99.0121 23.2879 98.9637L23.4813 99.0602C23.4075 98.8725 23.3389 98.6812 23.2799 98.4846L22.5078 95.9249L22.9892 95.7757L23.8439 95.5108L27.869 94.2637L28.569 94.0463L65.0785 82.7315L65.4971 82.6026L96.098 73.1185L97.2005 72.7762L114.362 67.4581L115.031 67.2506L123.967 64.4815L124.823 64.2165L128.848 62.9694L129.547 62.7521L159.594 53.4399L160.368 55.9992C161.551 59.9288 159.37 64.1009 155.498 65.3001L154.44 65.6282L154.581 65.7586C154.622 65.8623 154.619 65.9782 154.57 66.0851C154.507 66.2257 154.36 66.3463 154.192 66.3986C154.023 66.4501 153.864 66.4261 153.747 66.332C153.666 66.2643 153.57 66.1322 153.588 65.8926L145.512 68.395C145.432 68.4895 145.329 68.5648 145.217 68.6002C145.105 68.6352 144.991 68.6292 144.892 68.5878L142.328 69.3819L142.216 69.5277C142.122 69.5341 142.049 69.5036 142.007 69.4859L142.003 69.4826L140.328 70.0013L140.288 70.0227C140.258 70.0318 140.231 70.0385 140.205 70.0425C140.217 70.057 140.225 70.0721 140.233 70.0871C140.244 70.0852 140.256 70.0829 140.267 70.0802L140.5 70.1664C140.651 70.3583 140.563 70.5443 140.531 70.6141C140.531 70.6141 140.53 70.5746 140.513 70.5368L140.53 70.6908L140.762 70.6133C140.8 70.7275 140.784 70.8331 140.772 70.9183C140.753 71.0217 140.744 71.0903 140.82 71.2027L140.674 71.5745C140.652 71.5772 140.648 71.5854 140.615 71.6199C140.564 71.6708 140.491 71.7469 140.361 71.7876L140.289 71.8042L140.095 71.6511C140.084 71.6523 140.065 71.6548 140.035 71.6613L139.765 71.5088C139.661 71.2401 139.795 71.0625 139.863 70.9665C139.882 70.9455 139.903 70.9133 139.907 70.9017C139.875 70.7643 139.816 70.6836 139.719 70.629C139.554 70.5316 139.282 70.535 139.081 70.6375C139.252 70.9909 139.21 71.5121 139.057 71.784L138.977 71.8693C138.77 72.0004 138.592 71.9782 138.458 71.8164C138.44 71.842 138.418 71.8662 138.4 71.8894C138.309 72.0053 138.252 72.0818 138.243 72.1714L138.002 72.3912C137.715 72.3893 137.438 72.2544 137.256 72.0321C137.154 71.9072 137.088 71.7622 137.06 71.606L136.936 71.7204C136.728 71.7318 136.561 71.5919 136.523 71.3739C136.51 71.3114 136.515 71.2449 136.531 71.1791L135.5 71.4982C135.523 71.5058 135.549 71.5091 135.572 71.5202C135.621 71.5078 135.673 71.4929 135.756 71.4797L136.024 71.6851C136.098 72.1808 135.927 72.5757 135.527 72.8278L135.171 72.6887C135.102 72.4491 135.059 72.3988 134.992 72.3237C134.917 72.2389 134.823 72.1324 134.704 71.8654L134.771 71.7242L133.179 72.2171C133.065 72.4232 132.92 72.5989 132.712 72.7006L132.638 72.7308C132.477 72.7801 132.343 72.7345 132.255 72.705C132.229 72.6964 132.194 72.6849 132.179 72.6839L131.811 72.6484C131.808 72.6673 131.805 72.687 131.802 72.7059L132.055 72.9256L132.031 72.9886C131.965 73.1612 131.882 73.3701 131.691 73.5275L131.718 73.5576C131.712 73.5843 131.709 73.6143 131.706 73.6439C131.697 73.8 131.638 74.1611 131.185 74.1734L131.046 74.0839C131.062 74.1305 131.072 74.1858 131.074 74.2517L130.837 74.5031L130.756 74.5413C130.712 74.5973 130.64 74.6915 130.494 74.7364C130.464 74.7459 130.43 74.7528 130.393 74.7576L130.248 74.7285C129.944 74.5562 129.945 74.2731 129.946 74.0855C129.949 73.9527 129.949 73.8372 129.881 73.7188L130.016 73.3655C130.042 73.358 130.064 73.3538 130.087 73.3515C130.074 73.3013 130.057 73.2455 130.047 73.1879L129.445 73.3742C129.482 73.4489 129.519 73.5228 129.559 73.597L129.238 73.9292C129.123 73.8669 129.037 73.8891 128.876 73.9376C128.704 73.99 128.468 74.0619 128.221 73.8888L128.171 73.7693L128.108 73.7892C128.139 73.8394 128.16 73.8882 128.176 73.9248C128.197 73.9679 128.226 74.0324 128.241 74.0499L128.149 74.233L128.384 74.4557L128.329 74.4127L128.377 74.461L128.287 74.3862L128.366 74.4721C128.293 74.5529 128.283 74.5985 128.287 74.6049C128.3 74.642 128.42 74.7459 128.706 74.81L128.891 75.0122C128.916 75.1847 128.829 75.2898 128.733 75.3537C128.868 75.5523 128.956 75.5929 129.117 75.544L129.117 75.5451L129.105 75.5256C129.087 75.326 129.21 75.184 129.468 75.1037L129.611 75.3019L129.547 75.0794C129.569 75.0721 129.591 75.0652 129.614 75.0556L129.895 75.205C130.015 75.1996 130.123 75.2522 130.198 75.3539C130.357 75.5693 130.302 75.954 130.242 76.0715L130.173 76.1541L130.077 76.2054C129.905 76.2586 129.761 76.1497 129.68 76.0854L129.68 76.0789L129.569 76.1583C129.53 76.134 129.48 76.1012 129.437 76.0579C129.398 76.1279 129.351 76.1759 129.321 76.2023C129.321 76.2019 129.32 76.1674 129.312 76.1432L129.274 76.2546C129.312 76.2467 129.349 76.2374 129.379 76.2298C129.446 76.2133 129.514 76.1967 129.578 76.1845L129.726 76.6411C129.659 76.6734 129.623 76.7234 129.607 76.8091C129.614 76.8008 129.621 76.7917 129.632 76.7821C129.748 76.6407 129.883 76.4807 130.097 76.36L130.452 76.5613C130.454 76.6111 130.462 76.6292 130.462 76.6292C130.457 76.6056 130.547 76.5871 130.6 76.5769C130.727 76.5498 130.874 76.5201 131.011 76.5652L131.166 76.8793C131.155 76.9027 131.153 76.9522 131.151 76.9968C131.146 77.0706 131.139 77.1802 131.093 77.2845C131.124 77.3065 131.143 77.3139 131.151 77.3182L131.33 77.5689C131.334 77.5872 131.335 77.6213 131.349 77.6898C131.354 77.7161 131.358 77.7187 131.419 77.7576C131.512 77.8134 131.663 77.909 131.709 78.1498L131.515 78.4327C131.485 78.438 131.458 78.4443 131.432 78.4521L131.475 78.4767C131.519 78.5618 131.585 78.6083 131.689 78.6568C131.79 78.5286 131.973 78.467 132.168 78.4387C132.206 78.4328 132.244 78.428 132.277 78.4195C132.277 78.4103 132.273 78.3982 132.269 78.383L132.347 78.1348L132.469 78.0677C132.708 77.9937 132.867 78.2079 132.946 78.3095L132.935 78.3248L136.893 77.0977C136.903 77.056 136.913 77.0153 136.93 76.9764Z" fill="#D82734"/>
<path fill-rule="evenodd" clip-rule="evenodd" d="M56.3684 57.8946L56.1179 57.8608C56.0058 57.7891 55.9369 57.6542 55.899 57.4357L56.1008 57.1568C56.4127 57.1079 56.566 57.2801 56.6057 57.4429C56.6464 57.6348 56.5403 57.8414 56.3684 57.8946ZM57.0692 62.3849C57.6288 64.2402 57.1131 65.049 55.8349 65.445L53.9326 66.0338L51.2833 57.2402L53.1819 56.6515C54.46 56.2552 55.3346 56.6339 55.8942 58.4888L57.0692 62.3849ZM54.681 74.2667C54.5651 74.3026 54.433 74.3034 54.2844 74.2687L54.1131 74.1228C54.0258 73.8934 54.0804 73.7262 54.118 73.6152C54.149 73.5297 54.1558 73.5068 54.1311 73.449L54.2673 73.1309C54.2711 73.1296 54.2711 73.1289 54.2748 73.128C54.5177 73.0527 54.663 73.1017 54.77 73.1367C54.8311 73.1561 54.8655 73.1672 54.8994 73.1641L55.1541 73.4259C55.1389 73.639 55.0996 74.1367 54.681 74.2667ZM53.5077 72.4739L53.6718 72.197L54.0755 72.0721L54.3553 72.1885C54.4684 72.3974 54.436 72.552 54.4169 72.6531C54.4104 72.6852 54.4037 72.7092 54.4081 72.7267L54.2616 72.9677L54.1834 72.9984C53.9965 73.056 53.8627 73.0093 53.7816 72.9603C53.6426 72.875 53.554 72.7166 53.5077 72.4739ZM51.1747 66.3534C51.1524 66.3634 51.1152 66.38 51.1079 66.3872C51.1336 66.3663 51.1541 66.3042 51.1416 66.2721L50.9649 66.6192C50.8522 66.6377 50.4674 66.6535 50.3678 66.0739L50.5209 65.8047C50.5918 65.7796 50.659 65.7558 50.7225 65.7352C50.9093 65.678 51.1455 65.626 51.3495 65.7336L51.4727 65.9076C51.5204 66.1913 51.2676 66.3091 51.1747 66.3534ZM54.5002 76.6606L54.3407 76.9635L54.038 77.0573L53.7415 76.8962L53.6477 76.5911L53.8072 76.2883L54.1099 76.1941L54.4102 76.355L54.5002 76.6606ZM52.0625 52.941L46.1427 54.7755L53.978 80.748L57.9956 79.5027L55.052 69.7444L56.2479 69.3739C56.1428 69.2851 56.085 69.1448 56.0858 68.9523L56.304 68.7088L56.3906 68.6992C56.5486 68.6799 56.9698 68.6276 57.0502 69.0908L57.0289 69.1288C60.9855 67.8698 62.2531 65.0076 61.0097 60.8799L59.9889 57.5035C58.7369 53.3477 56.0801 51.6957 52.0625 52.941Z" fill="#D82734"/>
<path fill-rule="evenodd" clip-rule="evenodd" d="M78.9905 63.5552C78.9314 63.5934 78.8682 63.622 78.8121 63.6397C78.644 63.692 78.4839 63.6523 78.3853 63.5334C78.2748 63.3984 78.2636 63.1863 78.3627 62.9938L78.5848 62.8621C78.8458 62.8741 79.0286 63.0246 79.0981 63.2841L78.9905 63.5552ZM79.4185 63.1541C79.5128 63.1492 79.5818 63.179 79.624 63.1967L79.9038 63.4213C79.911 63.5185 79.8795 63.5898 79.8621 63.6326L79.6452 63.9129C79.5472 63.9201 79.4744 63.8889 79.4322 63.8701L79.1559 63.6396C79.1527 63.5477 79.1805 63.4792 79.198 63.4379L79.4185 63.1541ZM79.2987 62.3209L79.4209 62.0336C79.6621 61.9078 79.8298 61.9507 79.9185 62.0032C79.9879 62.0433 80.0816 62.1294 80.1255 62.3047L79.9618 62.5939L79.6591 62.6877L79.3588 62.5267L79.2987 62.3209ZM81.1046 70.6534C81.1136 70.6942 81.1188 70.7358 81.135 70.7671L80.9841 71.0972L80.6851 71.1901L80.4053 71.0737C80.2922 70.864 80.3246 70.7098 80.3437 70.6083C80.3501 70.5766 80.353 70.552 80.3524 70.5332L80.4545 70.3198C80.613 70.2061 80.7635 70.1909 80.887 70.2633C81.0336 70.3506 81.0734 70.518 81.1046 70.6534ZM76.8509 72.6016L76.821 72.6111L76.6118 72.5712C76.4217 72.4271 76.3086 72.2186 76.2647 71.934L76.4179 71.6694C76.4216 71.6685 76.4216 71.6681 76.4254 71.6672C76.6982 71.5825 76.8622 71.6262 76.9727 71.6546C77.007 71.6645 77.049 71.6757 77.0602 71.6719C77.0639 71.6702 77.0975 71.6583 77.1593 71.5886L77.5708 71.7979C77.4907 72.208 77.247 72.4781 76.8509 72.6016ZM76.4996 62.1095C76.4624 62.2347 76.3564 62.3347 76.2181 62.3783C76.0836 62.4198 75.9507 62.4007 75.8499 62.3267C75.7568 62.2582 75.7039 62.1508 75.7033 62.0254C75.6978 61.8668 75.8062 61.7253 75.9781 61.6717C76.1201 61.6273 76.3133 61.642 76.4236 61.7724C76.5065 61.8734 76.5334 61.9948 76.4996 62.1095ZM73.5627 56.6533C73.5627 56.6541 73.5589 56.6553 73.559 56.6557L73.5549 56.6482C72.3148 55.8626 71.3137 54.8892 70.8523 53.3596C70.2927 51.5048 70.8117 50.573 72.0898 50.1771C73.368 49.7807 74.314 50.2593 74.8737 52.1142L75.1984 53.1902L78.9954 52.0128L78.7516 51.1967C77.6324 47.49 75.3411 45.7025 72.0838 46.2179L72.1522 46.4468L71.9928 46.7492L71.6901 46.8434L71.3936 46.6819L71.3038 46.3824C71.1578 46.4205 71.0116 46.4544 70.8621 46.5006C66.9529 47.7122 65.6599 50.7096 66.9118 54.865C69.1505 62.2856 77.3095 60.8531 78.9203 66.1961C79.48 68.0514 78.8773 68.9684 77.5992 69.3644C76.321 69.7607 75.3129 69.3422 74.7532 67.4869L74.1935 65.6317L70.3965 66.8091L70.8753 68.4048C72.131 72.5601 74.8929 74.3008 78.8395 73.078C82.7823 71.8552 84.1128 68.8466 82.8608 64.6908C81.2631 59.3991 76.6607 58.6086 73.5627 56.6533Z" fill="#D82734"/>
<path fill-rule="evenodd" clip-rule="evenodd" d="M90.7006 68.2849L90.8648 68.0114L91.0667 67.9495L91.3426 68.0619C91.4273 68.2158 91.4127 68.3371 91.385 68.4121C91.3231 68.5853 91.1551 68.6437 91.0358 68.687L90.659 68.4984C90.6518 68.4009 90.6832 68.3281 90.7006 68.2849ZM88.8039 68.3845L88.6057 68.6584C88.6093 68.6532 88.6418 68.6099 88.6368 68.576L88.4676 68.8158C88.2882 68.8704 88.1123 68.8098 87.9898 68.6549C87.8277 68.4473 87.7885 68.0847 87.9061 67.8804L88.1551 67.7643C88.3567 67.8021 88.7294 67.8727 88.8039 68.3845ZM84.1868 56.8976L84.2956 56.658C84.569 56.4831 84.8536 56.5203 85.0273 56.7333C85.1734 56.9134 85.2017 57.1851 85.0919 57.3934L84.8356 57.5178C84.634 57.48 84.2614 57.4094 84.1868 56.8976ZM81.6868 49.2414L81.5119 49.5329C81.2273 49.6057 80.9916 49.5633 80.8504 49.4137C80.7601 49.3163 80.6706 49.1327 80.7689 48.8098L80.8959 48.6603C81.1187 48.5509 81.2754 48.603 81.3641 48.6543C81.5607 48.7683 81.6295 49.0071 81.6868 49.2414ZM87.4614 57.7441L92.9777 56.0345L92.8452 55.5957C92.7787 55.5286 92.7415 55.4379 92.7379 55.3333C92.7371 55.3107 92.7439 55.2901 92.7469 55.2686L91.8583 52.324L86.3421 54.0339L84.159 46.7985L85.4933 46.3857C85.4995 46.3471 85.5021 46.3129 85.4856 46.2732L85.6408 45.9586L86.0444 45.8337L86.3405 45.9833C86.3572 46.0279 86.3663 46.0713 86.3715 46.1137L91.1029 44.6471L89.9836 40.9366L79.0221 44.3337L86.8575 70.3062L90.094 69.3033C90.1008 69.282 90.1075 69.2591 90.1146 69.245L90.279 68.9762L90.477 68.9144L90.7568 69.0282C90.7689 69.0496 90.7733 69.0694 90.7816 69.0894L97.8152 66.9096L96.6996 63.1989L89.7557 65.3503L87.4614 57.7441Z" fill="#D82734"/>
<path fill-rule="evenodd" clip-rule="evenodd" d="M99.7045 51.7637C99.9656 51.776 100.148 51.9254 100.218 52.1861L100.11 52.4572C100.047 52.4954 99.9879 52.524 99.9319 52.5413C99.76 52.5944 99.5999 52.554 99.5012 52.4328C99.3907 52.297 99.3833 52.0856 99.4824 51.893L99.7045 51.7637ZM103.258 63.303L103.193 63.4863L103.329 63.589C103.374 63.7139 103.351 63.8114 103.323 63.8711C103.277 63.964 103.193 64.0298 103.069 64.0679C103.017 64.0839 102.957 64.096 102.893 64.1074C102.852 64.1142 102.814 64.1209 102.781 64.1313L102.411 64.0234C102.352 63.8705 102.375 63.7535 102.391 63.6754C102.404 63.6201 102.404 63.617 102.392 63.5925L102.506 63.2833C102.49 63.2554 102.477 63.2256 102.469 63.1948C102.41 62.9299 102.74 62.6303 103.04 62.6962L103.188 62.7988C103.343 63.0361 103.289 63.2099 103.258 63.303ZM98.9251 55.8412L98.8386 55.85C98.6844 55.8699 98.2593 55.9216 98.179 55.4603L98.3919 55.1763L98.4709 55.1674C98.6327 55.1464 99.0576 55.0909 99.1418 55.5552L98.9251 55.8412ZM105.356 62.4822L105.525 62.227L105.929 62.1028L106.208 62.2181C106.285 62.3658 106.302 62.522 106.246 62.6578C106.194 62.7855 106.088 62.8828 105.957 62.9238C105.823 62.9653 105.682 62.9445 105.57 62.8683C105.45 62.7869 105.373 62.6496 105.356 62.4822ZM107.881 62.8317L108.162 62.5576C108.185 62.5622 108.252 62.5506 108.301 62.5431C108.44 62.5199 108.865 62.4494 108.945 62.9019L108.795 63.171C108.74 63.1941 108.68 63.2149 108.624 63.2318C108.482 63.2759 108.276 63.3219 108.098 63.2092C107.978 63.1328 107.906 63.0061 107.881 62.8317ZM98.2209 38.27C94.2743 39.4925 92.9438 42.5015 94.1996 46.6568L98.2714 60.1625C99.5272 64.3181 102.289 66.0585 106.232 64.8358C109.648 63.7772 111.101 61.3783 110.615 58.0576L110.328 58.3668C110.347 58.3773 110.358 58.3792 110.358 58.3792C110.124 58.3835 109.99 58.3184 109.915 58.2267C109.818 58.3812 109.647 58.4497 109.516 58.4895C109.464 58.5063 109.404 58.5214 109.344 58.5354L109.079 58.4154C108.966 58.2053 108.998 58.0512 109.017 57.9496C109.024 57.9149 109.03 57.8936 109.026 57.8765L109.373 57.6449C109.412 57.6647 109.442 57.682 109.469 57.698C109.473 57.6955 109.477 57.6931 109.48 57.6903L109.577 57.6309L109.916 57.7349C109.921 57.7486 109.929 57.7625 109.933 57.7769L109.965 57.7267C110.13 57.6826 110.225 57.6869 110.285 57.6979L110.362 57.6123C110.437 57.6112 110.499 57.6348 110.549 57.6699C110.475 57.2739 110.381 56.8687 110.257 56.4489L109.215 52.998L107.17 53.6321C107.17 53.6324 107.167 53.6337 107.167 53.6337L107.227 53.7413L107.029 53.9231C106.895 53.9642 106.742 53.9044 106.602 53.808L105.414 54.1755L106.533 57.886C107.093 59.7413 106.49 60.6583 105.212 61.0547C103.934 61.4506 102.929 61.032 102.37 59.1767L101.776 57.2083C101.73 57.1904 101.684 57.1648 101.648 57.1165C101.549 56.9823 101.6 56.8332 101.628 56.7533C101.631 56.7485 101.631 56.7432 101.635 56.7381L99.8834 50.9374C99.8797 50.9391 99.876 50.9423 99.8686 50.9441L99.8686 50.9444C99.7378 50.9851 99.5937 50.9705 99.4781 50.9063C99.3587 50.8403 99.2753 50.7231 99.2324 50.5781L99.4812 50.2357C99.51 50.1971 99.5572 50.1422 99.6312 50.0966L98.1401 45.1514C97.5804 43.2965 98.1704 42.3424 99.4486 41.946C100.727 41.5497 101.744 42.0059 102.303 43.8607L103.145 46.6436L106.942 45.4662L106.181 42.9433C104.929 38.7875 102.167 37.0471 98.2209 38.27Z" fill="#D82734"/>
<path fill-rule="evenodd" clip-rule="evenodd" d="M120.21 46.8117L120.016 47.0897C119.915 47.1059 119.828 47.1062 119.737 47.1052C119.601 47.1034 119.499 47.1051 119.351 47.1823L119.012 46.8988C119.099 46.5847 119.298 46.3369 119.598 46.1615L119.86 46.1785C120.054 46.3232 120.167 46.5306 120.21 46.8117ZM122.266 55.0553C122.154 55.2054 122.007 55.3079 121.816 55.3675C121.76 55.3837 121.704 55.3968 121.64 55.4067L121.398 55.2958C121.298 55.1313 121.244 54.8916 121.547 54.6881C121.559 54.698 121.552 54.7332 121.565 54.7623L121.791 54.4237C122.056 54.434 122.238 54.5845 122.304 54.8484L122.266 55.0553ZM115.798 45.8297L114.228 46.3164L111.819 38.3395L113.759 37.739C115.182 37.2976 116.05 37.9213 116.61 39.7765L117.349 42.235L117.415 42.1526C117.599 42.1457 117.737 42.1996 117.817 42.3123C117.936 42.483 117.864 42.6869 117.84 42.7541L117.683 42.9022L117.529 42.9498C117.848 44.6052 117.139 45.4139 115.798 45.8297ZM110.437 38.5925C110.363 38.6151 110.287 38.6154 110.203 38.5919L110.039 38.4289L109.975 38.2259L110.183 37.9137C110.165 37.9373 110.116 37.9444 110.094 37.9666L110.161 37.8078L110.228 37.7794C110.336 37.7453 110.454 37.7731 110.544 37.8539C110.599 37.9046 110.643 37.9755 110.668 38.0582C110.741 38.2992 110.639 38.5295 110.437 38.5925ZM114.856 52.3945L114.505 52.6308C114.538 52.6024 114.521 52.6413 114.506 52.661C114.466 52.7119 114.412 52.7778 114.335 52.8358C114.349 52.9189 114.337 52.9941 114.309 53.0649C114.278 53.1442 114.202 53.2485 114.034 53.3004L113.989 53.3127L113.744 53.2196C113.569 52.9764 113.674 52.7269 113.733 52.5921C113.747 52.5625 113.765 52.5166 113.768 52.5012C113.765 52.5262 113.782 52.5701 113.801 52.5848L113.709 52.1162C113.805 52.0511 113.967 51.9369 114.15 51.881C114.378 51.8098 114.531 51.8666 114.62 51.9264C114.756 52.0179 114.837 52.1754 114.856 52.3945ZM110.704 44.8263L110.519 44.7249C110.162 44.2154 110.214 43.8853 110.427 43.4874L110.522 43.3913C110.881 43.1747 111.131 43.4034 111.244 43.5202C111.268 43.5462 111.303 43.5864 111.318 43.5924L111.702 43.7478C111.799 44.2545 111.593 44.6387 111.148 44.7759C111.017 44.8165 110.867 44.834 110.704 44.8263ZM112.784 53.3103C112.522 53.3919 112.257 53.2708 112.131 53.009L112.274 52.6692L112.876 52.4825L113.185 52.6757C113.228 52.958 113.06 53.2251 112.784 53.3103ZM108.445 37.152L108.683 36.9274C108.777 36.9222 108.846 36.952 108.889 36.9701L109.159 37.1386L109.223 37.342L109.048 37.6492C109.045 37.6531 109.018 37.6602 108.986 37.6955C108.938 37.7451 108.865 37.8212 108.735 37.8619L108.663 37.8789L108.43 37.7858C108.176 37.443 108.38 37.2245 108.445 37.152ZM124.412 50.9493C123.596 48.2411 122.344 46.4783 120.077 46.2476C121.611 44.8393 121.926 42.835 121.119 40.1637L120.504 38.1229C119.295 34.1159 116.911 32.7041 112.748 33.9948L106.682 35.8743L114.517 61.8467L118.535 60.6014L115.347 50.0269L116.734 49.5965C118.561 49.0306 119.634 49.6721 120.36 52.0838L121.591 56.1651C122.228 58.28 122.497 58.6431 122.919 59.2428L127.011 57.9745C126.317 57.1346 126.001 56.2182 125.621 54.9566L124.412 50.9493Z" fill="#D82734"/>
<path fill-rule="evenodd" clip-rule="evenodd" d="M129.834 51.4163L129.61 51.6984C129.516 51.704 129.447 51.673 129.404 51.6553L129.129 51.4363C129.121 51.3372 129.153 51.264 129.17 51.2209L129.391 50.9381C129.485 50.9326 129.558 50.9634 129.6 50.9819L129.872 51.2009C129.883 51.3003 129.852 51.3731 129.834 51.4163ZM134.249 51.9257C134.253 51.9244 134.236 51.9672 134.245 52.009L134.446 51.7132C134.645 51.6863 134.808 51.7965 134.848 51.9811C134.898 52.2114 134.741 52.4762 134.513 52.5474C134.457 52.5647 134.4 52.5705 134.343 52.5644L134.162 52.4461C134.049 52.256 134.077 52.0805 134.249 51.9257ZM130.54 29.8614C130.617 29.6983 130.784 29.5924 131.042 29.54L131.317 29.8369C131.272 30.0563 131.21 30.3308 130.881 30.4332L130.828 30.4466L130.555 30.3057C130.485 30.1421 130.48 29.9919 130.54 29.8614ZM129.696 44.7623L130.911 44.3858C130.918 44.3648 130.925 44.3454 130.928 44.3311L131.099 44.0378L131.297 43.9757L131.597 44.137L131.606 44.1705L135.213 43.0527L134.093 39.3426L128.577 41.0521L126.394 33.8171L133.338 31.6657L132.219 27.9552L121.257 31.3519L129.092 57.3243L140.05 53.9277L138.931 50.2176L131.991 52.3689L129.696 44.7623Z" fill="#D82734"/>
<path fill-rule="evenodd" clip-rule="evenodd" d="M137.521 27.2645L137.761 26.9815C138.022 26.9904 138.204 27.1394 138.278 27.4003L138.155 27.6827L138.073 27.7174C137.939 27.7593 137.836 27.7222 137.778 27.7016L137.48 27.4792C137.472 27.3805 137.5 27.3082 137.521 27.2645ZM141.664 28.4289C141.682 28.4022 141.707 28.3618 141.711 28.3456C141.707 28.3606 141.709 28.3936 141.728 28.4197L141.881 28.0377C141.998 28.0191 142.379 28.0027 142.478 28.583L142.299 28.8601C142.265 28.8681 142.232 28.8758 142.202 28.8853C142.187 28.8847 142.219 28.8291 142.209 28.7765L141.936 29.0576C141.871 29.0461 141.673 29.0123 141.596 28.8382C141.518 28.6714 141.611 28.5197 141.664 28.4289ZM144.717 25.6232L144.876 25.3204L145.179 25.227L145.459 25.3495C145.552 25.5292 145.504 25.669 145.48 25.7358L145.309 26.0283L145.107 26.0906L144.811 25.9295L144.717 25.6232ZM134.708 31.1982L138.909 29.8959L145.625 52.1582L149.642 50.9125L142.926 28.6506L147.127 27.3486L146.008 23.6381L133.589 27.4877L134.708 31.1982Z" fill="#D82734"/>
<path fill-rule="evenodd" clip-rule="evenodd" d="M132.757 81.6236C132.798 81.705 132.839 81.8022 132.893 81.9414C133.105 81.9517 133.221 82.0297 133.281 82.13C133.28 82.1124 133.283 82.0938 133.283 82.077C133.285 82.0466 133.288 81.9974 133.283 81.9803C133.283 81.9753 133.259 81.9424 133.243 81.9177C133.175 81.8115 133.032 81.5914 133.124 81.3258L132.691 81.4598C132.708 81.511 132.728 81.5598 132.757 81.6236Z" fill="#D82734"/>
<path fill-rule="evenodd" clip-rule="evenodd" d="M100.496 92.8859C100.032 93.1403 100.142 92.3989 100.432 92.681C100.453 92.7489 100.474 92.818 100.496 92.8859ZM92.1335 95.3193C92.1425 95.3612 92.1515 95.4023 92.164 95.4344L92.0169 95.7664L91.7142 95.8606L91.4344 95.7441C91.3213 95.5352 91.3537 95.381 91.3728 95.2795C91.3793 95.2482 91.3822 95.2239 91.3816 95.2067L91.4798 94.9904C91.6641 94.8582 91.8313 94.8853 91.9161 94.9337C92.0626 95.0191 92.1024 95.1865 92.1335 95.3193ZM41.3171 111.701L40.9969 111.512C40.9446 111.204 41.1405 110.972 41.5312 110.908L41.8091 111.186C41.753 111.528 41.4252 111.659 41.3171 111.701ZM39.1318 112.3C39.0718 112.421 38.9877 112.499 38.8793 112.533C38.797 112.558 38.7213 112.552 38.6607 112.547C38.5811 112.54 38.5207 112.542 38.4354 112.588L38.0868 112.449L37.9329 111.937L38.0849 111.637L38.0886 111.636C38.4175 111.533 38.8369 111.536 39.1278 112.077L39.1318 112.3ZM132.286 83.2839L132.094 83.1974C132.081 83.1415 132.069 83.1304 132.046 83.1105C131.987 83.0543 131.955 82.9971 131.938 82.9405C131.46 82.8752 131.185 82.6999 131.012 82.1667L42.4306 109.619L42.3685 109.788L42.2685 109.846C42.2349 109.856 42.2048 109.859 42.1744 109.856C42.1636 109.98 42.1523 110.088 42.0948 110.173C42.0018 110.322 41.8713 110.37 41.7557 110.413C41.696 110.435 41.6288 110.459 41.5474 110.507C41.503 110.533 41.4817 110.574 41.4391 110.65C41.3824 110.758 41.2974 110.92 41.092 110.99L40.8005 110.863C40.7598 110.78 40.7161 110.718 40.6724 110.657C40.593 110.548 40.5095 110.426 40.4535 110.231L37.4376 111.166C37.4189 111.172 37.4002 111.177 37.3815 111.182C37.3766 111.261 37.3605 111.339 37.3215 111.414L37.1522 111.54C36.9682 111.573 36.8037 111.512 36.7044 111.373C36.5883 111.403 36.4758 111.426 36.3596 111.453L36.1839 111.721C36.0292 111.728 35.7839 111.735 35.5794 111.612C34.9899 111.717 34.403 111.786 33.8149 111.82C33.9282 111.927 34.0504 112.073 34.1455 112.308L33.7776 112.592C33.7466 112.568 33.7233 112.552 33.7041 112.541C33.6939 112.575 33.6842 112.622 33.6746 112.669L33.8764 112.607L34.1524 112.721C34.2408 112.874 34.2224 112.996 34.1948 113.071C34.1291 113.246 33.9612 113.304 33.838 113.346L33.584 113.215C33.5638 113.285 33.5358 113.349 33.4962 113.403L33.4378 113.461C33.3381 113.528 33.2564 113.568 33.1348 113.549C33.1355 113.569 33.1325 113.59 33.1294 113.611C33.1173 113.697 33.0671 113.773 32.9933 113.824C32.9824 113.834 32.9713 113.843 32.9565 113.852C33.2021 113.852 33.4475 113.848 33.6965 113.838C33.7646 113.735 33.8872 113.676 34.0574 113.68L34.1902 113.804C35.2415 113.727 36.3007 113.553 37.3562 113.271C37.1872 113.192 37.1366 113.041 37.1318 112.905L37.2526 112.683C37.5117 112.531 37.7024 112.583 37.7991 112.65C37.9192 112.734 37.9847 112.878 37.9996 113.089C38.0071 113.088 38.0108 113.086 38.0146 113.085L38.904 112.809C38.9106 112.782 38.9135 112.754 38.9239 112.729C39.011 112.52 39.2241 112.454 39.2951 112.432C39.325 112.422 39.3587 112.414 39.3924 112.405C39.3163 112.283 39.2958 112.127 39.285 112.034L39.4796 111.766C39.7912 111.711 40.0035 111.84 40.1771 111.942C40.2659 111.997 40.343 112.043 40.4229 112.059L40.5982 112.209C40.6354 112.192 40.6765 112.179 40.7101 112.168L40.8026 112.222L128.633 85.0021C128.613 84.9863 128.594 84.9728 128.578 84.9545L128.534 84.8782C128.48 84.7351 128.483 84.6019 128.539 84.4826C128.637 84.269 128.868 84.1842 129.074 84.1103L129.347 84.2526C129.542 83.8872 129.857 83.6023 130.28 83.4027L130.615 83.5659C130.619 83.5857 130.619 83.5888 130.659 83.6273C130.713 83.6844 130.811 83.7777 130.84 83.9604L130.721 84.212L130.646 84.2445C130.635 84.2475 130.624 84.2502 130.609 84.2531C130.614 84.287 130.623 84.3304 130.639 84.3793L131.914 83.9846C131.914 83.878 131.929 83.7712 131.967 83.6698C132.033 83.5022 132.145 83.3648 132.286 83.2839Z" fill="#D82734"/>
<path fill-rule="evenodd" clip-rule="evenodd" d="M31.4254 82.1336L31.2011 82.4157C31.1068 82.4213 31.0377 82.3903 30.9956 82.3726L30.7197 82.1541C30.7124 82.0542 30.7439 81.9814 30.7613 81.9382L30.9819 81.6555C31.0799 81.6498 31.149 81.6807 31.1912 81.6992L31.467 81.9178C31.4743 82.0172 31.4428 82.0905 31.4254 82.1336ZM32.4233 61.1638L32.1464 61.0231C32.0765 60.8595 32.0713 60.7093 32.1347 60.5786C32.2048 60.4219 32.3636 60.319 32.6073 60.2652L32.2699 59.1497L19.8475 62.9994L20.9665 66.71L25.1679 65.4076L31.8832 87.6699L35.9008 86.4246L32.5938 75.4578L32.5401 75.4347C32.4792 75.313 32.4832 75.2116 32.4958 75.1371L29.1867 64.1623L33.3892 62.8602L32.7956 60.8972C32.7352 61.0056 32.6364 61.0996 32.472 61.1506L32.4233 61.1638Z" fill="#D82734"/>
<path fill-rule="evenodd" clip-rule="evenodd" d="M48.8368 70.6296L48.769 70.6351C48.5317 70.6545 48.0872 70.6915 47.9604 70.1954L48.1015 69.9105C48.5599 69.7295 48.8825 69.8817 49.0407 70.3003L48.8368 70.6296ZM44.1929 59.347L44.0137 59.6241C43.98 59.6321 43.9462 59.6398 43.9163 59.6493C43.9012 59.6487 43.9333 59.5931 43.9239 59.5405L43.6504 59.8216C43.5857 59.8101 43.3881 59.7763 43.3103 59.6022C43.2364 59.4349 43.3256 59.2837 43.3829 59.1927C43.397 59.1662 43.4221 59.1258 43.4253 59.1096C43.422 59.1246 43.4232 59.1576 43.443 59.1837L43.5996 58.8016C43.7123 58.7831 44.0933 58.7663 44.1929 59.347ZM48.0892 76.1574C48.6489 78.013 48.0551 78.967 46.777 79.3629C45.4988 79.7593 44.4818 79.3038 43.9221 77.4482L41.3118 68.7963L41.1275 68.9266C41.0764 68.9775 41.0031 69.0437 40.8611 69.0878L40.8312 69.0962L40.5421 68.9329L40.4783 68.728L40.6005 68.5477L40.906 68.3184C41.0229 68.3124 41.1104 68.3289 41.1794 68.3579L39.6924 63.4233C39.1327 61.568 39.7228 60.6143 41.0047 60.2178C42.2828 59.8214 43.2998 60.2772 43.8595 62.1325L48.0892 76.1574ZM39.3897 66.1141C39.2664 66.1522 39.1559 66.1261 39.0795 66.102L39.0145 66.1882C38.9541 66.1888 38.7729 66.1913 38.6917 66.03C38.6106 65.8729 38.7117 65.737 38.7585 65.6721C38.7729 65.6512 38.7981 65.617 38.8052 65.6022C38.7984 65.6231 38.8035 65.6625 38.8192 65.6788L38.9184 65.2741L39.4192 65.1182L39.7299 65.3624C39.7257 65.4596 39.7062 65.5488 39.6829 65.6379C39.6699 65.6997 39.657 65.7615 39.6518 65.83L39.5892 65.9837C39.5347 66.0469 39.4682 66.0903 39.3897 66.1141ZM39.2358 58.0285L39.4752 57.7455C39.7362 57.7544 39.919 57.9034 39.9923 58.1643L39.87 58.4467L39.7881 58.4814C39.6535 58.5233 39.5502 58.4858 39.4928 58.4656L39.1942 58.2432C39.187 58.1445 39.2147 58.0722 39.2358 58.0285ZM39.4084 74.2229C39.3851 74.3116 39.3343 74.3732 39.3019 74.4176L39.0535 74.7684C38.8452 74.7539 38.6927 74.6061 38.6663 74.3911C38.6441 74.1875 38.7487 73.9376 38.9617 73.8711C39.0925 73.8301 39.2337 73.8712 39.3472 73.9834L39.4084 74.2229ZM39.8853 56.5077C35.9388 57.7305 34.4999 60.7729 35.7519 64.9287L39.8275 78.4342C41.0795 82.5896 43.9497 84.2963 47.8963 83.0734C51.8429 81.8509 53.2817 78.8082 52.0297 74.6524L47.9541 61.1468C46.7022 56.9914 43.8282 55.2849 39.8853 56.5077Z" fill="#D82734"/>
</g>
<defs>
<clipPath id="clip0">
<rect width="171" height="114" fill="white"/>
</clipPath>
</defs>
</svg>
