<svg height="113" viewBox="0 0 112 113" width="112" xmlns="http://www.w3.org/2000/svg"><g fill="#1a1919" fill-rule="evenodd" transform="translate(-154 -75)"><path d="m209.94 179.565c-26.504 0-48.065-21.56-48.065-48.064s21.561-48.067 48.065-48.067 48.066 21.563 48.066 48.067-21.562 48.064-48.066 48.064zm0-103.64c-30.645 0-55.576 24.93-55.576 55.576 0 30.644 24.931 55.576 55.576 55.576 30.644 0 55.576-24.932 55.576-55.576 0-30.646-24.932-55.576-55.576-55.576z"/><path d="m215.25 131.501 21.678-21.678c1.467-1.467 1.467-3.845 0-5.311s-3.846-1.466-5.31 0l-48.665 48.667c-1.466 1.465-1.466 3.843 0 5.31.733.733 1.694 1.1 2.655 1.1s1.922-.367 2.656-1.1l21.676-21.678 21.678 21.677c.732.734 1.695 1.1 2.656 1.1s1.922-.366 2.654-1.1c1.467-1.466 1.467-3.844 0-5.31zm-29.642 3.754c2.074 0 3.756-1.681 3.756-3.755v-24.332c0-2.074-1.682-3.755-3.756-3.755s-3.754 1.681-3.754 3.755v24.332c0 2.074 1.68 3.755 3.754 3.755"/></g></svg>