<svg width="422" height="422" viewBox="0 0 422 422" fill="none" xmlns="http://www.w3.org/2000/svg">
<g clip-path="url(#clip0)">
<circle cx="211" cy="211" r="211" fill="white"/>
<circle cx="211" cy="211" r="179" fill="#DAD3C0"/>
<path d="M135.347 155.718L87.2184 227.246C35.1282 206.387 24.259 153.272 25.3357 129.322L106.418 107.295L135.347 155.718Z" fill="white" stroke="black" stroke-width="9"/>
<path d="M94.4783 216.25C74.8107 203.791 35.2712 166.986 38.971 125.58" stroke="black" stroke-width="9"/>
<path d="M246.167 340.087C244.196 337.094 138.34 153.747 138.34 153.747L180.546 129.623L197.915 161.391C191.5 165.095 192.858 174.517 196.302 180.062C196.302 180.062 279.126 320.572 280.656 324.063C282.185 327.554 279.326 330.177 277.118 332.666C274.91 335.156 256.598 344.854 254.596 345.427C251.259 346.381 248.138 343.08 246.167 340.087Z" fill="white" stroke="black" stroke-width="9"/>
<path d="M106.706 107.372L135.347 155.718L183.175 127.862L155.529 80.3993L106.706 107.372Z" fill="white" stroke="black" stroke-width="10"/>
<path d="M286.582 155.718L334.711 227.246C386.801 206.386 397.67 153.271 396.594 129.321L315.511 107.295L286.582 155.718Z" fill="white" stroke="black" stroke-width="9"/>
<path d="M327.451 216.25C347.119 203.791 386.658 166.986 382.958 125.58" stroke="black" stroke-width="9"/>
<path d="M175.763 340.086C177.734 337.093 283.589 153.747 283.589 153.747L241.383 129.622L224.014 161.391C230.429 165.095 229.072 174.517 225.627 180.062C225.627 180.062 142.803 320.571 141.274 324.062C139.744 327.553 142.604 330.176 144.811 332.666C147.019 335.156 165.332 344.853 167.334 345.426C170.671 346.381 173.792 343.08 175.763 340.086Z" fill="white" stroke="black" stroke-width="9"/>
<path d="M315.224 107.372L286.582 155.718L238.755 127.862L266.4 80.3988L315.224 107.372Z" fill="white" stroke="black" stroke-width="10"/>
</g>
<defs>
<clipPath id="clip0">
<rect width="422" height="422" fill="white"/>
</clipPath>
</defs>
</svg>
